<svg xmlns="http://www.w3.org/2000/svg" xmlns:xlink="http://www.w3.org/1999/xlink" width="600" height="400" viewBox="0 0 2400 1600">
<defs>
  <clipPath id="clip340">
    <rect x="0" y="0" width="2400" height="1600"></rect>
  </clipPath>
</defs>
<path clip-path="url(#clip340)" d="M0 1600 L2400 1600 L2400 0 L0 0  Z" fill="#ffffff" fill-rule="evenodd" fill-opacity="1"></path>
<defs>
  <clipPath id="clip341">
    <rect x="480" y="0" width="1681" height="1600"></rect>
  </clipPath>
</defs>
<path clip-path="url(#clip340)" d="M262.551 1423.18 L2352.76 1423.18 L2352.76 101.872 L262.551 101.872  Z" fill="#ffffff" fill-rule="evenodd" fill-opacity="1"></path>
<defs>
  <clipPath id="clip342">
    <rect x="262" y="101" width="2091" height="1322"></rect>
  </clipPath>
</defs>
<polyline clip-path="url(#clip342)" style="stroke:#000000; stroke-linecap:round; stroke-linejoin:round; stroke-width:2; stroke-opacity:0.1; fill:none" points="321.708,1423.18 321.708,101.872 "></polyline>
<polyline clip-path="url(#clip342)" style="stroke:#000000; stroke-linecap:round; stroke-linejoin:round; stroke-width:2; stroke-opacity:0.1; fill:none" points="814.681,1423.18 814.681,101.872 "></polyline>
<polyline clip-path="url(#clip342)" style="stroke:#000000; stroke-linecap:round; stroke-linejoin:round; stroke-width:2; stroke-opacity:0.1; fill:none" points="1307.65,1423.18 1307.65,101.872 "></polyline>
<polyline clip-path="url(#clip342)" style="stroke:#000000; stroke-linecap:round; stroke-linejoin:round; stroke-width:2; stroke-opacity:0.1; fill:none" points="1800.63,1423.18 1800.63,101.872 "></polyline>
<polyline clip-path="url(#clip342)" style="stroke:#000000; stroke-linecap:round; stroke-linejoin:round; stroke-width:2; stroke-opacity:0.1; fill:none" points="2293.6,1423.18 2293.6,101.872 "></polyline>
<polyline clip-path="url(#clip340)" style="stroke:#000000; stroke-linecap:round; stroke-linejoin:round; stroke-width:4; stroke-opacity:1; fill:none" points="262.551,1423.18 2352.76,1423.18 "></polyline>
<polyline clip-path="url(#clip340)" style="stroke:#000000; stroke-linecap:round; stroke-linejoin:round; stroke-width:4; stroke-opacity:1; fill:none" points="321.708,1423.18 321.708,1404.28 "></polyline>
<polyline clip-path="url(#clip340)" style="stroke:#000000; stroke-linecap:round; stroke-linejoin:round; stroke-width:4; stroke-opacity:1; fill:none" points="814.681,1423.18 814.681,1404.28 "></polyline>
<polyline clip-path="url(#clip340)" style="stroke:#000000; stroke-linecap:round; stroke-linejoin:round; stroke-width:4; stroke-opacity:1; fill:none" points="1307.65,1423.18 1307.65,1404.28 "></polyline>
<polyline clip-path="url(#clip340)" style="stroke:#000000; stroke-linecap:round; stroke-linejoin:round; stroke-width:4; stroke-opacity:1; fill:none" points="1800.63,1423.18 1800.63,1404.28 "></polyline>
<polyline clip-path="url(#clip340)" style="stroke:#000000; stroke-linecap:round; stroke-linejoin:round; stroke-width:4; stroke-opacity:1; fill:none" points="2293.6,1423.18 2293.6,1404.28 "></polyline>
<path clip-path="url(#clip340)" d="M299.092 1454.1 Q295.481 1454.1 293.653 1457.66 Q291.847 1461.2 291.847 1468.33 Q291.847 1475.44 293.653 1479.01 Q295.481 1482.55 299.092 1482.55 Q302.727 1482.55 304.532 1479.01 Q306.361 1475.44 306.361 1468.33 Q306.361 1461.2 304.532 1457.66 Q302.727 1454.1 299.092 1454.1 M299.092 1450.39 Q304.902 1450.39 307.958 1455 Q311.037 1459.58 311.037 1468.33 Q311.037 1477.06 307.958 1481.67 Q304.902 1486.25 299.092 1486.25 Q293.282 1486.25 290.203 1481.67 Q287.148 1477.06 287.148 1468.33 Q287.148 1459.58 290.203 1455 Q293.282 1450.39 299.092 1450.39 Z" fill="#000000" fill-rule="nonzero" fill-opacity="1"></path><path clip-path="url(#clip340)" d="M319.254 1479.7 L324.139 1479.7 L324.139 1485.58 L319.254 1485.58 L319.254 1479.7 Z" fill="#000000" fill-rule="nonzero" fill-opacity="1"></path><path clip-path="url(#clip340)" d="M344.324 1454.1 Q340.712 1454.1 338.884 1457.66 Q337.078 1461.2 337.078 1468.33 Q337.078 1475.44 338.884 1479.01 Q340.712 1482.55 344.324 1482.55 Q347.958 1482.55 349.763 1479.01 Q351.592 1475.44 351.592 1468.33 Q351.592 1461.2 349.763 1457.66 Q347.958 1454.1 344.324 1454.1 M344.324 1450.39 Q350.134 1450.39 353.189 1455 Q356.268 1459.58 356.268 1468.33 Q356.268 1477.06 353.189 1481.67 Q350.134 1486.25 344.324 1486.25 Q338.513 1486.25 335.435 1481.67 Q332.379 1477.06 332.379 1468.33 Q332.379 1459.58 335.435 1455 Q338.513 1450.39 344.324 1450.39 Z" fill="#000000" fill-rule="nonzero" fill-opacity="1"></path><path clip-path="url(#clip340)" d="M786.417 1481.64 L802.736 1481.64 L802.736 1485.58 L780.792 1485.58 L780.792 1481.64 Q783.454 1478.89 788.037 1474.26 Q792.644 1469.61 793.824 1468.27 Q796.07 1465.74 796.949 1464.01 Q797.852 1462.25 797.852 1460.56 Q797.852 1457.8 795.908 1456.07 Q793.986 1454.33 790.885 1454.33 Q788.686 1454.33 786.232 1455.09 Q783.801 1455.86 781.024 1457.41 L781.024 1452.69 Q783.848 1451.55 786.301 1450.97 Q788.755 1450.39 790.792 1450.39 Q796.162 1450.39 799.357 1453.08 Q802.551 1455.77 802.551 1460.26 Q802.551 1462.39 801.741 1464.31 Q800.954 1466.2 798.848 1468.8 Q798.269 1469.47 795.167 1472.69 Q792.065 1475.88 786.417 1481.64 Z" fill="#000000" fill-rule="nonzero" fill-opacity="1"></path><path clip-path="url(#clip340)" d="M812.551 1479.7 L817.435 1479.7 L817.435 1485.58 L812.551 1485.58 L812.551 1479.7 Z" fill="#000000" fill-rule="nonzero" fill-opacity="1"></path><path clip-path="url(#clip340)" d="M827.667 1451.02 L846.023 1451.02 L846.023 1454.96 L831.949 1454.96 L831.949 1463.43 Q832.968 1463.08 833.986 1462.92 Q835.005 1462.73 836.023 1462.73 Q841.81 1462.73 845.19 1465.9 Q848.569 1469.08 848.569 1474.49 Q848.569 1480.07 845.097 1483.17 Q841.625 1486.25 835.306 1486.25 Q833.13 1486.25 830.861 1485.88 Q828.616 1485.51 826.208 1484.77 L826.208 1480.07 Q828.292 1481.2 830.514 1481.76 Q832.736 1482.32 835.213 1482.32 Q839.218 1482.32 841.556 1480.21 Q843.894 1478.1 843.894 1474.49 Q843.894 1470.88 841.556 1468.77 Q839.218 1466.67 835.213 1466.67 Q833.338 1466.67 831.463 1467.08 Q829.611 1467.5 827.667 1468.38 L827.667 1451.02 Z" fill="#000000" fill-rule="nonzero" fill-opacity="1"></path><path clip-path="url(#clip340)" d="M1274.82 1451.02 L1293.17 1451.02 L1293.17 1454.96 L1279.1 1454.96 L1279.1 1463.43 Q1280.12 1463.08 1281.14 1462.92 Q1282.16 1462.73 1283.17 1462.73 Q1288.96 1462.73 1292.34 1465.9 Q1295.72 1469.08 1295.72 1474.49 Q1295.72 1480.07 1292.25 1483.17 Q1288.78 1486.25 1282.46 1486.25 Q1280.28 1486.25 1278.01 1485.88 Q1275.77 1485.51 1273.36 1484.77 L1273.36 1480.07 Q1275.44 1481.2 1277.67 1481.76 Q1279.89 1482.32 1282.36 1482.32 Q1286.37 1482.32 1288.71 1480.21 Q1291.04 1478.1 1291.04 1474.49 Q1291.04 1470.88 1288.71 1468.77 Q1286.37 1466.67 1282.36 1466.67 Q1280.49 1466.67 1278.61 1467.08 Q1276.76 1467.5 1274.82 1468.38 L1274.82 1451.02 Z" fill="#000000" fill-rule="nonzero" fill-opacity="1"></path><path clip-path="url(#clip340)" d="M1304.93 1479.7 L1309.82 1479.7 L1309.82 1485.58 L1304.93 1485.58 L1304.93 1479.7 Z" fill="#000000" fill-rule="nonzero" fill-opacity="1"></path><path clip-path="url(#clip340)" d="M1330 1454.1 Q1326.39 1454.1 1324.56 1457.66 Q1322.76 1461.2 1322.76 1468.33 Q1322.76 1475.44 1324.56 1479.01 Q1326.39 1482.55 1330 1482.55 Q1333.64 1482.55 1335.44 1479.01 Q1337.27 1475.44 1337.27 1468.33 Q1337.27 1461.2 1335.44 1457.66 Q1333.64 1454.1 1330 1454.1 M1330 1450.39 Q1335.81 1450.39 1338.87 1455 Q1341.95 1459.58 1341.95 1468.33 Q1341.95 1477.06 1338.87 1481.67 Q1335.81 1486.25 1330 1486.25 Q1324.19 1486.25 1321.11 1481.67 Q1318.06 1477.06 1318.06 1468.33 Q1318.06 1459.58 1321.11 1455 Q1324.19 1450.39 1330 1450.39 Z" fill="#000000" fill-rule="nonzero" fill-opacity="1"></path><path clip-path="url(#clip340)" d="M1766.95 1451.02 L1789.17 1451.02 L1789.17 1453.01 L1776.62 1485.58 L1771.74 1485.58 L1783.54 1454.96 L1766.95 1454.96 L1766.95 1451.02 Z" fill="#000000" fill-rule="nonzero" fill-opacity="1"></path><path clip-path="url(#clip340)" d="M1798.29 1479.7 L1803.17 1479.7 L1803.17 1485.58 L1798.29 1485.58 L1798.29 1479.7 Z" fill="#000000" fill-rule="nonzero" fill-opacity="1"></path><path clip-path="url(#clip340)" d="M1813.4 1451.02 L1831.76 1451.02 L1831.76 1454.96 L1817.69 1454.96 L1817.69 1463.43 Q1818.7 1463.08 1819.72 1462.92 Q1820.74 1462.73 1821.76 1462.73 Q1827.55 1462.73 1830.93 1465.9 Q1834.31 1469.08 1834.31 1474.49 Q1834.31 1480.07 1830.83 1483.17 Q1827.36 1486.25 1821.04 1486.25 Q1818.87 1486.25 1816.6 1485.88 Q1814.35 1485.51 1811.95 1484.77 L1811.95 1480.07 Q1814.03 1481.2 1816.25 1481.76 Q1818.47 1482.32 1820.95 1482.32 Q1824.95 1482.32 1827.29 1480.21 Q1829.63 1478.1 1829.63 1474.49 Q1829.63 1470.88 1827.29 1468.77 Q1824.95 1466.67 1820.95 1466.67 Q1819.08 1466.67 1817.2 1467.08 Q1815.35 1467.5 1813.4 1468.38 L1813.4 1451.02 Z" fill="#000000" fill-rule="nonzero" fill-opacity="1"></path><path clip-path="url(#clip340)" d="M2245.67 1481.64 L2253.31 1481.64 L2253.31 1455.28 L2245 1456.95 L2245 1452.69 L2253.26 1451.02 L2257.94 1451.02 L2257.94 1481.64 L2265.58 1481.64 L2265.58 1485.58 L2245.67 1485.58 L2245.67 1481.64 Z" fill="#000000" fill-rule="nonzero" fill-opacity="1"></path><path clip-path="url(#clip340)" d="M2285.02 1454.1 Q2281.41 1454.1 2279.58 1457.66 Q2277.78 1461.2 2277.78 1468.33 Q2277.78 1475.44 2279.58 1479.01 Q2281.41 1482.55 2285.02 1482.55 Q2288.66 1482.55 2290.46 1479.01 Q2292.29 1475.44 2292.29 1468.33 Q2292.29 1461.2 2290.46 1457.66 Q2288.66 1454.1 2285.02 1454.1 M2285.02 1450.39 Q2290.83 1450.39 2293.89 1455 Q2296.97 1459.58 2296.97 1468.33 Q2296.97 1477.06 2293.89 1481.67 Q2290.83 1486.25 2285.02 1486.25 Q2279.21 1486.25 2276.13 1481.67 Q2273.08 1477.06 2273.08 1468.33 Q2273.08 1459.58 2276.13 1455 Q2279.21 1450.39 2285.02 1450.39 Z" fill="#000000" fill-rule="nonzero" fill-opacity="1"></path><path clip-path="url(#clip340)" d="M2305.18 1479.7 L2310.07 1479.7 L2310.07 1485.58 L2305.18 1485.58 L2305.18 1479.7 Z" fill="#000000" fill-rule="nonzero" fill-opacity="1"></path><path clip-path="url(#clip340)" d="M2330.25 1454.1 Q2326.64 1454.1 2324.81 1457.66 Q2323.01 1461.2 2323.01 1468.33 Q2323.01 1475.44 2324.81 1479.01 Q2326.64 1482.55 2330.25 1482.55 Q2333.89 1482.55 2335.69 1479.01 Q2337.52 1475.44 2337.52 1468.33 Q2337.52 1461.2 2335.69 1457.66 Q2333.89 1454.1 2330.25 1454.1 M2330.25 1450.39 Q2336.06 1450.39 2339.12 1455 Q2342.2 1459.58 2342.2 1468.33 Q2342.2 1477.06 2339.12 1481.67 Q2336.06 1486.25 2330.25 1486.25 Q2324.44 1486.25 2321.37 1481.67 Q2318.31 1477.06 2318.31 1468.33 Q2318.31 1459.58 2321.37 1455 Q2324.44 1450.39 2330.25 1450.39 Z" fill="#000000" fill-rule="nonzero" fill-opacity="1"></path><path clip-path="url(#clip340)" d="M1034.77 1532.4 L1040.98 1532.4 L1052.12 1562.31 L1063.26 1532.4 L1069.46 1532.4 L1056.1 1568.04 L1048.14 1568.04 L1034.77 1532.4 Z" fill="#000000" fill-rule="nonzero" fill-opacity="1"></path><path clip-path="url(#clip340)" d="M1107.18 1546.53 L1107.18 1568.04 L1101.33 1568.04 L1101.33 1546.72 Q1101.33 1541.66 1099.35 1539.14 Q1097.38 1536.63 1093.43 1536.63 Q1088.69 1536.63 1085.95 1539.65 Q1083.21 1542.68 1083.21 1547.9 L1083.21 1568.04 L1077.33 1568.04 L1077.33 1518.52 L1083.21 1518.52 L1083.21 1537.93 Q1085.32 1534.72 1088.15 1533.13 Q1091.01 1531.54 1094.74 1531.54 Q1100.88 1531.54 1104.03 1535.36 Q1107.18 1539.14 1107.18 1546.53 Z" fill="#000000" fill-rule="nonzero" fill-opacity="1"></path><path clip-path="url(#clip340)" d="M1132.68 1536.5 Q1127.97 1536.5 1125.23 1540.19 Q1122.49 1543.85 1122.49 1550.25 Q1122.49 1556.65 1125.2 1560.34 Q1127.93 1564 1132.68 1564 Q1137.35 1564 1140.09 1560.31 Q1142.83 1556.62 1142.83 1550.25 Q1142.83 1543.92 1140.09 1540.23 Q1137.35 1536.5 1132.68 1536.5 M1132.68 1531.54 Q1140.32 1531.54 1144.68 1536.5 Q1149.04 1541.47 1149.04 1550.25 Q1149.04 1559 1144.68 1564 Q1140.32 1568.97 1132.68 1568.97 Q1125.01 1568.97 1120.65 1564 Q1116.32 1559 1116.32 1550.25 Q1116.32 1541.47 1120.65 1536.5 Q1125.01 1531.54 1132.68 1531.54 Z" fill="#000000" fill-rule="nonzero" fill-opacity="1"></path><path clip-path="url(#clip340)" d="M1182.2 1537.81 L1182.2 1518.52 L1188.06 1518.52 L1188.06 1568.04 L1182.2 1568.04 L1182.2 1562.7 Q1180.36 1565.88 1177.52 1567.44 Q1174.72 1568.97 1170.77 1568.97 Q1164.31 1568.97 1160.24 1563.81 Q1156.2 1558.65 1156.2 1550.25 Q1156.2 1541.85 1160.24 1536.69 Q1164.31 1531.54 1170.77 1531.54 Q1174.72 1531.54 1177.52 1533.1 Q1180.36 1534.62 1182.2 1537.81 M1162.24 1550.25 Q1162.24 1556.71 1164.89 1560.4 Q1167.56 1564.07 1172.21 1564.07 Q1176.85 1564.07 1179.53 1560.4 Q1182.2 1556.71 1182.2 1550.25 Q1182.2 1543.79 1179.53 1540.13 Q1176.85 1536.44 1172.21 1536.44 Q1167.56 1536.44 1164.89 1540.13 Q1162.24 1543.79 1162.24 1550.25 Z" fill="#000000" fill-rule="nonzero" fill-opacity="1"></path><path clip-path="url(#clip340)" d="M1229.75 1546.53 L1229.75 1568.04 L1223.9 1568.04 L1223.9 1546.72 Q1223.9 1541.66 1221.92 1539.14 Q1219.95 1536.63 1216 1536.63 Q1211.26 1536.63 1208.52 1539.65 Q1205.79 1542.68 1205.79 1547.9 L1205.79 1568.04 L1199.9 1568.04 L1199.9 1532.4 L1205.79 1532.4 L1205.79 1537.93 Q1207.89 1534.72 1210.72 1533.13 Q1213.58 1531.54 1217.31 1531.54 Q1223.45 1531.54 1226.6 1535.36 Q1229.75 1539.14 1229.75 1546.53 Z" fill="#000000" fill-rule="nonzero" fill-opacity="1"></path><path clip-path="url(#clip340)" d="M1257.64 1550.12 Q1250.54 1550.12 1247.8 1551.75 Q1245.06 1553.37 1245.06 1557.29 Q1245.06 1560.4 1247.1 1562.25 Q1249.17 1564.07 1252.7 1564.07 Q1257.57 1564.07 1260.5 1560.63 Q1263.46 1557.16 1263.46 1551.43 L1263.46 1550.12 L1257.64 1550.12 M1269.32 1547.71 L1269.32 1568.04 L1263.46 1568.04 L1263.46 1562.63 Q1261.45 1565.88 1258.46 1567.44 Q1255.47 1568.97 1251.14 1568.97 Q1245.67 1568.97 1242.42 1565.91 Q1239.21 1562.82 1239.21 1557.67 Q1239.21 1551.65 1243.22 1548.6 Q1247.26 1545.54 1255.25 1545.54 L1263.46 1545.54 L1263.46 1544.97 Q1263.46 1540.93 1260.79 1538.73 Q1258.14 1536.5 1253.34 1536.5 Q1250.28 1536.5 1247.39 1537.23 Q1244.49 1537.97 1241.82 1539.43 L1241.82 1534.02 Q1245.03 1532.78 1248.05 1532.17 Q1251.08 1531.54 1253.94 1531.54 Q1261.68 1531.54 1265.5 1535.55 Q1269.32 1539.56 1269.32 1547.71 Z" fill="#000000" fill-rule="nonzero" fill-opacity="1"></path><path clip-path="url(#clip340)" d="M1297.9 1532.4 L1304.1 1532.4 L1315.24 1562.31 L1326.38 1532.4 L1332.59 1532.4 L1319.22 1568.04 L1311.27 1568.04 L1297.9 1532.4 Z" fill="#000000" fill-rule="nonzero" fill-opacity="1"></path><path clip-path="url(#clip340)" d="M1361.33 1537.87 Q1360.35 1537.3 1359.17 1537.04 Q1358.02 1536.76 1356.62 1536.76 Q1351.66 1536.76 1348.98 1540 Q1346.34 1543.22 1346.34 1549.27 L1346.34 1568.04 L1340.45 1568.04 L1340.45 1532.4 L1346.34 1532.4 L1346.34 1537.93 Q1348.19 1534.69 1351.15 1533.13 Q1354.11 1531.54 1358.34 1531.54 Q1358.95 1531.54 1359.68 1531.63 Q1360.41 1531.7 1361.3 1531.85 L1361.33 1537.87 Z" fill="#000000" fill-rule="nonzero" fill-opacity="1"></path><path clip-path="url(#clip340)" d="M1396.53 1548.76 L1396.53 1551.62 L1369.61 1551.62 Q1369.99 1557.67 1373.24 1560.85 Q1376.51 1564 1382.34 1564 Q1385.71 1564 1388.86 1563.17 Q1392.05 1562.35 1395.17 1560.69 L1395.17 1566.23 Q1392.02 1567.57 1388.7 1568.27 Q1385.39 1568.97 1381.99 1568.97 Q1373.46 1568.97 1368.46 1564 Q1363.5 1559.04 1363.5 1550.57 Q1363.5 1541.82 1368.21 1536.69 Q1372.95 1531.54 1380.97 1531.54 Q1388.16 1531.54 1392.33 1536.18 Q1396.53 1540.8 1396.53 1548.76 M1390.68 1547.04 Q1390.61 1542.23 1387.97 1539.37 Q1385.36 1536.5 1381.03 1536.5 Q1376.13 1536.5 1373.17 1539.27 Q1370.24 1542.04 1369.8 1547.07 L1390.68 1547.04 Z" fill="#000000" fill-rule="nonzero" fill-opacity="1"></path><path clip-path="url(#clip340)" d="M1429.6 1537.81 L1429.6 1518.52 L1435.46 1518.52 L1435.46 1568.04 L1429.6 1568.04 L1429.6 1562.7 Q1427.76 1565.88 1424.93 1567.44 Q1422.12 1568.97 1418.18 1568.97 Q1411.72 1568.97 1407.64 1563.81 Q1403.6 1558.65 1403.6 1550.25 Q1403.6 1541.85 1407.64 1536.69 Q1411.72 1531.54 1418.18 1531.54 Q1422.12 1531.54 1424.93 1533.1 Q1427.76 1534.62 1429.6 1537.81 M1409.65 1550.25 Q1409.65 1556.71 1412.29 1560.4 Q1414.96 1564.07 1419.61 1564.07 Q1424.26 1564.07 1426.93 1560.4 Q1429.6 1556.71 1429.6 1550.25 Q1429.6 1543.79 1426.93 1540.13 Q1424.26 1536.44 1419.61 1536.44 Q1414.96 1536.44 1412.29 1540.13 Q1409.65 1543.79 1409.65 1550.25 Z" fill="#000000" fill-rule="nonzero" fill-opacity="1"></path><path clip-path="url(#clip340)" d="M1477.16 1546.53 L1477.16 1568.04 L1471.3 1568.04 L1471.3 1546.72 Q1471.3 1541.66 1469.33 1539.14 Q1467.35 1536.63 1463.41 1536.63 Q1458.66 1536.63 1455.93 1539.65 Q1453.19 1542.68 1453.19 1547.9 L1453.19 1568.04 L1447.3 1568.04 L1447.3 1532.4 L1453.19 1532.4 L1453.19 1537.93 Q1455.29 1534.72 1458.12 1533.13 Q1460.99 1531.54 1464.71 1531.54 Q1470.85 1531.54 1474.01 1535.36 Q1477.16 1539.14 1477.16 1546.53 Z" fill="#000000" fill-rule="nonzero" fill-opacity="1"></path><path clip-path="url(#clip340)" d="M1502.65 1536.5 Q1497.94 1536.5 1495.2 1540.19 Q1492.47 1543.85 1492.47 1550.25 Q1492.47 1556.65 1495.17 1560.34 Q1497.91 1564 1502.65 1564 Q1507.33 1564 1510.07 1560.31 Q1512.8 1556.62 1512.8 1550.25 Q1512.8 1543.92 1510.07 1540.23 Q1507.33 1536.5 1502.65 1536.5 M1502.65 1531.54 Q1510.29 1531.54 1514.65 1536.5 Q1519.01 1541.47 1519.01 1550.25 Q1519.01 1559 1514.65 1564 Q1510.29 1568.97 1502.65 1568.97 Q1494.98 1568.97 1490.62 1564 Q1486.29 1559 1486.29 1550.25 Q1486.29 1541.47 1490.62 1536.5 Q1494.98 1531.54 1502.65 1531.54 Z" fill="#000000" fill-rule="nonzero" fill-opacity="1"></path><path clip-path="url(#clip340)" d="M1551.44 1533.45 L1551.44 1538.98 Q1548.96 1537.71 1546.29 1537.07 Q1543.61 1536.44 1540.75 1536.44 Q1536.39 1536.44 1534.19 1537.77 Q1532.03 1539.11 1532.03 1541.79 Q1532.03 1543.82 1533.59 1545 Q1535.15 1546.15 1539.86 1547.2 L1541.86 1547.64 Q1548.1 1548.98 1550.71 1551.43 Q1553.35 1553.85 1553.35 1558.21 Q1553.35 1563.17 1549.41 1566.07 Q1545.49 1568.97 1538.62 1568.97 Q1535.75 1568.97 1532.63 1568.39 Q1529.55 1567.85 1526.11 1566.74 L1526.11 1560.69 Q1529.36 1562.38 1532.51 1563.24 Q1535.66 1564.07 1538.74 1564.07 Q1542.88 1564.07 1545.11 1562.66 Q1547.34 1561.23 1547.34 1558.65 Q1547.34 1556.27 1545.72 1554.99 Q1544.12 1553.72 1538.68 1552.54 L1536.64 1552.07 Q1531.2 1550.92 1528.78 1548.56 Q1526.36 1546.18 1526.36 1542.04 Q1526.36 1537.01 1529.93 1534.27 Q1533.49 1531.54 1540.05 1531.54 Q1543.3 1531.54 1546.16 1532.01 Q1549.03 1532.49 1551.44 1533.45 Z" fill="#000000" fill-rule="nonzero" fill-opacity="1"></path><path clip-path="url(#clip340)" d="M1568.47 1522.27 L1568.47 1532.4 L1580.54 1532.4 L1580.54 1536.95 L1568.47 1536.95 L1568.47 1556.3 Q1568.47 1560.66 1569.65 1561.9 Q1570.86 1563.14 1574.52 1563.14 L1580.54 1563.14 L1580.54 1568.04 L1574.52 1568.04 Q1567.74 1568.04 1565.16 1565.53 Q1562.58 1562.98 1562.58 1556.3 L1562.58 1536.95 L1558.29 1536.95 L1558.29 1532.4 L1562.58 1532.4 L1562.58 1522.27 L1568.47 1522.27 Z" fill="#000000" fill-rule="nonzero" fill-opacity="1"></path><polyline clip-path="url(#clip342)" style="stroke:#000000; stroke-linecap:round; stroke-linejoin:round; stroke-width:2; stroke-opacity:0.1; fill:none" points="262.551,1398.38 2352.76,1398.38 "></polyline>
<polyline clip-path="url(#clip342)" style="stroke:#000000; stroke-linecap:round; stroke-linejoin:round; stroke-width:2; stroke-opacity:0.1; fill:none" points="262.551,1083.6 2352.76,1083.6 "></polyline>
<polyline clip-path="url(#clip342)" style="stroke:#000000; stroke-linecap:round; stroke-linejoin:round; stroke-width:2; stroke-opacity:0.1; fill:none" points="262.551,768.822 2352.76,768.822 "></polyline>
<polyline clip-path="url(#clip342)" style="stroke:#000000; stroke-linecap:round; stroke-linejoin:round; stroke-width:2; stroke-opacity:0.1; fill:none" points="262.551,454.045 2352.76,454.045 "></polyline>
<polyline clip-path="url(#clip342)" style="stroke:#000000; stroke-linecap:round; stroke-linejoin:round; stroke-width:2; stroke-opacity:0.1; fill:none" points="262.551,139.268 2352.76,139.268 "></polyline>
<polyline clip-path="url(#clip340)" style="stroke:#000000; stroke-linecap:round; stroke-linejoin:round; stroke-width:4; stroke-opacity:1; fill:none" points="262.551,1423.18 262.551,101.872 "></polyline>
<polyline clip-path="url(#clip340)" style="stroke:#000000; stroke-linecap:round; stroke-linejoin:round; stroke-width:4; stroke-opacity:1; fill:none" points="262.551,1398.38 281.449,1398.38 "></polyline>
<polyline clip-path="url(#clip340)" style="stroke:#000000; stroke-linecap:round; stroke-linejoin:round; stroke-width:4; stroke-opacity:1; fill:none" points="262.551,1083.6 281.449,1083.6 "></polyline>
<polyline clip-path="url(#clip340)" style="stroke:#000000; stroke-linecap:round; stroke-linejoin:round; stroke-width:4; stroke-opacity:1; fill:none" points="262.551,768.822 281.449,768.822 "></polyline>
<polyline clip-path="url(#clip340)" style="stroke:#000000; stroke-linecap:round; stroke-linejoin:round; stroke-width:4; stroke-opacity:1; fill:none" points="262.551,454.045 281.449,454.045 "></polyline>
<polyline clip-path="url(#clip340)" style="stroke:#000000; stroke-linecap:round; stroke-linejoin:round; stroke-width:4; stroke-opacity:1; fill:none" points="262.551,139.268 281.449,139.268 "></polyline>
<path clip-path="url(#clip340)" d="M214.607 1384.17 Q210.996 1384.17 209.167 1387.74 Q207.362 1391.28 207.362 1398.41 Q207.362 1405.52 209.167 1409.08 Q210.996 1412.62 214.607 1412.62 Q218.241 1412.62 220.047 1409.08 Q221.875 1405.52 221.875 1398.41 Q221.875 1391.28 220.047 1387.74 Q218.241 1384.17 214.607 1384.17 M214.607 1380.47 Q220.417 1380.47 223.473 1385.08 Q226.551 1389.66 226.551 1398.41 Q226.551 1407.14 223.473 1411.74 Q220.417 1416.33 214.607 1416.33 Q208.797 1416.33 205.718 1411.74 Q202.662 1407.14 202.662 1398.41 Q202.662 1389.66 205.718 1385.08 Q208.797 1380.47 214.607 1380.47 Z" fill="#000000" fill-rule="nonzero" fill-opacity="1"></path><path clip-path="url(#clip340)" d="M148.311 1096.94 L164.63 1096.94 L164.63 1100.88 L142.686 1100.88 L142.686 1096.94 Q145.348 1094.19 149.931 1089.56 Q154.538 1084.91 155.718 1083.56 Q157.964 1081.04 158.843 1079.3 Q159.746 1077.55 159.746 1075.86 Q159.746 1073.1 157.802 1071.36 Q155.88 1069.63 152.778 1069.63 Q150.579 1069.63 148.126 1070.39 Q145.695 1071.16 142.917 1072.71 L142.917 1067.99 Q145.741 1066.85 148.195 1066.27 Q150.649 1065.69 152.686 1065.69 Q158.056 1065.69 161.251 1068.38 Q164.445 1071.06 164.445 1075.55 Q164.445 1077.68 163.635 1079.61 Q162.848 1081.5 160.741 1084.1 Q160.163 1084.77 157.061 1087.99 Q153.959 1091.18 148.311 1096.94 Z" fill="#000000" fill-rule="nonzero" fill-opacity="1"></path><path clip-path="url(#clip340)" d="M174.491 1066.32 L192.848 1066.32 L192.848 1070.25 L178.774 1070.25 L178.774 1078.73 Q179.792 1078.38 180.811 1078.22 Q181.829 1078.03 182.848 1078.03 Q188.635 1078.03 192.014 1081.2 Q195.394 1084.37 195.394 1089.79 Q195.394 1095.37 191.922 1098.47 Q188.45 1101.55 182.13 1101.55 Q179.954 1101.55 177.686 1101.18 Q175.44 1100.81 173.033 1100.07 L173.033 1095.37 Q175.116 1096.5 177.339 1097.06 Q179.561 1097.61 182.038 1097.61 Q186.042 1097.61 188.38 1095.51 Q190.718 1093.4 190.718 1089.79 Q190.718 1086.18 188.38 1084.07 Q186.042 1081.97 182.038 1081.97 Q180.163 1081.97 178.288 1082.38 Q176.436 1082.8 174.491 1083.68 L174.491 1066.32 Z" fill="#000000" fill-rule="nonzero" fill-opacity="1"></path><path clip-path="url(#clip340)" d="M214.607 1069.4 Q210.996 1069.4 209.167 1072.96 Q207.362 1076.5 207.362 1083.63 Q207.362 1090.74 209.167 1094.3 Q210.996 1097.85 214.607 1097.85 Q218.241 1097.85 220.047 1094.3 Q221.875 1090.74 221.875 1083.63 Q221.875 1076.5 220.047 1072.96 Q218.241 1069.4 214.607 1069.4 M214.607 1065.69 Q220.417 1065.69 223.473 1070.3 Q226.551 1074.88 226.551 1083.63 Q226.551 1092.36 223.473 1096.97 Q220.417 1101.55 214.607 1101.55 Q208.797 1101.55 205.718 1096.97 Q202.662 1092.36 202.662 1083.63 Q202.662 1074.88 205.718 1070.3 Q208.797 1065.69 214.607 1065.69 Z" fill="#000000" fill-rule="nonzero" fill-opacity="1"></path><path clip-path="url(#clip340)" d="M144.329 751.542 L162.686 751.542 L162.686 755.477 L148.612 755.477 L148.612 763.949 Q149.63 763.602 150.649 763.44 Q151.667 763.254 152.686 763.254 Q158.473 763.254 161.852 766.426 Q165.232 769.597 165.232 775.014 Q165.232 780.592 161.76 783.694 Q158.288 786.773 151.968 786.773 Q149.792 786.773 147.524 786.402 Q145.279 786.032 142.871 785.291 L142.871 780.592 Q144.954 781.727 147.177 782.282 Q149.399 782.838 151.876 782.838 Q155.88 782.838 158.218 780.731 Q160.556 778.625 160.556 775.014 Q160.556 771.403 158.218 769.296 Q155.88 767.19 151.876 767.19 Q150.001 767.19 148.126 767.606 Q146.274 768.023 144.329 768.903 L144.329 751.542 Z" fill="#000000" fill-rule="nonzero" fill-opacity="1"></path><path clip-path="url(#clip340)" d="M184.445 754.62 Q180.834 754.62 179.005 758.185 Q177.2 761.727 177.2 768.856 Q177.2 775.963 179.005 779.527 Q180.834 783.069 184.445 783.069 Q188.079 783.069 189.885 779.527 Q191.713 775.963 191.713 768.856 Q191.713 761.727 189.885 758.185 Q188.079 754.62 184.445 754.62 M184.445 750.917 Q190.255 750.917 193.311 755.523 Q196.389 760.106 196.389 768.856 Q196.389 777.583 193.311 782.19 Q190.255 786.773 184.445 786.773 Q178.635 786.773 175.556 782.19 Q172.501 777.583 172.501 768.856 Q172.501 760.106 175.556 755.523 Q178.635 750.917 184.445 750.917 Z" fill="#000000" fill-rule="nonzero" fill-opacity="1"></path><path clip-path="url(#clip340)" d="M214.607 754.62 Q210.996 754.62 209.167 758.185 Q207.362 761.727 207.362 768.856 Q207.362 775.963 209.167 779.527 Q210.996 783.069 214.607 783.069 Q218.241 783.069 220.047 779.527 Q221.875 775.963 221.875 768.856 Q221.875 761.727 220.047 758.185 Q218.241 754.62 214.607 754.62 M214.607 750.917 Q220.417 750.917 223.473 755.523 Q226.551 760.106 226.551 768.856 Q226.551 777.583 223.473 782.19 Q220.417 786.773 214.607 786.773 Q208.797 786.773 205.718 782.19 Q202.662 777.583 202.662 768.856 Q202.662 760.106 205.718 755.523 Q208.797 750.917 214.607 750.917 Z" fill="#000000" fill-rule="nonzero" fill-opacity="1"></path><path clip-path="url(#clip340)" d="M143.103 436.765 L165.325 436.765 L165.325 438.755 L152.778 471.325 L147.894 471.325 L159.7 440.7 L143.103 440.7 L143.103 436.765 Z" fill="#000000" fill-rule="nonzero" fill-opacity="1"></path><path clip-path="url(#clip340)" d="M174.491 436.765 L192.848 436.765 L192.848 440.7 L178.774 440.7 L178.774 449.172 Q179.792 448.825 180.811 448.663 Q181.829 448.477 182.848 448.477 Q188.635 448.477 192.014 451.649 Q195.394 454.82 195.394 460.237 Q195.394 465.815 191.922 468.917 Q188.45 471.996 182.13 471.996 Q179.954 471.996 177.686 471.625 Q175.44 471.255 173.033 470.514 L173.033 465.815 Q175.116 466.95 177.339 467.505 Q179.561 468.061 182.038 468.061 Q186.042 468.061 188.38 465.954 Q190.718 463.848 190.718 460.237 Q190.718 456.626 188.38 454.519 Q186.042 452.413 182.038 452.413 Q180.163 452.413 178.288 452.829 Q176.436 453.246 174.491 454.126 L174.491 436.765 Z" fill="#000000" fill-rule="nonzero" fill-opacity="1"></path><path clip-path="url(#clip340)" d="M214.607 439.843 Q210.996 439.843 209.167 443.408 Q207.362 446.95 207.362 454.079 Q207.362 461.186 209.167 464.751 Q210.996 468.292 214.607 468.292 Q218.241 468.292 220.047 464.751 Q221.875 461.186 221.875 454.079 Q221.875 446.95 220.047 443.408 Q218.241 439.843 214.607 439.843 M214.607 436.14 Q220.417 436.14 223.473 440.746 Q226.551 445.329 226.551 454.079 Q226.551 462.806 223.473 467.413 Q220.417 471.996 214.607 471.996 Q208.797 471.996 205.718 467.413 Q202.662 462.806 202.662 454.079 Q202.662 445.329 205.718 440.746 Q208.797 436.14 214.607 436.14 Z" fill="#000000" fill-rule="nonzero" fill-opacity="1"></path><path clip-path="url(#clip340)" d="M114.931 152.612 L122.57 152.612 L122.57 126.247 L114.26 127.914 L114.26 123.654 L122.524 121.988 L127.2 121.988 L127.2 152.612 L134.839 152.612 L134.839 156.548 L114.931 156.548 L114.931 152.612 Z" fill="#000000" fill-rule="nonzero" fill-opacity="1"></path><path clip-path="url(#clip340)" d="M154.283 125.066 Q150.672 125.066 148.843 128.631 Q147.038 132.173 147.038 139.302 Q147.038 146.409 148.843 149.974 Q150.672 153.515 154.283 153.515 Q157.917 153.515 159.723 149.974 Q161.552 146.409 161.552 139.302 Q161.552 132.173 159.723 128.631 Q157.917 125.066 154.283 125.066 M154.283 121.363 Q160.093 121.363 163.149 125.969 Q166.227 130.552 166.227 139.302 Q166.227 148.029 163.149 152.636 Q160.093 157.219 154.283 157.219 Q148.473 157.219 145.394 152.636 Q142.339 148.029 142.339 139.302 Q142.339 130.552 145.394 125.969 Q148.473 121.363 154.283 121.363 Z" fill="#000000" fill-rule="nonzero" fill-opacity="1"></path><path clip-path="url(#clip340)" d="M184.445 125.066 Q180.834 125.066 179.005 128.631 Q177.2 132.173 177.2 139.302 Q177.2 146.409 179.005 149.974 Q180.834 153.515 184.445 153.515 Q188.079 153.515 189.885 149.974 Q191.713 146.409 191.713 139.302 Q191.713 132.173 189.885 128.631 Q188.079 125.066 184.445 125.066 M184.445 121.363 Q190.255 121.363 193.311 125.969 Q196.389 130.552 196.389 139.302 Q196.389 148.029 193.311 152.636 Q190.255 157.219 184.445 157.219 Q178.635 157.219 175.556 152.636 Q172.501 148.029 172.501 139.302 Q172.501 130.552 175.556 125.969 Q178.635 121.363 184.445 121.363 Z" fill="#000000" fill-rule="nonzero" fill-opacity="1"></path><path clip-path="url(#clip340)" d="M214.607 125.066 Q210.996 125.066 209.167 128.631 Q207.362 132.173 207.362 139.302 Q207.362 146.409 209.167 149.974 Q210.996 153.515 214.607 153.515 Q218.241 153.515 220.047 149.974 Q221.875 146.409 221.875 139.302 Q221.875 132.173 220.047 128.631 Q218.241 125.066 214.607 125.066 M214.607 121.363 Q220.417 121.363 223.473 125.969 Q226.551 130.552 226.551 139.302 Q226.551 148.029 223.473 152.636 Q220.417 157.219 214.607 157.219 Q208.797 157.219 205.718 152.636 Q202.662 148.029 202.662 139.302 Q202.662 130.552 205.718 125.969 Q208.797 121.363 214.607 121.363 Z" fill="#000000" fill-rule="nonzero" fill-opacity="1"></path><path clip-path="url(#clip340)" d="M29.4065 1131.39 L34.9447 1131.39 Q33.6716 1133.87 33.035 1136.54 Q32.3984 1139.22 32.3984 1142.08 Q32.3984 1146.44 33.7352 1148.64 Q35.072 1150.8 37.7456 1150.8 Q39.7826 1150.8 40.9603 1149.24 Q42.1061 1147.68 43.1565 1142.97 L43.6021 1140.97 Q44.9389 1134.73 47.3897 1132.12 Q49.8086 1129.48 54.1691 1129.48 Q59.1344 1129.48 62.0308 1133.42 Q64.9272 1137.34 64.9272 1144.21 Q64.9272 1147.08 64.3543 1150.2 Q63.8132 1153.28 62.6992 1156.72 L56.6518 1156.72 Q58.3387 1153.48 59.198 1150.32 Q60.0256 1147.17 60.0256 1144.09 Q60.0256 1139.95 58.6251 1137.72 Q57.1929 1135.49 54.6147 1135.49 Q52.2276 1135.49 50.9545 1137.12 Q49.6813 1138.71 48.5037 1144.15 L48.0262 1146.19 Q46.8804 1151.63 44.5251 1154.05 Q42.138 1156.47 38.0002 1156.47 Q32.9713 1156.47 30.2341 1152.9 Q27.4968 1149.34 27.4968 1142.78 Q27.4968 1139.53 27.9743 1136.67 Q28.4517 1133.81 29.4065 1131.39 M23.8365 1144.95 L11.869 1152.74 L11.869 1148.32 L19.667 1142.59 L11.869 1136.86 L11.869 1132.44 L23.8365 1140.24 L23.8365 1144.95 M27.4968 1142.72 L27.4968 1142.72 Z" fill="#000000" fill-rule="nonzero" fill-opacity="1"></path><path clip-path="url(#clip340)" d="M18.2347 1114.36 L28.3562 1114.36 L28.3562 1102.3 L32.9077 1102.3 L32.9077 1114.36 L52.2594 1114.36 Q56.6199 1114.36 57.8613 1113.18 Q59.1026 1111.97 59.1026 1108.31 L59.1026 1102.3 L64.0042 1102.3 L64.0042 1108.31 Q64.0042 1115.09 61.4897 1117.67 Q58.9434 1120.25 52.2594 1120.25 L32.9077 1120.25 L32.9077 1124.54 L28.3562 1124.54 L28.3562 1120.25 L18.2347 1120.25 L18.2347 1114.36 Z" fill="#000000" fill-rule="nonzero" fill-opacity="1"></path><path clip-path="url(#clip340)" d="M44.7161 1064.1 L47.5806 1064.1 L47.5806 1091.03 Q53.6281 1090.65 56.8109 1087.4 Q59.9619 1084.12 59.9619 1078.3 Q59.9619 1074.92 59.1344 1071.77 Q58.3069 1068.59 56.6518 1065.47 L62.1899 1065.47 Q63.5267 1068.62 64.227 1071.93 Q64.9272 1075.24 64.9272 1078.65 Q64.9272 1087.18 59.9619 1092.17 Q54.9967 1097.14 46.5303 1097.14 Q37.7774 1097.14 32.6531 1092.43 Q27.4968 1087.69 27.4968 1079.67 Q27.4968 1072.47 32.1438 1068.3 Q36.7589 1064.1 44.7161 1064.1 M42.9973 1069.96 Q38.1912 1070.02 35.3266 1072.66 Q32.4621 1075.27 32.4621 1079.6 Q32.4621 1084.5 35.2312 1087.46 Q38.0002 1090.39 43.0292 1090.84 L42.9973 1069.96 Z" fill="#000000" fill-rule="nonzero" fill-opacity="1"></path><path clip-path="url(#clip340)" d="M28.3562 1058.69 L28.3562 1052.48 L58.275 1041.34 L28.3562 1030.2 L28.3562 1024 L64.0042 1037.37 L64.0042 1045.32 L28.3562 1058.69 Z" fill="#000000" fill-rule="nonzero" fill-opacity="1"></path><path clip-path="url(#clip340)" d="M28.3562 1015.91 L28.3562 1010.06 L64.0042 1010.06 L64.0042 1015.91 L28.3562 1015.91 M14.479 1015.91 L14.479 1010.06 L21.895 1010.06 L21.895 1015.91 L14.479 1015.91 Z" fill="#000000" fill-rule="nonzero" fill-opacity="1"></path><path clip-path="url(#clip340)" d="M14.479 997.803 L14.479 991.946 L64.0042 991.946 L64.0042 997.803 L14.479 997.803 Z" fill="#000000" fill-rule="nonzero" fill-opacity="1"></path><path clip-path="url(#clip340)" d="M32.4621 965.878 Q32.4621 970.589 36.1542 973.326 Q39.8145 976.064 46.212 976.064 Q52.6095 976.064 56.3017 973.358 Q59.9619 970.621 59.9619 965.878 Q59.9619 961.2 56.2698 958.462 Q52.5777 955.725 46.212 955.725 Q39.8781 955.725 36.186 958.462 Q32.4621 961.2 32.4621 965.878 M27.4968 965.878 Q27.4968 958.24 32.4621 953.879 Q37.4273 949.519 46.212 949.519 Q54.9649 949.519 59.9619 953.879 Q64.9272 958.24 64.9272 965.878 Q64.9272 973.549 59.9619 977.91 Q54.9649 982.238 46.212 982.238 Q37.4273 982.238 32.4621 977.91 Q27.4968 973.549 27.4968 965.878 Z" fill="#000000" fill-rule="nonzero" fill-opacity="1"></path><path clip-path="url(#clip340)" d="M58.657 913.425 L77.5631 913.425 L77.5631 919.313 L28.3562 919.313 L28.3562 913.425 L33.7671 913.425 Q30.5842 911.579 29.0564 908.778 Q27.4968 905.945 27.4968 902.03 Q27.4968 895.537 32.6531 891.495 Q37.8093 887.421 46.212 887.421 Q54.6147 887.421 59.771 891.495 Q64.9272 895.537 64.9272 902.03 Q64.9272 905.945 63.3994 908.778 Q61.8398 911.579 58.657 913.425 M46.212 893.5 Q39.7508 893.5 36.0905 896.174 Q32.3984 898.816 32.3984 903.463 Q32.3984 908.11 36.0905 910.783 Q39.7508 913.425 46.212 913.425 Q52.6732 913.425 56.3653 910.783 Q60.0256 908.11 60.0256 903.463 Q60.0256 898.816 56.3653 896.174 Q52.6732 893.5 46.212 893.5 Z" fill="#000000" fill-rule="nonzero" fill-opacity="1"></path><path clip-path="url(#clip340)" d="M32.4621 863.9 Q32.4621 868.61 36.1542 871.348 Q39.8145 874.085 46.212 874.085 Q52.6095 874.085 56.3017 871.38 Q59.9619 868.642 59.9619 863.9 Q59.9619 859.221 56.2698 856.484 Q52.5777 853.747 46.212 853.747 Q39.8781 853.747 36.186 856.484 Q32.4621 859.221 32.4621 863.9 M27.4968 863.9 Q27.4968 856.261 32.4621 851.901 Q37.4273 847.54 46.212 847.54 Q54.9649 847.54 59.9619 851.901 Q64.9272 856.261 64.9272 863.9 Q64.9272 871.571 59.9619 875.931 Q54.9649 880.26 46.212 880.26 Q37.4273 880.26 32.4621 875.931 Q27.4968 871.571 27.4968 863.9 Z" fill="#000000" fill-rule="nonzero" fill-opacity="1"></path><path clip-path="url(#clip340)" d="M33.7671 814.375 L14.479 814.375 L14.479 808.518 L64.0042 808.518 L64.0042 814.375 L58.657 814.375 Q61.8398 816.221 63.3994 819.053 Q64.9272 821.854 64.9272 825.801 Q64.9272 832.262 59.771 836.336 Q54.6147 840.379 46.212 840.379 Q37.8093 840.379 32.6531 836.336 Q27.4968 832.262 27.4968 825.801 Q27.4968 821.854 29.0564 819.053 Q30.5842 816.221 33.7671 814.375 M46.212 834.331 Q52.6732 834.331 56.3653 831.689 Q60.0256 829.016 60.0256 824.369 Q60.0256 819.722 56.3653 817.048 Q52.6732 814.375 46.212 814.375 Q39.7508 814.375 36.0905 817.048 Q32.3984 819.722 32.3984 824.369 Q32.3984 829.016 36.0905 831.689 Q39.7508 834.331 46.212 834.331 Z" fill="#000000" fill-rule="nonzero" fill-opacity="1"></path><path clip-path="url(#clip340)" d="M28.3562 796.455 L28.3562 790.599 L64.0042 790.599 L64.0042 796.455 L28.3562 796.455 M14.479 796.455 L14.479 790.599 L21.895 790.599 L21.895 796.455 L14.479 796.455 Z" fill="#000000" fill-rule="nonzero" fill-opacity="1"></path><path clip-path="url(#clip340)" d="M42.4881 748.712 L64.0042 748.712 L64.0042 754.569 L42.679 754.569 Q37.6183 754.569 35.1038 756.542 Q32.5894 758.516 32.5894 762.462 Q32.5894 767.205 35.6131 769.942 Q38.6368 772.679 43.8567 772.679 L64.0042 772.679 L64.0042 778.568 L28.3562 778.568 L28.3562 772.679 L33.8944 772.679 Q30.6797 770.579 29.0883 767.746 Q27.4968 764.881 27.4968 761.157 Q27.4968 755.014 31.3163 751.863 Q35.1038 748.712 42.4881 748.712 Z" fill="#000000" fill-rule="nonzero" fill-opacity="1"></path><path clip-path="url(#clip340)" d="M18.2347 731.239 L28.3562 731.239 L28.3562 719.176 L32.9077 719.176 L32.9077 731.239 L52.2594 731.239 Q56.6199 731.239 57.8613 730.061 Q59.1026 728.851 59.1026 725.191 L59.1026 719.176 L64.0042 719.176 L64.0042 725.191 Q64.0042 731.971 61.4897 734.549 Q58.9434 737.127 52.2594 737.127 L32.9077 737.127 L32.9077 741.424 L28.3562 741.424 L28.3562 737.127 L18.2347 737.127 L18.2347 731.239 Z" fill="#000000" fill-rule="nonzero" fill-opacity="1"></path><path clip-path="url(#clip340)" d="M44.7161 680.981 L47.5806 680.981 L47.5806 707.908 Q53.6281 707.526 56.8109 704.28 Q59.9619 701.001 59.9619 695.177 Q59.9619 691.803 59.1344 688.652 Q58.3069 685.469 56.6518 682.35 L62.1899 682.35 Q63.5267 685.501 64.227 688.811 Q64.9272 692.121 64.9272 695.527 Q64.9272 704.057 59.9619 709.054 Q54.9967 714.019 46.5303 714.019 Q37.7774 714.019 32.6531 709.309 Q27.4968 704.566 27.4968 696.545 Q27.4968 689.352 32.1438 685.183 Q36.7589 680.981 44.7161 680.981 M42.9973 686.838 Q38.1912 686.901 35.3266 689.543 Q32.4621 692.153 32.4621 696.482 Q32.4621 701.383 35.2312 704.343 Q38.0002 707.272 43.0292 707.717 L42.9973 686.838 Z" fill="#000000" fill-rule="nonzero" fill-opacity="1"></path><path clip-path="url(#clip340)" d="M33.8307 650.712 Q33.2578 651.699 33.0032 652.877 Q32.7167 654.023 32.7167 655.423 Q32.7167 660.388 35.9632 663.062 Q39.1779 665.704 45.2253 665.704 L64.0042 665.704 L64.0042 671.592 L28.3562 671.592 L28.3562 665.704 L33.8944 665.704 Q30.6479 663.858 29.0883 660.897 Q27.4968 657.937 27.4968 653.704 Q27.4968 653.099 27.5923 652.367 Q27.656 651.635 27.8151 650.744 L33.8307 650.712 Z" fill="#000000" fill-rule="nonzero" fill-opacity="1"></path><path clip-path="url(#clip340)" d="M28.3562 648.771 L28.3562 642.564 L58.275 631.424 L28.3562 620.284 L28.3562 614.078 L64.0042 627.446 L64.0042 635.403 L28.3562 648.771 Z" fill="#000000" fill-rule="nonzero" fill-opacity="1"></path><path clip-path="url(#clip340)" d="M46.0847 589.793 Q46.0847 596.89 47.7079 599.628 Q49.3312 602.365 53.2461 602.365 Q56.3653 602.365 58.2114 600.328 Q60.0256 598.259 60.0256 594.726 Q60.0256 589.856 56.5881 586.928 Q53.1188 583.968 47.3897 583.968 L46.0847 583.968 L46.0847 589.793 M43.6657 578.111 L64.0042 578.111 L64.0042 583.968 L58.5933 583.968 Q61.8398 585.973 63.3994 588.965 Q64.9272 591.957 64.9272 596.286 Q64.9272 601.76 61.8716 605.007 Q58.7843 608.221 53.6281 608.221 Q47.6125 608.221 44.5569 604.211 Q41.5014 600.169 41.5014 592.18 L41.5014 583.968 L40.9285 583.968 Q36.8862 583.968 34.6901 586.642 Q32.4621 589.283 32.4621 594.089 Q32.4621 597.145 33.1941 600.041 Q33.9262 602.938 35.3903 605.611 L29.9795 605.611 Q28.7381 602.397 28.1334 599.373 Q27.4968 596.349 27.4968 593.485 Q27.4968 585.75 31.5072 581.931 Q35.5176 578.111 43.6657 578.111 Z" fill="#000000" fill-rule="nonzero" fill-opacity="1"></path><path clip-path="url(#clip340)" d="M14.479 566.048 L14.479 560.192 L64.0042 560.192 L64.0042 566.048 L14.479 566.048 Z" fill="#000000" fill-rule="nonzero" fill-opacity="1"></path><path clip-path="url(#clip340)" d="M32.4621 534.124 Q32.4621 538.835 36.1542 541.572 Q39.8145 544.31 46.212 544.31 Q52.6095 544.31 56.3017 541.604 Q59.9619 538.867 59.9619 534.124 Q59.9619 529.446 56.2698 526.708 Q52.5777 523.971 46.212 523.971 Q39.8781 523.971 36.186 526.708 Q32.4621 529.446 32.4621 534.124 M27.4968 534.124 Q27.4968 526.486 32.4621 522.125 Q37.4273 517.765 46.212 517.765 Q54.9649 517.765 59.9619 522.125 Q64.9272 526.486 64.9272 534.124 Q64.9272 541.795 59.9619 546.156 Q54.9649 550.484 46.212 550.484 Q37.4273 550.484 32.4621 546.156 Q27.4968 541.795 27.4968 534.124 Z" fill="#000000" fill-rule="nonzero" fill-opacity="1"></path><path clip-path="url(#clip340)" d="M28.3562 512.258 L28.3562 506.052 L58.275 494.912 L28.3562 483.772 L28.3562 477.565 L64.0042 490.933 L64.0042 498.89 L28.3562 512.258 Z" fill="#000000" fill-rule="nonzero" fill-opacity="1"></path><path clip-path="url(#clip340)" d="M14.5426 434.692 Q21.8632 438.957 29.0246 441.026 Q36.186 443.095 43.5384 443.095 Q50.8908 443.095 58.1159 441.026 Q65.3091 438.925 72.5979 434.692 L72.5979 439.785 Q65.1182 444.559 57.8931 446.946 Q50.668 449.301 43.5384 449.301 Q36.4406 449.301 29.2474 446.946 Q22.0542 444.591 14.5426 439.785 L14.5426 434.692 Z" fill="#000000" fill-rule="nonzero" fill-opacity="1"></path><path clip-path="url(#clip340)" d="M42.4881 393.697 L64.0042 393.697 L64.0042 399.553 L42.679 399.553 Q37.6183 399.553 35.1038 401.527 Q32.5894 403.5 32.5894 407.447 Q32.5894 412.189 35.6131 414.927 Q38.6368 417.664 43.8567 417.664 L64.0042 417.664 L64.0042 423.552 L28.3562 423.552 L28.3562 417.664 L33.8944 417.664 Q30.6797 415.563 29.0883 412.73 Q27.4968 409.866 27.4968 406.142 Q27.4968 399.999 31.3163 396.848 Q35.1038 393.697 42.4881 393.697 Z" fill="#000000" fill-rule="nonzero" fill-opacity="1"></path><path clip-path="url(#clip340)" d="M14.5426 382.939 L14.5426 377.846 Q22.0542 373.072 29.2474 370.717 Q36.4406 368.33 43.5384 368.33 Q50.668 368.33 57.8931 370.717 Q65.1182 373.072 72.5979 377.846 L72.5979 382.939 Q65.3091 378.706 58.1159 376.637 Q50.8908 374.536 43.5384 374.536 Q36.186 374.536 29.0246 376.637 Q21.8632 378.706 14.5426 382.939 Z" fill="#000000" fill-rule="nonzero" fill-opacity="1"></path><path clip-path="url(#clip340)" d="M346.956 9.05203 L346.956 14.1822 Q343.961 12.7499 341.305 12.0468 Q338.648 11.3437 336.174 11.3437 Q331.878 11.3437 329.534 13.0103 Q327.216 14.677 327.216 17.7499 Q327.216 20.328 328.753 21.6561 Q330.315 22.9582 334.638 23.7655 L337.815 24.4165 Q343.7 25.5363 346.487 28.3748 Q349.299 31.1873 349.299 35.9269 Q349.299 41.5779 345.497 44.4946 Q341.721 47.4112 334.404 47.4112 Q331.643 47.4112 328.518 46.7862 Q325.419 46.1612 322.086 44.9373 L322.086 39.5206 Q325.289 41.3175 328.362 42.2289 Q331.435 43.1404 334.404 43.1404 Q338.909 43.1404 341.357 41.3696 Q343.805 39.5987 343.805 36.3175 Q343.805 33.4529 342.034 31.8384 Q340.289 30.2238 336.279 29.4165 L333.075 28.7915 Q327.19 27.6196 324.56 25.1197 Q321.93 22.6197 321.93 18.1666 Q321.93 13.0103 325.549 10.0416 Q329.195 7.07288 335.575 7.07288 Q338.31 7.07288 341.148 7.56767 Q343.987 8.06246 346.956 9.05203 Z" fill="#000000" fill-rule="nonzero" fill-opacity="1"></path><path clip-path="url(#clip340)" d="M357.294 17.4895 L362.086 17.4895 L362.086 46.656 L357.294 46.656 L357.294 17.4895 M357.294 6.13538 L362.086 6.13538 L362.086 12.2031 L357.294 12.2031 L357.294 6.13538 Z" fill="#000000" fill-rule="nonzero" fill-opacity="1"></path><path clip-path="url(#clip340)" d="M394.82 23.0884 Q396.617 19.8593 399.117 18.3228 Q401.617 16.7864 405.002 16.7864 Q409.559 16.7864 412.033 19.9895 Q414.507 23.1665 414.507 29.0519 L414.507 46.656 L409.69 46.656 L409.69 29.2082 Q409.69 25.0155 408.205 22.9843 Q406.721 20.953 403.674 20.953 Q399.95 20.953 397.789 23.427 Q395.627 25.9009 395.627 30.1717 L395.627 46.656 L390.81 46.656 L390.81 29.2082 Q390.81 24.9894 389.325 22.9843 Q387.841 20.953 384.742 20.953 Q381.07 20.953 378.909 23.453 Q376.747 25.9269 376.747 30.1717 L376.747 46.656 L371.929 46.656 L371.929 17.4895 L376.747 17.4895 L376.747 22.0207 Q378.388 19.3384 380.679 18.0624 Q382.971 16.7864 386.122 16.7864 Q389.299 16.7864 391.513 18.4009 Q393.752 20.0155 394.82 23.0884 Z" fill="#000000" fill-rule="nonzero" fill-opacity="1"></path><path clip-path="url(#clip340)" d="M428.7 42.281 L428.7 57.7497 L423.882 57.7497 L423.882 17.4895 L428.7 17.4895 L428.7 21.9165 Q430.21 19.3124 432.502 18.0624 Q434.82 16.7864 438.023 16.7864 Q443.335 16.7864 446.643 21.0051 Q449.976 25.2238 449.976 32.0988 Q449.976 38.9737 446.643 43.1925 Q443.335 47.4112 438.023 47.4112 Q434.82 47.4112 432.502 46.1612 Q430.21 44.8852 428.7 42.281 M445.002 32.0988 Q445.002 26.8124 442.814 23.8176 Q440.653 20.7968 436.851 20.7968 Q433.049 20.7968 430.861 23.8176 Q428.7 26.8124 428.7 32.0988 Q428.7 37.3852 430.861 40.406 Q433.049 43.4008 436.851 43.4008 Q440.653 43.4008 442.814 40.406 Q445.002 37.3852 445.002 32.0988 Z" fill="#000000" fill-rule="nonzero" fill-opacity="1"></path><path clip-path="url(#clip340)" d="M476.512 18.3489 L476.512 22.8801 Q474.481 21.8384 472.293 21.3176 Q470.106 20.7968 467.762 20.7968 Q464.195 20.7968 462.398 21.8905 Q460.627 22.9843 460.627 25.1717 Q460.627 26.8384 461.903 27.8019 Q463.179 28.7394 467.033 29.5988 L468.674 29.9634 Q473.778 31.0571 475.913 33.0623 Q478.075 35.0415 478.075 38.6092 Q478.075 42.6716 474.846 45.0414 Q471.642 47.4112 466.017 47.4112 Q463.674 47.4112 461.122 46.9425 Q458.596 46.4998 455.783 45.5883 L455.783 40.6404 Q458.439 42.0206 461.017 42.7237 Q463.596 43.4008 466.122 43.4008 Q469.507 43.4008 471.33 42.255 Q473.153 41.0831 473.153 38.9737 Q473.153 37.0206 471.825 35.979 Q470.523 34.9373 466.07 33.9738 L464.403 33.5832 Q459.95 32.6457 457.971 30.7186 Q455.991 28.7655 455.991 25.3801 Q455.991 21.2655 458.908 19.0259 Q461.825 16.7864 467.189 16.7864 Q469.846 16.7864 472.189 17.177 Q474.533 17.5676 476.512 18.3489 Z" fill="#000000" fill-rule="nonzero" fill-opacity="1"></path><path clip-path="url(#clip340)" d="M497.007 20.8488 Q493.153 20.8488 490.913 23.8697 Q488.674 26.8644 488.674 32.0988 Q488.674 37.3331 490.887 40.354 Q493.127 43.3487 497.007 43.3487 Q500.835 43.3487 503.075 40.3279 Q505.314 37.3071 505.314 32.0988 Q505.314 26.9165 503.075 23.8957 Q500.835 20.8488 497.007 20.8488 M497.007 16.7864 Q503.257 16.7864 506.825 20.8488 Q510.392 24.9113 510.392 32.0988 Q510.392 39.2602 506.825 43.3487 Q503.257 47.4112 497.007 47.4112 Q490.731 47.4112 487.163 43.3487 Q483.622 39.2602 483.622 32.0988 Q483.622 24.9113 487.163 20.8488 Q490.731 16.7864 497.007 16.7864 Z" fill="#000000" fill-rule="nonzero" fill-opacity="1"></path><path clip-path="url(#clip340)" d="M542.58 29.0519 L542.58 46.656 L537.788 46.656 L537.788 29.2082 Q537.788 25.0676 536.173 23.0103 Q534.559 20.953 531.33 20.953 Q527.449 20.953 525.21 23.427 Q522.97 25.9009 522.97 30.1717 L522.97 46.656 L518.153 46.656 L518.153 17.4895 L522.97 17.4895 L522.97 22.0207 Q524.689 19.3905 527.007 18.0884 Q529.35 16.7864 532.397 16.7864 Q537.423 16.7864 540.001 19.9114 Q542.58 23.0103 542.58 29.0519 Z" fill="#000000" fill-rule="nonzero" fill-opacity="1"></path><path clip-path="url(#clip340)" d="M563.439 20.8488 Q559.585 20.8488 557.345 23.8697 Q555.106 26.8644 555.106 32.0988 Q555.106 37.3331 557.319 40.354 Q559.559 43.3487 563.439 43.3487 Q567.267 43.3487 569.506 40.3279 Q571.746 37.3071 571.746 32.0988 Q571.746 26.9165 569.506 23.8957 Q567.267 20.8488 563.439 20.8488 M563.439 16.7864 Q569.689 16.7864 573.256 20.8488 Q576.824 24.9113 576.824 32.0988 Q576.824 39.2602 573.256 43.3487 Q569.689 47.4112 563.439 47.4112 Q557.163 47.4112 553.595 43.3487 Q550.053 39.2602 550.053 32.0988 Q550.053 24.9113 553.595 20.8488 Q557.163 16.7864 563.439 16.7864 Z" fill="#000000" fill-rule="nonzero" fill-opacity="1"></path><path clip-path="url(#clip340)" d="M581.329 17.4895 L586.407 17.4895 L595.522 41.9685 L604.636 17.4895 L609.715 17.4895 L598.777 46.656 L592.267 46.656 L581.329 17.4895 Z" fill="#000000" fill-rule="nonzero" fill-opacity="1"></path><path clip-path="url(#clip340)" d="M629.584 31.9946 Q623.777 31.9946 621.537 33.3227 Q619.298 34.6509 619.298 37.854 Q619.298 40.406 620.965 41.9164 Q622.657 43.4008 625.548 43.4008 Q629.532 43.4008 631.928 40.5883 Q634.35 37.7498 634.35 33.0623 L634.35 31.9946 L629.584 31.9946 M639.142 30.0155 L639.142 46.656 L634.35 46.656 L634.35 42.2289 Q632.709 44.8852 630.261 46.1612 Q627.813 47.4112 624.272 47.4112 Q619.793 47.4112 617.136 44.9112 Q614.506 42.3852 614.506 38.1665 Q614.506 33.2446 617.787 30.7446 Q621.095 28.2446 627.631 28.2446 L634.35 28.2446 L634.35 27.7759 Q634.35 24.4686 632.162 22.6718 Q630.001 20.8488 626.069 20.8488 Q623.569 20.8488 621.199 21.4478 Q618.829 22.0468 616.642 23.2447 L616.642 18.8176 Q619.272 17.802 621.746 17.3072 Q624.22 16.7864 626.563 16.7864 Q632.892 16.7864 636.017 20.0676 Q639.142 23.3488 639.142 30.0155 Z" fill="#000000" fill-rule="nonzero" fill-opacity="1"></path><path clip-path="url(#clip340)" d="M688.673 23.0884 Q690.469 19.8593 692.969 18.3228 Q695.469 16.7864 698.855 16.7864 Q703.412 16.7864 705.886 19.9895 Q708.36 23.1665 708.36 29.0519 L708.36 46.656 L703.542 46.656 L703.542 29.2082 Q703.542 25.0155 702.058 22.9843 Q700.573 20.953 697.527 20.953 Q693.803 20.953 691.641 23.427 Q689.48 25.9009 689.48 30.1717 L689.48 46.656 L684.662 46.656 L684.662 29.2082 Q684.662 24.9894 683.178 22.9843 Q681.693 20.953 678.594 20.953 Q674.923 20.953 672.761 23.453 Q670.6 25.9269 670.6 30.1717 L670.6 46.656 L665.782 46.656 L665.782 17.4895 L670.6 17.4895 L670.6 22.0207 Q672.24 19.3384 674.532 18.0624 Q676.824 16.7864 679.975 16.7864 Q683.152 16.7864 685.365 18.4009 Q687.605 20.0155 688.673 23.0884 Z" fill="#000000" fill-rule="nonzero" fill-opacity="1"></path><path clip-path="url(#clip340)" d="M742.865 30.8748 L742.865 33.2186 L720.834 33.2186 Q721.146 38.1665 723.803 40.7706 Q726.485 43.3487 731.25 43.3487 Q734.011 43.3487 736.589 42.6716 Q739.193 41.9946 741.745 40.6404 L741.745 45.1716 Q739.167 46.2654 736.459 46.8383 Q733.75 47.4112 730.964 47.4112 Q723.985 47.4112 719.896 43.3487 Q715.834 39.2862 715.834 32.3592 Q715.834 25.1978 719.688 21.0051 Q723.568 16.7864 730.131 16.7864 Q736.016 16.7864 739.427 20.5884 Q742.865 24.3645 742.865 30.8748 M738.073 29.4686 Q738.021 25.5363 735.86 23.1926 Q733.724 20.8488 730.183 20.8488 Q726.172 20.8488 723.75 23.1145 Q721.355 25.3801 720.99 29.4946 L738.073 29.4686 Z" fill="#000000" fill-rule="nonzero" fill-opacity="1"></path><path clip-path="url(#clip340)" d="M755.469 9.20828 L755.469 17.4895 L765.339 17.4895 L765.339 21.2134 L755.469 21.2134 L755.469 37.0467 Q755.469 40.6144 756.433 41.63 Q757.422 42.6456 760.417 42.6456 L765.339 42.6456 L765.339 46.656 L760.417 46.656 Q754.87 46.656 752.761 44.5987 Q750.651 42.5154 750.651 37.0467 L750.651 21.2134 L747.136 21.2134 L747.136 17.4895 L750.651 17.4895 L750.651 9.20828 L755.469 9.20828 Z" fill="#000000" fill-rule="nonzero" fill-opacity="1"></path><path clip-path="url(#clip340)" d="M782.943 20.8488 Q779.089 20.8488 776.849 23.8697 Q774.61 26.8644 774.61 32.0988 Q774.61 37.3331 776.823 40.354 Q779.063 43.3487 782.943 43.3487 Q786.771 43.3487 789.011 40.3279 Q791.25 37.3071 791.25 32.0988 Q791.25 26.9165 789.011 23.8957 Q786.771 20.8488 782.943 20.8488 M782.943 16.7864 Q789.193 16.7864 792.76 20.8488 Q796.328 24.9113 796.328 32.0988 Q796.328 39.2602 792.76 43.3487 Q789.193 47.4112 782.943 47.4112 Q776.667 47.4112 773.099 43.3487 Q769.557 39.2602 769.557 32.0988 Q769.557 24.9113 773.099 20.8488 Q776.667 16.7864 782.943 16.7864 Z" fill="#000000" fill-rule="nonzero" fill-opacity="1"></path><path clip-path="url(#clip340)" d="M823.463 21.9165 L823.463 6.13538 L828.255 6.13538 L828.255 46.656 L823.463 46.656 L823.463 42.281 Q821.953 44.8852 819.635 46.1612 Q817.344 47.4112 814.115 47.4112 Q808.828 47.4112 805.495 43.1925 Q802.188 38.9737 802.188 32.0988 Q802.188 25.2238 805.495 21.0051 Q808.828 16.7864 814.115 16.7864 Q817.344 16.7864 819.635 18.0624 Q821.953 19.3124 823.463 21.9165 M807.135 32.0988 Q807.135 37.3852 809.297 40.406 Q811.484 43.4008 815.286 43.4008 Q819.088 43.4008 821.276 40.406 Q823.463 37.3852 823.463 32.0988 Q823.463 26.8124 821.276 23.8176 Q819.088 20.7968 815.286 20.7968 Q811.484 20.7968 809.297 23.8176 Q807.135 26.8124 807.135 32.0988 Z" fill="#000000" fill-rule="nonzero" fill-opacity="1"></path><path clip-path="url(#clip340)" d="M851.38 31.9946 Q845.573 31.9946 843.333 33.3227 Q841.094 34.6509 841.094 37.854 Q841.094 40.406 842.76 41.9164 Q844.453 43.4008 847.344 43.4008 Q851.328 43.4008 853.724 40.5883 Q856.146 37.7498 856.146 33.0623 L856.146 31.9946 L851.38 31.9946 M860.937 30.0155 L860.937 46.656 L856.146 46.656 L856.146 42.2289 Q854.505 44.8852 852.057 46.1612 Q849.609 47.4112 846.067 47.4112 Q841.588 47.4112 838.932 44.9112 Q836.302 42.3852 836.302 38.1665 Q836.302 33.2446 839.583 30.7446 Q842.89 28.2446 849.427 28.2446 L856.146 28.2446 L856.146 27.7759 Q856.146 24.4686 853.958 22.6718 Q851.797 20.8488 847.864 20.8488 Q845.364 20.8488 842.995 21.4478 Q840.625 22.0468 838.437 23.2447 L838.437 18.8176 Q841.068 17.802 843.541 17.3072 Q846.015 16.7864 848.359 16.7864 Q854.687 16.7864 857.812 20.0676 Q860.937 23.3488 860.937 30.0155 Z" fill="#000000" fill-rule="nonzero" fill-opacity="1"></path><path clip-path="url(#clip340)" d="M872.031 40.0415 L877.526 40.0415 L877.526 46.656 L872.031 46.656 L872.031 40.0415 M872.031 19.078 L877.526 19.078 L877.526 25.6926 L872.031 25.6926 L872.031 19.078 Z" fill="#000000" fill-rule="nonzero" fill-opacity="1"></path><path clip-path="url(#clip340)" d="M917.031 20.8488 Q913.177 20.8488 910.937 23.8697 Q908.697 26.8644 908.697 32.0988 Q908.697 37.3331 910.911 40.354 Q913.15 43.3487 917.031 43.3487 Q920.859 43.3487 923.098 40.3279 Q925.338 37.3071 925.338 32.0988 Q925.338 26.9165 923.098 23.8957 Q920.859 20.8488 917.031 20.8488 M917.031 16.7864 Q923.281 16.7864 926.848 20.8488 Q930.416 24.9113 930.416 32.0988 Q930.416 39.2602 926.848 43.3487 Q923.281 47.4112 917.031 47.4112 Q910.755 47.4112 907.187 43.3487 Q903.645 39.2602 903.645 32.0988 Q903.645 24.9113 907.187 20.8488 Q910.755 16.7864 917.031 16.7864 Z" fill="#000000" fill-rule="nonzero" fill-opacity="1"></path><path clip-path="url(#clip340)" d="M957.551 21.9165 L957.551 6.13538 L962.343 6.13538 L962.343 46.656 L957.551 46.656 L957.551 42.281 Q956.041 44.8852 953.723 46.1612 Q951.432 47.4112 948.202 47.4112 Q942.916 47.4112 939.583 43.1925 Q936.275 38.9737 936.275 32.0988 Q936.275 25.2238 939.583 21.0051 Q942.916 16.7864 948.202 16.7864 Q951.432 16.7864 953.723 18.0624 Q956.041 19.3124 957.551 21.9165 M941.223 32.0988 Q941.223 37.3852 943.385 40.406 Q945.572 43.4008 949.374 43.4008 Q953.176 43.4008 955.364 40.406 Q957.551 37.3852 957.551 32.0988 Q957.551 26.8124 955.364 23.8176 Q953.176 20.7968 949.374 20.7968 Q945.572 20.7968 943.385 23.8176 Q941.223 26.8124 941.223 32.0988 Z" fill="#000000" fill-rule="nonzero" fill-opacity="1"></path><path clip-path="url(#clip340)" d="M968.775 17.4895 L973.853 17.4895 L982.968 41.9685 L992.082 17.4895 L997.16 17.4895 L986.223 46.656 L979.713 46.656 L968.775 17.4895 Z" fill="#000000" fill-rule="nonzero" fill-opacity="1"></path><path clip-path="url(#clip340)" d="M1003.77 17.4895 L1008.57 17.4895 L1008.57 46.656 L1003.77 46.656 L1003.77 17.4895 M1003.77 6.13538 L1008.57 6.13538 L1008.57 12.2031 L1003.77 12.2031 L1003.77 6.13538 Z" fill="#000000" fill-rule="nonzero" fill-opacity="1"></path><path clip-path="url(#clip340)" d="M1037.19 18.3489 L1037.19 22.8801 Q1035.16 21.8384 1032.97 21.3176 Q1030.78 20.7968 1028.44 20.7968 Q1024.87 20.7968 1023.07 21.8905 Q1021.3 22.9843 1021.3 25.1717 Q1021.3 26.8384 1022.58 27.8019 Q1023.85 28.7394 1027.71 29.5988 L1029.35 29.9634 Q1034.45 31.0571 1036.59 33.0623 Q1038.75 35.0415 1038.75 38.6092 Q1038.75 42.6716 1035.52 45.0414 Q1032.32 47.4112 1026.69 47.4112 Q1024.35 47.4112 1021.8 46.9425 Q1019.27 46.4998 1016.46 45.5883 L1016.46 40.6404 Q1019.11 42.0206 1021.69 42.7237 Q1024.27 43.4008 1026.8 43.4008 Q1030.18 43.4008 1032 42.255 Q1033.83 41.0831 1033.83 38.9737 Q1033.83 37.0206 1032.5 35.979 Q1031.2 34.9373 1026.74 33.9738 L1025.08 33.5832 Q1020.62 32.6457 1018.64 30.7186 Q1016.67 28.7655 1016.67 25.3801 Q1016.67 21.2655 1019.58 19.0259 Q1022.5 16.7864 1027.86 16.7864 Q1030.52 16.7864 1032.86 17.177 Q1035.21 17.5676 1037.19 18.3489 Z" fill="#000000" fill-rule="nonzero" fill-opacity="1"></path><path clip-path="url(#clip340)" d="M1070.62 29.0519 L1070.62 46.656 L1065.83 46.656 L1065.83 29.2082 Q1065.83 25.0676 1064.22 23.0103 Q1062.6 20.953 1059.37 20.953 Q1055.49 20.953 1053.25 23.427 Q1051.01 25.9009 1051.01 30.1717 L1051.01 46.656 L1046.2 46.656 L1046.2 17.4895 L1051.01 17.4895 L1051.01 22.0207 Q1052.73 19.3905 1055.05 18.0884 Q1057.39 16.7864 1060.44 16.7864 Q1065.47 16.7864 1068.05 19.9114 Q1070.62 23.0103 1070.62 29.0519 Z" fill="#000000" fill-rule="nonzero" fill-opacity="1"></path><path clip-path="url(#clip340)" d="M1091.48 20.8488 Q1087.63 20.8488 1085.39 23.8697 Q1083.15 26.8644 1083.15 32.0988 Q1083.15 37.3331 1085.36 40.354 Q1087.6 43.3487 1091.48 43.3487 Q1095.31 43.3487 1097.55 40.3279 Q1099.79 37.3071 1099.79 32.0988 Q1099.79 26.9165 1097.55 23.8957 Q1095.31 20.8488 1091.48 20.8488 M1091.48 16.7864 Q1097.73 16.7864 1101.3 20.8488 Q1104.87 24.9113 1104.87 32.0988 Q1104.87 39.2602 1101.3 43.3487 Q1097.73 47.4112 1091.48 47.4112 Q1085.21 47.4112 1081.64 43.3487 Q1078.1 39.2602 1078.1 32.0988 Q1078.1 24.9113 1081.64 20.8488 Q1085.21 16.7864 1091.48 16.7864 Z" fill="#000000" fill-rule="nonzero" fill-opacity="1"></path><path clip-path="url(#clip340)" d="M1131.4 18.3489 L1131.4 22.8801 Q1129.37 21.8384 1127.19 21.3176 Q1125 20.7968 1122.65 20.7968 Q1119.09 20.7968 1117.29 21.8905 Q1115.52 22.9843 1115.52 25.1717 Q1115.52 26.8384 1116.8 27.8019 Q1118.07 28.7394 1121.93 29.5988 L1123.57 29.9634 Q1128.67 31.0571 1130.81 33.0623 Q1132.97 35.0415 1132.97 38.6092 Q1132.97 42.6716 1129.74 45.0414 Q1126.53 47.4112 1120.91 47.4112 Q1118.57 47.4112 1116.01 46.9425 Q1113.49 46.4998 1110.68 45.5883 L1110.68 40.6404 Q1113.33 42.0206 1115.91 42.7237 Q1118.49 43.4008 1121.01 43.4008 Q1124.4 43.4008 1126.22 42.255 Q1128.05 41.0831 1128.05 38.9737 Q1128.05 37.0206 1126.72 35.979 Q1125.41 34.9373 1120.96 33.9738 L1119.3 33.5832 Q1114.84 32.6457 1112.86 30.7186 Q1110.88 28.7655 1110.88 25.3801 Q1110.88 21.2655 1113.8 19.0259 Q1116.72 16.7864 1122.08 16.7864 Q1124.74 16.7864 1127.08 17.177 Q1129.43 17.5676 1131.4 18.3489 Z" fill="#000000" fill-rule="nonzero" fill-opacity="1"></path><path clip-path="url(#clip340)" d="M1145.34 9.20828 L1145.34 17.4895 L1155.21 17.4895 L1155.21 21.2134 L1145.34 21.2134 L1145.34 37.0467 Q1145.34 40.6144 1146.3 41.63 Q1147.29 42.6456 1150.28 42.6456 L1155.21 42.6456 L1155.21 46.656 L1150.28 46.656 Q1144.74 46.656 1142.63 44.5987 Q1140.52 42.5154 1140.52 37.0467 L1140.52 21.2134 L1137 21.2134 L1137 17.4895 L1140.52 17.4895 L1140.52 9.20828 L1145.34 9.20828 Z" fill="#000000" fill-rule="nonzero" fill-opacity="1"></path><path clip-path="url(#clip340)" d="M1197.06 18.3489 L1197.06 22.8801 Q1195.02 21.8384 1192.84 21.3176 Q1190.65 20.7968 1188.31 20.7968 Q1184.74 20.7968 1182.94 21.8905 Q1181.17 22.9843 1181.17 25.1717 Q1181.17 26.8384 1182.45 27.8019 Q1183.72 28.7394 1187.58 29.5988 L1189.22 29.9634 Q1194.32 31.0571 1196.46 33.0623 Q1198.62 35.0415 1198.62 38.6092 Q1198.62 42.6716 1195.39 45.0414 Q1192.19 47.4112 1186.56 47.4112 Q1184.22 47.4112 1181.66 46.9425 Q1179.14 46.4998 1176.33 45.5883 L1176.33 40.6404 Q1178.98 42.0206 1181.56 42.7237 Q1184.14 43.4008 1186.66 43.4008 Q1190.05 43.4008 1191.87 42.255 Q1193.7 41.0831 1193.7 38.9737 Q1193.7 37.0206 1192.37 35.979 Q1191.07 34.9373 1186.61 33.9738 L1184.95 33.5832 Q1180.49 32.6457 1178.51 30.7186 Q1176.53 28.7655 1176.53 25.3801 Q1176.53 21.2655 1179.45 19.0259 Q1182.37 16.7864 1187.73 16.7864 Q1190.39 16.7864 1192.73 17.177 Q1195.08 17.5676 1197.06 18.3489 M1185.96 13.7916 L1179.58 3.99998 L1183.2 3.99998 L1187.89 10.3802 L1192.58 3.99998 L1196.2 3.99998 L1189.82 13.7916 L1185.96 13.7916 M1187.78 16.7864 L1187.78 16.7864 Z" fill="#000000" fill-rule="nonzero" fill-opacity="1"></path><path clip-path="url(#clip340)" d="M1210.99 9.20828 L1210.99 17.4895 L1220.86 17.4895 L1220.86 21.2134 L1210.99 21.2134 L1210.99 37.0467 Q1210.99 40.6144 1211.95 41.63 Q1212.94 42.6456 1215.94 42.6456 L1220.86 42.6456 L1220.86 46.656 L1215.94 46.656 Q1210.39 46.656 1208.28 44.5987 Q1206.17 42.5154 1206.17 37.0467 L1206.17 21.2134 L1202.65 21.2134 L1202.65 17.4895 L1206.17 17.4895 L1206.17 9.20828 L1210.99 9.20828 Z" fill="#000000" fill-rule="nonzero" fill-opacity="1"></path><path clip-path="url(#clip340)" d="M1252.11 30.8748 L1252.11 33.2186 L1230.08 33.2186 Q1230.39 38.1665 1233.04 40.7706 Q1235.73 43.3487 1240.49 43.3487 Q1243.25 43.3487 1245.83 42.6716 Q1248.44 41.9946 1250.99 40.6404 L1250.99 45.1716 Q1248.41 46.2654 1245.7 46.8383 Q1242.99 47.4112 1240.21 47.4112 Q1233.23 47.4112 1229.14 43.3487 Q1225.08 39.2862 1225.08 32.3592 Q1225.08 25.1978 1228.93 21.0051 Q1232.81 16.7864 1239.37 16.7864 Q1245.26 16.7864 1248.67 20.5884 Q1252.11 24.3645 1252.11 30.8748 M1247.32 29.4686 Q1247.26 25.5363 1245.1 23.1926 Q1242.97 20.8488 1239.42 20.8488 Q1235.41 20.8488 1232.99 23.1145 Q1230.6 25.3801 1230.23 29.4946 L1247.32 29.4686 Z" fill="#000000" fill-rule="nonzero" fill-opacity="1"></path><path clip-path="url(#clip340)" d="M1256.53 17.4895 L1261.61 17.4895 L1270.73 41.9685 L1279.84 17.4895 L1284.92 17.4895 L1273.98 46.656 L1267.47 46.656 L1256.53 17.4895 Z" fill="#000000" fill-rule="nonzero" fill-opacity="1"></path><path clip-path="url(#clip340)" d="M1291.53 17.4895 L1296.33 17.4895 L1296.33 46.656 L1291.53 46.656 L1291.53 17.4895 M1291.53 6.13538 L1296.33 6.13538 L1296.33 12.2031 L1291.53 12.2031 L1291.53 6.13538 Z" fill="#000000" fill-rule="nonzero" fill-opacity="1"></path><path clip-path="url(#clip340)" d="M1306.35 6.13538 L1311.14 6.13538 L1311.14 46.656 L1306.35 46.656 L1306.35 6.13538 Z" fill="#000000" fill-rule="nonzero" fill-opacity="1"></path><path clip-path="url(#clip340)" d="M1334.42 31.9946 Q1328.62 31.9946 1326.38 33.3227 Q1324.14 34.6509 1324.14 37.854 Q1324.14 40.406 1325.8 41.9164 Q1327.5 43.4008 1330.39 43.4008 Q1334.37 43.4008 1336.77 40.5883 Q1339.19 37.7498 1339.19 33.0623 L1339.19 31.9946 L1334.42 31.9946 M1343.98 30.0155 L1343.98 46.656 L1339.19 46.656 L1339.19 42.2289 Q1337.55 44.8852 1335.1 46.1612 Q1332.65 47.4112 1329.11 47.4112 Q1324.63 47.4112 1321.98 44.9112 Q1319.35 42.3852 1319.35 38.1665 Q1319.35 33.2446 1322.63 30.7446 Q1325.93 28.2446 1332.47 28.2446 L1339.19 28.2446 L1339.19 27.7759 Q1339.19 24.4686 1337 22.6718 Q1334.84 20.8488 1330.91 20.8488 Q1328.41 20.8488 1326.04 21.4478 Q1323.67 22.0468 1321.48 23.2447 L1321.48 18.8176 Q1324.11 17.802 1326.59 17.3072 Q1329.06 16.7864 1331.4 16.7864 Q1337.73 16.7864 1340.86 20.0676 Q1343.98 23.3488 1343.98 30.0155 Z" fill="#000000" fill-rule="nonzero" fill-opacity="1"></path><path clip-path="url(#clip340)" d="M1375.44 42.281 L1375.44 57.7497 L1370.62 57.7497 L1370.62 17.4895 L1375.44 17.4895 L1375.44 21.9165 Q1376.95 19.3124 1379.24 18.0624 Q1381.56 16.7864 1384.76 16.7864 Q1390.07 16.7864 1393.38 21.0051 Q1396.72 25.2238 1396.72 32.0988 Q1396.72 38.9737 1393.38 43.1925 Q1390.07 47.4112 1384.76 47.4112 Q1381.56 47.4112 1379.24 46.1612 Q1376.95 44.8852 1375.44 42.281 M1391.74 32.0988 Q1391.74 26.8124 1389.55 23.8176 Q1387.39 20.7968 1383.59 20.7968 Q1379.79 20.7968 1377.6 23.8176 Q1375.44 26.8124 1375.44 32.0988 Q1375.44 37.3852 1377.6 40.406 Q1379.79 43.4008 1383.59 43.4008 Q1387.39 43.4008 1389.55 40.406 Q1391.74 37.3852 1391.74 32.0988 Z" fill="#000000" fill-rule="nonzero" fill-opacity="1"></path><path clip-path="url(#clip340)" d="M1415.96 20.8488 Q1412.11 20.8488 1409.87 23.8697 Q1407.63 26.8644 1407.63 32.0988 Q1407.63 37.3331 1409.84 40.354 Q1412.08 43.3487 1415.96 43.3487 Q1419.79 43.3487 1422.03 40.3279 Q1424.27 37.3071 1424.27 32.0988 Q1424.27 26.9165 1422.03 23.8957 Q1419.79 20.8488 1415.96 20.8488 M1415.96 16.7864 Q1422.21 16.7864 1425.78 20.8488 Q1429.35 24.9113 1429.35 32.0988 Q1429.35 39.2602 1425.78 43.3487 Q1422.21 47.4112 1415.96 47.4112 Q1409.68 47.4112 1406.12 43.3487 Q1402.57 39.2602 1402.57 32.0988 Q1402.57 24.9113 1406.12 20.8488 Q1409.68 16.7864 1415.96 16.7864 Z" fill="#000000" fill-rule="nonzero" fill-opacity="1"></path><path clip-path="url(#clip340)" d="M1456.48 21.9165 L1456.48 6.13538 L1461.27 6.13538 L1461.27 46.656 L1456.48 46.656 L1456.48 42.281 Q1454.97 44.8852 1452.65 46.1612 Q1450.36 47.4112 1447.13 47.4112 Q1441.85 47.4112 1438.51 43.1925 Q1435.2 38.9737 1435.2 32.0988 Q1435.2 25.2238 1438.51 21.0051 Q1441.85 16.7864 1447.13 16.7864 Q1450.36 16.7864 1452.65 18.0624 Q1454.97 19.3124 1456.48 21.9165 M1440.15 32.0988 Q1440.15 37.3852 1442.31 40.406 Q1444.5 43.4008 1448.3 43.4008 Q1452.11 43.4008 1454.29 40.406 Q1456.48 37.3852 1456.48 32.0988 Q1456.48 26.8124 1454.29 23.8176 Q1452.11 20.7968 1448.3 20.7968 Q1444.5 20.7968 1442.31 23.8176 Q1440.15 26.8124 1440.15 32.0988 Z" fill="#000000" fill-rule="nonzero" fill-opacity="1"></path><path clip-path="url(#clip340)" d="M1471.14 17.4895 L1475.93 17.4895 L1475.93 46.656 L1471.14 46.656 L1471.14 17.4895 M1471.14 6.13538 L1475.93 6.13538 L1475.93 12.2031 L1471.14 12.2031 L1471.14 6.13538 Z" fill="#000000" fill-rule="nonzero" fill-opacity="1"></path><path clip-path="url(#clip340)" d="M1510.2 29.0519 L1510.2 46.656 L1505.41 46.656 L1505.41 29.2082 Q1505.41 25.0676 1503.8 23.0103 Q1502.18 20.953 1498.95 20.953 Q1495.07 20.953 1492.83 23.427 Q1490.6 25.9009 1490.6 30.1717 L1490.6 46.656 L1485.78 46.656 L1485.78 17.4895 L1490.6 17.4895 L1490.6 22.0207 Q1492.31 19.3905 1494.63 18.0884 Q1496.98 16.7864 1500.02 16.7864 Q1505.05 16.7864 1507.63 19.9114 Q1510.2 23.0103 1510.2 29.0519 Z" fill="#000000" fill-rule="nonzero" fill-opacity="1"></path><path clip-path="url(#clip340)" d="M1524.5 9.20828 L1524.5 17.4895 L1534.37 17.4895 L1534.37 21.2134 L1524.5 21.2134 L1524.5 37.0467 Q1524.5 40.6144 1525.46 41.63 Q1526.45 42.6456 1529.45 42.6456 L1534.37 42.6456 L1534.37 46.656 L1529.45 46.656 Q1523.9 46.656 1521.79 44.5987 Q1519.68 42.5154 1519.68 37.0467 L1519.68 21.2134 L1516.17 21.2134 L1516.17 17.4895 L1519.68 17.4895 L1519.68 9.20828 L1524.5 9.20828 Z" fill="#000000" fill-rule="nonzero" fill-opacity="1"></path><path clip-path="url(#clip340)" d="M1565.62 30.8748 L1565.62 33.2186 L1543.59 33.2186 Q1543.9 38.1665 1546.56 40.7706 Q1549.24 43.3487 1554.01 43.3487 Q1556.77 43.3487 1559.34 42.6716 Q1561.95 41.9946 1564.5 40.6404 L1564.5 45.1716 Q1561.92 46.2654 1559.21 46.8383 Q1556.51 47.4112 1553.72 47.4112 Q1546.74 47.4112 1542.65 43.3487 Q1538.59 39.2862 1538.59 32.3592 Q1538.59 25.1978 1542.44 21.0051 Q1546.32 16.7864 1552.89 16.7864 Q1558.77 16.7864 1562.18 20.5884 Q1565.62 24.3645 1565.62 30.8748 M1560.83 29.4686 Q1560.78 25.5363 1558.62 23.1926 Q1556.48 20.8488 1552.94 20.8488 Q1548.93 20.8488 1546.51 23.1145 Q1544.11 25.3801 1543.75 29.4946 L1560.83 29.4686 Z" fill="#000000" fill-rule="nonzero" fill-opacity="1"></path><path clip-path="url(#clip340)" d="M1590.39 21.9686 Q1589.58 21.4999 1588.62 21.2916 Q1587.68 21.0572 1586.53 21.0572 Q1582.47 21.0572 1580.28 23.7134 Q1578.12 26.3436 1578.12 31.2915 L1578.12 46.656 L1573.3 46.656 L1573.3 17.4895 L1578.12 17.4895 L1578.12 22.0207 Q1579.63 19.3645 1582.05 18.0884 Q1584.47 16.7864 1587.94 16.7864 Q1588.43 16.7864 1589.03 16.8645 Q1589.63 16.9166 1590.36 17.0468 L1590.39 21.9686 Z" fill="#000000" fill-rule="nonzero" fill-opacity="1"></path><path clip-path="url(#clip340)" d="M1591.97 17.4895 L1597.05 17.4895 L1606.17 41.9685 L1615.28 17.4895 L1620.36 17.4895 L1609.42 46.656 L1602.91 46.656 L1591.97 17.4895 Z" fill="#000000" fill-rule="nonzero" fill-opacity="1"></path><path clip-path="url(#clip340)" d="M1640.23 31.9946 Q1634.42 31.9946 1632.18 33.3227 Q1629.94 34.6509 1629.94 37.854 Q1629.94 40.406 1631.61 41.9164 Q1633.3 43.4008 1636.19 43.4008 Q1640.18 43.4008 1642.57 40.5883 Q1645 37.7498 1645 33.0623 L1645 31.9946 L1640.23 31.9946 M1649.79 30.0155 L1649.79 46.656 L1645 46.656 L1645 42.2289 Q1643.35 44.8852 1640.91 46.1612 Q1638.46 47.4112 1634.92 47.4112 Q1630.44 47.4112 1627.78 44.9112 Q1625.15 42.3852 1625.15 38.1665 Q1625.15 33.2446 1628.43 30.7446 Q1631.74 28.2446 1638.28 28.2446 L1645 28.2446 L1645 27.7759 Q1645 24.4686 1642.81 22.6718 Q1640.65 20.8488 1636.71 20.8488 Q1634.21 20.8488 1631.84 21.4478 Q1629.47 22.0468 1627.29 23.2447 L1627.29 18.8176 Q1629.92 17.802 1632.39 17.3072 Q1634.87 16.7864 1637.21 16.7864 Q1643.54 16.7864 1646.66 20.0676 Q1649.79 23.3488 1649.79 30.0155 Z" fill="#000000" fill-rule="nonzero" fill-opacity="1"></path><path clip-path="url(#clip340)" d="M1659.66 6.13538 L1664.45 6.13538 L1664.45 46.656 L1659.66 46.656 L1659.66 6.13538 Z" fill="#000000" fill-rule="nonzero" fill-opacity="1"></path><path clip-path="url(#clip340)" d="M1685.78 20.8488 Q1681.92 20.8488 1679.68 23.8697 Q1677.44 26.8644 1677.44 32.0988 Q1677.44 37.3331 1679.66 40.354 Q1681.9 43.3487 1685.78 43.3487 Q1689.6 43.3487 1691.84 40.3279 Q1694.08 37.3071 1694.08 32.0988 Q1694.08 26.9165 1691.84 23.8957 Q1689.6 20.8488 1685.78 20.8488 M1685.78 16.7864 Q1692.03 16.7864 1695.59 20.8488 Q1699.16 24.9113 1699.16 32.0988 Q1699.16 39.2602 1695.59 43.3487 Q1692.03 47.4112 1685.78 47.4112 Q1679.5 47.4112 1675.93 43.3487 Q1672.39 39.2602 1672.39 32.0988 Q1672.39 24.9113 1675.93 20.8488 Q1679.5 16.7864 1685.78 16.7864 Z" fill="#000000" fill-rule="nonzero" fill-opacity="1"></path><path clip-path="url(#clip340)" d="M1703.67 17.4895 L1708.75 17.4895 L1717.86 41.9685 L1726.97 17.4895 L1732.05 17.4895 L1721.11 46.656 L1714.6 46.656 L1703.67 17.4895 Z" fill="#000000" fill-rule="nonzero" fill-opacity="1"></path><path clip-path="url(#clip340)" d="M1766.92 20.8488 Q1763.07 20.8488 1760.83 23.8697 Q1758.59 26.8644 1758.59 32.0988 Q1758.59 37.3331 1760.8 40.354 Q1763.04 43.3487 1766.92 43.3487 Q1770.75 43.3487 1772.99 40.3279 Q1775.23 37.3071 1775.23 32.0988 Q1775.23 26.9165 1772.99 23.8957 Q1770.75 20.8488 1766.92 20.8488 M1766.92 16.7864 Q1773.17 16.7864 1776.74 20.8488 Q1780.31 24.9113 1780.31 32.0988 Q1780.31 39.2602 1776.74 43.3487 Q1773.17 47.4112 1766.92 47.4112 Q1760.65 47.4112 1757.08 43.3487 Q1753.54 39.2602 1753.54 32.0988 Q1753.54 24.9113 1757.08 20.8488 Q1760.65 16.7864 1766.92 16.7864 Z" fill="#000000" fill-rule="nonzero" fill-opacity="1"></path><path clip-path="url(#clip340)" d="M1807.44 21.9165 L1807.44 6.13538 L1812.23 6.13538 L1812.23 46.656 L1807.44 46.656 L1807.44 42.281 Q1805.93 44.8852 1803.61 46.1612 Q1801.32 47.4112 1798.09 47.4112 Q1792.81 47.4112 1789.47 43.1925 Q1786.17 38.9737 1786.17 32.0988 Q1786.17 25.2238 1789.47 21.0051 Q1792.81 16.7864 1798.09 16.7864 Q1801.32 16.7864 1803.61 18.0624 Q1805.93 19.3124 1807.44 21.9165 M1791.11 32.0988 Q1791.11 37.3852 1793.28 40.406 Q1795.46 43.4008 1799.27 43.4008 Q1803.07 43.4008 1805.26 40.406 Q1807.44 37.3852 1807.44 32.0988 Q1807.44 26.8124 1805.26 23.8176 Q1803.07 20.7968 1799.27 20.7968 Q1795.46 20.7968 1793.28 23.8176 Q1791.11 26.8124 1791.11 32.0988 Z" fill="#000000" fill-rule="nonzero" fill-opacity="1"></path><path clip-path="url(#clip340)" d="M1835.62 17.4895 L1840.7 17.4895 L1849.81 41.9685 L1858.93 17.4895 L1864 17.4895 L1853.07 46.656 L1846.56 46.656 L1835.62 17.4895 Z" fill="#000000" fill-rule="nonzero" fill-opacity="1"></path><path clip-path="url(#clip340)" d="M1894.86 29.0519 L1894.86 46.656 L1890.07 46.656 L1890.07 29.2082 Q1890.07 25.0676 1888.46 23.0103 Q1886.84 20.953 1883.61 20.953 Q1879.73 20.953 1877.49 23.427 Q1875.25 25.9009 1875.25 30.1717 L1875.25 46.656 L1870.44 46.656 L1870.44 6.13538 L1875.25 6.13538 L1875.25 22.0207 Q1876.97 19.3905 1879.29 18.0884 Q1881.63 16.7864 1884.68 16.7864 Q1889.71 16.7864 1892.29 19.9114 Q1894.86 23.0103 1894.86 29.0519 Z" fill="#000000" fill-rule="nonzero" fill-opacity="1"></path><path clip-path="url(#clip340)" d="M1915.72 20.8488 Q1911.87 20.8488 1909.63 23.8697 Q1907.39 26.8644 1907.39 32.0988 Q1907.39 37.3331 1909.6 40.354 Q1911.84 43.3487 1915.72 43.3487 Q1919.55 43.3487 1921.79 40.3279 Q1924.03 37.3071 1924.03 32.0988 Q1924.03 26.9165 1921.79 23.8957 Q1919.55 20.8488 1915.72 20.8488 M1915.72 16.7864 Q1921.97 16.7864 1925.54 20.8488 Q1929.11 24.9113 1929.11 32.0988 Q1929.11 39.2602 1925.54 43.3487 Q1921.97 47.4112 1915.72 47.4112 Q1909.45 47.4112 1905.88 43.3487 Q1902.34 39.2602 1902.34 32.0988 Q1902.34 24.9113 1905.88 20.8488 Q1909.45 16.7864 1915.72 16.7864 Z" fill="#000000" fill-rule="nonzero" fill-opacity="1"></path><path clip-path="url(#clip340)" d="M1956.24 21.9165 L1956.24 6.13538 L1961.04 6.13538 L1961.04 46.656 L1956.24 46.656 L1956.24 42.281 Q1954.73 44.8852 1952.42 46.1612 Q1950.12 47.4112 1946.89 47.4112 Q1941.61 47.4112 1938.28 43.1925 Q1934.97 38.9737 1934.97 32.0988 Q1934.97 25.2238 1938.28 21.0051 Q1941.61 16.7864 1946.89 16.7864 Q1950.12 16.7864 1952.42 18.0624 Q1954.73 19.3124 1956.24 21.9165 M1939.92 32.0988 Q1939.92 37.3852 1942.08 40.406 Q1944.26 43.4008 1948.07 43.4008 Q1951.87 43.4008 1954.06 40.406 Q1956.24 37.3852 1956.24 32.0988 Q1956.24 26.8124 1954.06 23.8176 Q1951.87 20.7968 1948.07 20.7968 Q1944.26 20.7968 1942.08 23.8176 Q1939.92 26.8124 1939.92 32.0988 Z" fill="#000000" fill-rule="nonzero" fill-opacity="1"></path><path clip-path="url(#clip340)" d="M1995.15 29.0519 L1995.15 46.656 L1990.36 46.656 L1990.36 29.2082 Q1990.36 25.0676 1988.74 23.0103 Q1987.13 20.953 1983.9 20.953 Q1980.02 20.953 1977.78 23.427 Q1975.54 25.9009 1975.54 30.1717 L1975.54 46.656 L1970.72 46.656 L1970.72 17.4895 L1975.54 17.4895 L1975.54 22.0207 Q1977.26 19.3905 1979.58 18.0884 Q1981.92 16.7864 1984.97 16.7864 Q1989.99 16.7864 1992.57 19.9114 Q1995.15 23.0103 1995.15 29.0519 Z" fill="#000000" fill-rule="nonzero" fill-opacity="1"></path><path clip-path="url(#clip340)" d="M2029.65 30.8748 L2029.65 33.2186 L2007.62 33.2186 Q2007.94 38.1665 2010.59 40.7706 Q2013.27 43.3487 2018.04 43.3487 Q2020.8 43.3487 2023.38 42.6716 Q2025.98 41.9946 2028.54 40.6404 L2028.54 45.1716 Q2025.96 46.2654 2023.25 46.8383 Q2020.54 47.4112 2017.75 47.4112 Q2010.77 47.4112 2006.69 43.3487 Q2002.62 39.2862 2002.62 32.3592 Q2002.62 25.1978 2006.48 21.0051 Q2010.36 16.7864 2016.92 16.7864 Q2022.81 16.7864 2026.22 20.5884 Q2029.65 24.3645 2029.65 30.8748 M2024.86 29.4686 Q2024.81 25.5363 2022.65 23.1926 Q2020.51 20.8488 2016.97 20.8488 Q2012.96 20.8488 2010.54 23.1145 Q2008.14 25.3801 2007.78 29.4946 L2024.86 29.4686 Z" fill="#000000" fill-rule="nonzero" fill-opacity="1"></path><path clip-path="url(#clip340)" d="M2051.03 17.4895 L2056.11 17.4895 L2065.23 41.9685 L2074.34 17.4895 L2079.42 17.4895 L2068.48 46.656 L2061.97 46.656 L2051.03 17.4895 Z" fill="#000000" fill-rule="nonzero" fill-opacity="1"></path><path clip-path="url(#clip340)" d="M2102.94 21.9686 Q2102.13 21.4999 2101.16 21.2916 Q2100.23 21.0572 2099.08 21.0572 Q2095.02 21.0572 2092.83 23.7134 Q2090.67 26.3436 2090.67 31.2915 L2090.67 46.656 L2085.85 46.656 L2085.85 17.4895 L2090.67 17.4895 L2090.67 22.0207 Q2092.18 19.3645 2094.6 18.0884 Q2097.02 16.7864 2100.49 16.7864 Q2100.98 16.7864 2101.58 16.8645 Q2102.18 16.9166 2102.91 17.0468 L2102.94 21.9686 Z" fill="#000000" fill-rule="nonzero" fill-opacity="1"></path><path clip-path="url(#clip340)" d="M2131.74 30.8748 L2131.74 33.2186 L2109.71 33.2186 Q2110.02 38.1665 2112.68 40.7706 Q2115.36 43.3487 2120.12 43.3487 Q2122.88 43.3487 2125.46 42.6716 Q2128.07 41.9946 2130.62 40.6404 L2130.62 45.1716 Q2128.04 46.2654 2125.33 46.8383 Q2122.62 47.4112 2119.84 47.4112 Q2112.86 47.4112 2108.77 43.3487 Q2104.71 39.2862 2104.71 32.3592 Q2104.71 25.1978 2108.56 21.0051 Q2112.44 16.7864 2119 16.7864 Q2124.89 16.7864 2128.3 20.5884 Q2131.74 24.3645 2131.74 30.8748 M2126.95 29.4686 Q2126.89 25.5363 2124.73 23.1926 Q2122.6 20.8488 2119.06 20.8488 Q2115.05 20.8488 2112.62 23.1145 Q2110.23 25.3801 2109.86 29.4946 L2126.95 29.4686 Z" fill="#000000" fill-rule="nonzero" fill-opacity="1"></path><path clip-path="url(#clip340)" d="M2158.79 21.9165 L2158.79 6.13538 L2163.59 6.13538 L2163.59 46.656 L2158.79 46.656 L2158.79 42.281 Q2157.28 44.8852 2154.97 46.1612 Q2152.68 47.4112 2149.45 47.4112 Q2144.16 47.4112 2140.83 43.1925 Q2137.52 38.9737 2137.52 32.0988 Q2137.52 25.2238 2140.83 21.0051 Q2144.16 16.7864 2149.45 16.7864 Q2152.68 16.7864 2154.97 18.0624 Q2157.28 19.3124 2158.79 21.9165 M2142.47 32.0988 Q2142.47 37.3852 2144.63 40.406 Q2146.82 43.4008 2150.62 43.4008 Q2154.42 43.4008 2156.61 40.406 Q2158.79 37.3852 2158.79 32.0988 Q2158.79 26.8124 2156.61 23.8176 Q2154.42 20.7968 2150.62 20.7968 Q2146.82 20.7968 2144.63 23.8176 Q2142.47 26.8124 2142.47 32.0988 Z" fill="#000000" fill-rule="nonzero" fill-opacity="1"></path><path clip-path="url(#clip340)" d="M2197.7 29.0519 L2197.7 46.656 L2192.91 46.656 L2192.91 29.2082 Q2192.91 25.0676 2191.29 23.0103 Q2189.68 20.953 2186.45 20.953 Q2182.57 20.953 2180.33 23.427 Q2178.09 25.9009 2178.09 30.1717 L2178.09 46.656 L2173.27 46.656 L2173.27 17.4895 L2178.09 17.4895 L2178.09 22.0207 Q2179.81 19.3905 2182.13 18.0884 Q2184.47 16.7864 2187.52 16.7864 Q2192.54 16.7864 2195.12 19.9114 Q2197.7 23.0103 2197.7 29.0519 Z" fill="#000000" fill-rule="nonzero" fill-opacity="1"></path><path clip-path="url(#clip340)" d="M2218.56 20.8488 Q2214.71 20.8488 2212.47 23.8697 Q2210.23 26.8644 2210.23 32.0988 Q2210.23 37.3331 2212.44 40.354 Q2214.68 43.3487 2218.56 43.3487 Q2222.39 43.3487 2224.63 40.3279 Q2226.87 37.3071 2226.87 32.0988 Q2226.87 26.9165 2224.63 23.8957 Q2222.39 20.8488 2218.56 20.8488 M2218.56 16.7864 Q2224.81 16.7864 2228.38 20.8488 Q2231.95 24.9113 2231.95 32.0988 Q2231.95 39.2602 2228.38 43.3487 Q2224.81 47.4112 2218.56 47.4112 Q2212.28 47.4112 2208.72 43.3487 Q2205.17 39.2602 2205.17 32.0988 Q2205.17 24.9113 2208.72 20.8488 Q2212.28 16.7864 2218.56 16.7864 Z" fill="#000000" fill-rule="nonzero" fill-opacity="1"></path><path clip-path="url(#clip340)" d="M2258.48 18.3489 L2258.48 22.8801 Q2256.45 21.8384 2254.26 21.3176 Q2252.08 20.7968 2249.73 20.7968 Q2246.16 20.7968 2244.37 21.8905 Q2242.6 22.9843 2242.6 25.1717 Q2242.6 26.8384 2243.87 27.8019 Q2245.15 28.7394 2249 29.5988 L2250.64 29.9634 Q2255.75 31.0571 2257.88 33.0623 Q2260.04 35.0415 2260.04 38.6092 Q2260.04 42.6716 2256.82 45.0414 Q2253.61 47.4112 2247.99 47.4112 Q2245.64 47.4112 2243.09 46.9425 Q2240.57 46.4998 2237.75 45.5883 L2237.75 40.6404 Q2240.41 42.0206 2242.99 42.7237 Q2245.57 43.4008 2248.09 43.4008 Q2251.48 43.4008 2253.3 42.255 Q2255.12 41.0831 2255.12 38.9737 Q2255.12 37.0206 2253.79 35.979 Q2252.49 34.9373 2248.04 33.9738 L2246.37 33.5832 Q2241.92 32.6457 2239.94 30.7186 Q2237.96 28.7655 2237.96 25.3801 Q2237.96 21.2655 2240.88 19.0259 Q2243.79 16.7864 2249.16 16.7864 Q2251.82 16.7864 2254.16 17.177 Q2256.5 17.5676 2258.48 18.3489 Z" fill="#000000" fill-rule="nonzero" fill-opacity="1"></path><path clip-path="url(#clip340)" d="M2272.41 9.20828 L2272.41 17.4895 L2282.28 17.4895 L2282.28 21.2134 L2272.41 21.2134 L2272.41 37.0467 Q2272.41 40.6144 2273.38 41.63 Q2274.37 42.6456 2277.36 42.6456 L2282.28 42.6456 L2282.28 46.656 L2277.36 46.656 Q2271.82 46.656 2269.71 44.5987 Q2267.6 42.5154 2267.6 37.0467 L2267.6 21.2134 L2264.08 21.2134 L2264.08 17.4895 L2267.6 17.4895 L2267.6 9.20828 L2272.41 9.20828 Z" fill="#000000" fill-rule="nonzero" fill-opacity="1"></path><path clip-path="url(#clip340)" d="M2288.59 17.4895 L2293.38 17.4895 L2293.38 46.656 L2288.59 46.656 L2288.59 17.4895 M2288.59 6.13538 L2293.38 6.13538 L2293.38 12.2031 L2288.59 12.2031 L2288.59 6.13538 Z" fill="#000000" fill-rule="nonzero" fill-opacity="1"></path><polyline clip-path="url(#clip342)" style="stroke:#009af9; stroke-linecap:round; stroke-linejoin:round; stroke-width:4; stroke-opacity:1; fill:none" points="321.708,1385.78 518.897,1272.46 716.086,139.268 913.275,139.268 1110.46,139.268 1307.65,139.268 1504.84,139.268 1702.03,139.268 1899.22,139.268 2096.41,139.268 2293.6,139.268 "></polyline>
<path clip-path="url(#clip340)" d="M2021.63 1379.14 L2283.08 1379.14 L2283.08 1275.46 L2021.63 1275.46  Z" fill="#ffffff" fill-rule="evenodd" fill-opacity="1"></path>
<polyline clip-path="url(#clip340)" style="stroke:#000000; stroke-linecap:round; stroke-linejoin:round; stroke-width:4; stroke-opacity:1; fill:none" points="2021.63,1379.14 2283.08,1379.14 2283.08,1275.46 2021.63,1275.46 2021.63,1379.14 "></polyline>
<polyline clip-path="url(#clip340)" style="stroke:#009af9; stroke-linecap:round; stroke-linejoin:round; stroke-width:4; stroke-opacity:1; fill:none" points="2044.86,1327.3 2184.2,1327.3 "></polyline>
<path clip-path="url(#clip340)" d="M2221.27 1346.98 Q2219.46 1351.61 2217.75 1353.03 Q2216.04 1354.44 2213.17 1354.44 L2209.77 1354.44 L2209.77 1350.87 L2212.27 1350.87 Q2214.02 1350.87 2215 1350.04 Q2215.97 1349.21 2217.15 1346.1 L2217.91 1344.16 L2207.43 1318.65 L2211.94 1318.65 L2220.04 1338.93 L2228.15 1318.65 L2232.66 1318.65 L2221.27 1346.98 Z" fill="#000000" fill-rule="nonzero" fill-opacity="1"></path><path clip-path="url(#clip340)" d="M2239.95 1340.64 L2247.59 1340.64 L2247.59 1314.28 L2239.28 1315.94 L2239.28 1311.68 L2247.54 1310.02 L2252.22 1310.02 L2252.22 1340.64 L2259.86 1340.64 L2259.86 1344.58 L2239.95 1344.58 L2239.95 1340.64 Z" fill="#000000" fill-rule="nonzero" fill-opacity="1"></path></svg>