<svg xmlns="http://www.w3.org/2000/svg" xmlns:xlink="http://www.w3.org/1999/xlink" width="600" height="400" viewBox="0 0 2400 1600">
<defs>
  <clipPath id="clip300">
    <rect x="0" y="0" width="2400" height="1600"></rect>
  </clipPath>
</defs>
<path clip-path="url(#clip300)" d="M0 1600 L2400 1600 L2400 0 L0 0  Z" fill="#ffffff" fill-rule="evenodd" fill-opacity="1"></path>
<defs>
  <clipPath id="clip301">
    <rect x="480" y="0" width="1681" height="1600"></rect>
  </clipPath>
</defs>
<path clip-path="url(#clip300)" d="M338.404 1423.18 L2352.76 1423.18 L2352.76 101.872 L338.404 101.872  Z" fill="#ffffff" fill-rule="evenodd" fill-opacity="1"></path>
<defs>
  <clipPath id="clip302">
    <rect x="338" y="101" width="2015" height="1322"></rect>
  </clipPath>
</defs>
<polyline clip-path="url(#clip302)" style="stroke:#000000; stroke-linecap:round; stroke-linejoin:round; stroke-width:2; stroke-opacity:0.1; fill:none" points="395.414,1423.18 395.414,101.872 "></polyline>
<polyline clip-path="url(#clip302)" style="stroke:#000000; stroke-linecap:round; stroke-linejoin:round; stroke-width:2; stroke-opacity:0.1; fill:none" points="870.497,1423.18 870.497,101.872 "></polyline>
<polyline clip-path="url(#clip302)" style="stroke:#000000; stroke-linecap:round; stroke-linejoin:round; stroke-width:2; stroke-opacity:0.1; fill:none" points="1345.58,1423.18 1345.58,101.872 "></polyline>
<polyline clip-path="url(#clip302)" style="stroke:#000000; stroke-linecap:round; stroke-linejoin:round; stroke-width:2; stroke-opacity:0.1; fill:none" points="1820.66,1423.18 1820.66,101.872 "></polyline>
<polyline clip-path="url(#clip302)" style="stroke:#000000; stroke-linecap:round; stroke-linejoin:round; stroke-width:2; stroke-opacity:0.1; fill:none" points="2295.75,1423.18 2295.75,101.872 "></polyline>
<polyline clip-path="url(#clip300)" style="stroke:#000000; stroke-linecap:round; stroke-linejoin:round; stroke-width:4; stroke-opacity:1; fill:none" points="338.404,1423.18 2352.76,1423.18 "></polyline>
<polyline clip-path="url(#clip300)" style="stroke:#000000; stroke-linecap:round; stroke-linejoin:round; stroke-width:4; stroke-opacity:1; fill:none" points="395.414,1423.18 395.414,1404.28 "></polyline>
<polyline clip-path="url(#clip300)" style="stroke:#000000; stroke-linecap:round; stroke-linejoin:round; stroke-width:4; stroke-opacity:1; fill:none" points="870.497,1423.18 870.497,1404.28 "></polyline>
<polyline clip-path="url(#clip300)" style="stroke:#000000; stroke-linecap:round; stroke-linejoin:round; stroke-width:4; stroke-opacity:1; fill:none" points="1345.58,1423.18 1345.58,1404.28 "></polyline>
<polyline clip-path="url(#clip300)" style="stroke:#000000; stroke-linecap:round; stroke-linejoin:round; stroke-width:4; stroke-opacity:1; fill:none" points="1820.66,1423.18 1820.66,1404.28 "></polyline>
<polyline clip-path="url(#clip300)" style="stroke:#000000; stroke-linecap:round; stroke-linejoin:round; stroke-width:4; stroke-opacity:1; fill:none" points="2295.75,1423.18 2295.75,1404.28 "></polyline>
<path clip-path="url(#clip300)" d="M372.799 1454.1 Q369.188 1454.1 367.359 1457.66 Q365.553 1461.2 365.553 1468.33 Q365.553 1475.44 367.359 1479.01 Q369.188 1482.55 372.799 1482.55 Q376.433 1482.55 378.239 1479.01 Q380.067 1475.44 380.067 1468.33 Q380.067 1461.2 378.239 1457.66 Q376.433 1454.1 372.799 1454.1 M372.799 1450.39 Q378.609 1450.39 381.664 1455 Q384.743 1459.58 384.743 1468.33 Q384.743 1477.06 381.664 1481.67 Q378.609 1486.25 372.799 1486.25 Q366.989 1486.25 363.91 1481.67 Q360.854 1477.06 360.854 1468.33 Q360.854 1459.58 363.91 1455 Q366.989 1450.39 372.799 1450.39 Z" fill="#000000" fill-rule="nonzero" fill-opacity="1"></path><path clip-path="url(#clip300)" d="M392.961 1479.7 L397.845 1479.7 L397.845 1485.58 L392.961 1485.58 L392.961 1479.7 Z" fill="#000000" fill-rule="nonzero" fill-opacity="1"></path><path clip-path="url(#clip300)" d="M418.03 1454.1 Q414.419 1454.1 412.59 1457.66 Q410.785 1461.2 410.785 1468.33 Q410.785 1475.44 412.59 1479.01 Q414.419 1482.55 418.03 1482.55 Q421.664 1482.55 423.47 1479.01 Q425.298 1475.44 425.298 1468.33 Q425.298 1461.2 423.47 1457.66 Q421.664 1454.1 418.03 1454.1 M418.03 1450.39 Q423.84 1450.39 426.896 1455 Q429.974 1459.58 429.974 1468.33 Q429.974 1477.06 426.896 1481.67 Q423.84 1486.25 418.03 1486.25 Q412.22 1486.25 409.141 1481.67 Q406.086 1477.06 406.086 1468.33 Q406.086 1459.58 409.141 1455 Q412.22 1450.39 418.03 1450.39 Z" fill="#000000" fill-rule="nonzero" fill-opacity="1"></path><path clip-path="url(#clip300)" d="M842.234 1481.64 L858.553 1481.64 L858.553 1485.58 L836.609 1485.58 L836.609 1481.64 Q839.271 1478.89 843.854 1474.26 Q848.46 1469.61 849.641 1468.27 Q851.886 1465.74 852.766 1464.01 Q853.669 1462.25 853.669 1460.56 Q853.669 1457.8 851.724 1456.07 Q849.803 1454.33 846.701 1454.33 Q844.502 1454.33 842.048 1455.09 Q839.618 1455.86 836.84 1457.41 L836.84 1452.69 Q839.664 1451.55 842.118 1450.97 Q844.571 1450.39 846.608 1450.39 Q851.979 1450.39 855.173 1453.08 Q858.368 1455.77 858.368 1460.26 Q858.368 1462.39 857.558 1464.31 Q856.77 1466.2 854.664 1468.8 Q854.085 1469.47 850.983 1472.69 Q847.882 1475.88 842.234 1481.64 Z" fill="#000000" fill-rule="nonzero" fill-opacity="1"></path><path clip-path="url(#clip300)" d="M868.368 1479.7 L873.252 1479.7 L873.252 1485.58 L868.368 1485.58 L868.368 1479.7 Z" fill="#000000" fill-rule="nonzero" fill-opacity="1"></path><path clip-path="url(#clip300)" d="M883.483 1451.02 L901.84 1451.02 L901.84 1454.96 L887.766 1454.96 L887.766 1463.43 Q888.784 1463.08 889.803 1462.92 Q890.821 1462.73 891.84 1462.73 Q897.627 1462.73 901.006 1465.9 Q904.386 1469.08 904.386 1474.49 Q904.386 1480.07 900.914 1483.17 Q897.442 1486.25 891.122 1486.25 Q888.946 1486.25 886.678 1485.88 Q884.432 1485.51 882.025 1484.77 L882.025 1480.07 Q884.108 1481.2 886.331 1481.76 Q888.553 1482.32 891.03 1482.32 Q895.034 1482.32 897.372 1480.21 Q899.71 1478.1 899.71 1474.49 Q899.71 1470.88 897.372 1468.77 Q895.034 1466.67 891.03 1466.67 Q889.155 1466.67 887.28 1467.08 Q885.428 1467.5 883.483 1468.38 L883.483 1451.02 Z" fill="#000000" fill-rule="nonzero" fill-opacity="1"></path><path clip-path="url(#clip300)" d="M1312.74 1451.02 L1331.1 1451.02 L1331.1 1454.96 L1317.03 1454.96 L1317.03 1463.43 Q1318.05 1463.08 1319.06 1462.92 Q1320.08 1462.73 1321.1 1462.73 Q1326.89 1462.73 1330.27 1465.9 Q1333.65 1469.08 1333.65 1474.49 Q1333.65 1480.07 1330.18 1483.17 Q1326.7 1486.25 1320.38 1486.25 Q1318.21 1486.25 1315.94 1485.88 Q1313.69 1485.51 1311.29 1484.77 L1311.29 1480.07 Q1313.37 1481.2 1315.59 1481.76 Q1317.81 1482.32 1320.29 1482.32 Q1324.3 1482.32 1326.63 1480.21 Q1328.97 1478.1 1328.97 1474.49 Q1328.97 1470.88 1326.63 1468.77 Q1324.3 1466.67 1320.29 1466.67 Q1318.42 1466.67 1316.54 1467.08 Q1314.69 1467.5 1312.74 1468.38 L1312.74 1451.02 Z" fill="#000000" fill-rule="nonzero" fill-opacity="1"></path><path clip-path="url(#clip300)" d="M1342.86 1479.7 L1347.74 1479.7 L1347.74 1485.58 L1342.86 1485.58 L1342.86 1479.7 Z" fill="#000000" fill-rule="nonzero" fill-opacity="1"></path><path clip-path="url(#clip300)" d="M1367.93 1454.1 Q1364.32 1454.1 1362.49 1457.66 Q1360.68 1461.2 1360.68 1468.33 Q1360.68 1475.44 1362.49 1479.01 Q1364.32 1482.55 1367.93 1482.55 Q1371.56 1482.55 1373.37 1479.01 Q1375.2 1475.44 1375.2 1468.33 Q1375.2 1461.2 1373.37 1457.66 Q1371.56 1454.1 1367.93 1454.1 M1367.93 1450.39 Q1373.74 1450.39 1376.8 1455 Q1379.87 1459.58 1379.87 1468.33 Q1379.87 1477.06 1376.8 1481.67 Q1373.74 1486.25 1367.93 1486.25 Q1362.12 1486.25 1359.04 1481.67 Q1355.99 1477.06 1355.99 1468.33 Q1355.99 1459.58 1359.04 1455 Q1362.12 1450.39 1367.93 1450.39 Z" fill="#000000" fill-rule="nonzero" fill-opacity="1"></path><path clip-path="url(#clip300)" d="M1786.98 1451.02 L1809.2 1451.02 L1809.2 1453.01 L1796.66 1485.58 L1791.77 1485.58 L1803.58 1454.96 L1786.98 1454.96 L1786.98 1451.02 Z" fill="#000000" fill-rule="nonzero" fill-opacity="1"></path><path clip-path="url(#clip300)" d="M1818.33 1479.7 L1823.21 1479.7 L1823.21 1485.58 L1818.33 1485.58 L1818.33 1479.7 Z" fill="#000000" fill-rule="nonzero" fill-opacity="1"></path><path clip-path="url(#clip300)" d="M1833.44 1451.02 L1851.8 1451.02 L1851.8 1454.96 L1837.72 1454.96 L1837.72 1463.43 Q1838.74 1463.08 1839.76 1462.92 Q1840.78 1462.73 1841.8 1462.73 Q1847.58 1462.73 1850.96 1465.9 Q1854.34 1469.08 1854.34 1474.49 Q1854.34 1480.07 1850.87 1483.17 Q1847.4 1486.25 1841.08 1486.25 Q1838.9 1486.25 1836.64 1485.88 Q1834.39 1485.51 1831.98 1484.77 L1831.98 1480.07 Q1834.07 1481.2 1836.29 1481.76 Q1838.51 1482.32 1840.99 1482.32 Q1844.99 1482.32 1847.33 1480.21 Q1849.67 1478.1 1849.67 1474.49 Q1849.67 1470.88 1847.33 1468.77 Q1844.99 1466.67 1840.99 1466.67 Q1839.11 1466.67 1837.24 1467.08 Q1835.39 1467.5 1833.44 1468.38 L1833.44 1451.02 Z" fill="#000000" fill-rule="nonzero" fill-opacity="1"></path><path clip-path="url(#clip300)" d="M2247.82 1481.64 L2255.46 1481.64 L2255.46 1455.28 L2247.15 1456.95 L2247.15 1452.69 L2255.41 1451.02 L2260.09 1451.02 L2260.09 1481.64 L2267.73 1481.64 L2267.73 1485.58 L2247.82 1485.58 L2247.82 1481.64 Z" fill="#000000" fill-rule="nonzero" fill-opacity="1"></path><path clip-path="url(#clip300)" d="M2287.17 1454.1 Q2283.56 1454.1 2281.73 1457.66 Q2279.92 1461.2 2279.92 1468.33 Q2279.92 1475.44 2281.73 1479.01 Q2283.56 1482.55 2287.17 1482.55 Q2290.8 1482.55 2292.61 1479.01 Q2294.44 1475.44 2294.44 1468.33 Q2294.44 1461.2 2292.61 1457.66 Q2290.8 1454.1 2287.17 1454.1 M2287.17 1450.39 Q2292.98 1450.39 2296.04 1455 Q2299.11 1459.58 2299.11 1468.33 Q2299.11 1477.06 2296.04 1481.67 Q2292.98 1486.25 2287.17 1486.25 Q2281.36 1486.25 2278.28 1481.67 Q2275.23 1477.06 2275.23 1468.33 Q2275.23 1459.58 2278.28 1455 Q2281.36 1450.39 2287.17 1450.39 Z" fill="#000000" fill-rule="nonzero" fill-opacity="1"></path><path clip-path="url(#clip300)" d="M2307.33 1479.7 L2312.22 1479.7 L2312.22 1485.58 L2307.33 1485.58 L2307.33 1479.7 Z" fill="#000000" fill-rule="nonzero" fill-opacity="1"></path><path clip-path="url(#clip300)" d="M2332.4 1454.1 Q2328.79 1454.1 2326.96 1457.66 Q2325.16 1461.2 2325.16 1468.33 Q2325.16 1475.44 2326.96 1479.01 Q2328.79 1482.55 2332.4 1482.55 Q2336.04 1482.55 2337.84 1479.01 Q2339.67 1475.44 2339.67 1468.33 Q2339.67 1461.2 2337.84 1457.66 Q2336.04 1454.1 2332.4 1454.1 M2332.4 1450.39 Q2338.21 1450.39 2341.27 1455 Q2344.35 1459.58 2344.35 1468.33 Q2344.35 1477.06 2341.27 1481.67 Q2338.21 1486.25 2332.4 1486.25 Q2326.59 1486.25 2323.51 1481.67 Q2320.46 1477.06 2320.46 1468.33 Q2320.46 1459.58 2323.51 1455 Q2326.59 1450.39 2332.4 1450.39 Z" fill="#000000" fill-rule="nonzero" fill-opacity="1"></path><path clip-path="url(#clip300)" d="M1072.7 1532.4 L1078.9 1532.4 L1090.04 1562.31 L1101.18 1532.4 L1107.39 1532.4 L1094.02 1568.04 L1086.07 1568.04 L1072.7 1532.4 Z" fill="#000000" fill-rule="nonzero" fill-opacity="1"></path><path clip-path="url(#clip300)" d="M1145.11 1546.53 L1145.11 1568.04 L1139.25 1568.04 L1139.25 1546.72 Q1139.25 1541.66 1137.28 1539.14 Q1135.3 1536.63 1131.36 1536.63 Q1126.62 1536.63 1123.88 1539.65 Q1121.14 1542.68 1121.14 1547.9 L1121.14 1568.04 L1115.25 1568.04 L1115.25 1518.52 L1121.14 1518.52 L1121.14 1537.93 Q1123.24 1534.72 1126.07 1533.13 Q1128.94 1531.54 1132.66 1531.54 Q1138.81 1531.54 1141.96 1535.36 Q1145.11 1539.14 1145.11 1546.53 Z" fill="#000000" fill-rule="nonzero" fill-opacity="1"></path><path clip-path="url(#clip300)" d="M1170.6 1536.5 Q1165.89 1536.5 1163.15 1540.19 Q1160.42 1543.85 1160.42 1550.25 Q1160.42 1556.65 1163.12 1560.34 Q1165.86 1564 1170.6 1564 Q1175.28 1564 1178.02 1560.31 Q1180.76 1556.62 1180.76 1550.25 Q1180.76 1543.92 1178.02 1540.23 Q1175.28 1536.5 1170.6 1536.5 M1170.6 1531.54 Q1178.24 1531.54 1182.6 1536.5 Q1186.96 1541.47 1186.96 1550.25 Q1186.96 1559 1182.6 1564 Q1178.24 1568.97 1170.6 1568.97 Q1162.93 1568.97 1158.57 1564 Q1154.24 1559 1154.24 1550.25 Q1154.24 1541.47 1158.57 1536.5 Q1162.93 1531.54 1170.6 1531.54 Z" fill="#000000" fill-rule="nonzero" fill-opacity="1"></path><path clip-path="url(#clip300)" d="M1220.13 1537.81 L1220.13 1518.52 L1225.98 1518.52 L1225.98 1568.04 L1220.13 1568.04 L1220.13 1562.7 Q1218.28 1565.88 1215.45 1567.44 Q1212.65 1568.97 1208.7 1568.97 Q1202.24 1568.97 1198.17 1563.81 Q1194.12 1558.65 1194.12 1550.25 Q1194.12 1541.85 1198.17 1536.69 Q1202.24 1531.54 1208.7 1531.54 Q1212.65 1531.54 1215.45 1533.1 Q1218.28 1534.62 1220.13 1537.81 M1200.17 1550.25 Q1200.17 1556.71 1202.81 1560.4 Q1205.49 1564.07 1210.13 1564.07 Q1214.78 1564.07 1217.45 1560.4 Q1220.13 1556.71 1220.13 1550.25 Q1220.13 1543.79 1217.45 1540.13 Q1214.78 1536.44 1210.13 1536.44 Q1205.49 1536.44 1202.81 1540.13 Q1200.17 1543.79 1200.17 1550.25 Z" fill="#000000" fill-rule="nonzero" fill-opacity="1"></path><path clip-path="url(#clip300)" d="M1267.68 1546.53 L1267.68 1568.04 L1261.82 1568.04 L1261.82 1546.72 Q1261.82 1541.66 1259.85 1539.14 Q1257.88 1536.63 1253.93 1536.63 Q1249.19 1536.63 1246.45 1539.65 Q1243.71 1542.68 1243.71 1547.9 L1243.71 1568.04 L1237.82 1568.04 L1237.82 1532.4 L1243.71 1532.4 L1243.71 1537.93 Q1245.81 1534.72 1248.65 1533.13 Q1251.51 1531.54 1255.23 1531.54 Q1261.38 1531.54 1264.53 1535.36 Q1267.68 1539.14 1267.68 1546.53 Z" fill="#000000" fill-rule="nonzero" fill-opacity="1"></path><path clip-path="url(#clip300)" d="M1295.56 1550.12 Q1288.46 1550.12 1285.73 1551.75 Q1282.99 1553.37 1282.99 1557.29 Q1282.99 1560.4 1285.03 1562.25 Q1287.1 1564.07 1290.63 1564.07 Q1295.5 1564.07 1298.43 1560.63 Q1301.39 1557.16 1301.39 1551.43 L1301.39 1550.12 L1295.56 1550.12 M1307.24 1547.71 L1307.24 1568.04 L1301.39 1568.04 L1301.39 1562.63 Q1299.38 1565.88 1296.39 1567.44 Q1293.4 1568.97 1289.07 1568.97 Q1283.59 1568.97 1280.35 1565.91 Q1277.13 1562.82 1277.13 1557.67 Q1277.13 1551.65 1281.14 1548.6 Q1285.19 1545.54 1293.17 1545.54 L1301.39 1545.54 L1301.39 1544.97 Q1301.39 1540.93 1298.71 1538.73 Q1296.07 1536.5 1291.26 1536.5 Q1288.21 1536.5 1285.31 1537.23 Q1282.42 1537.97 1279.74 1539.43 L1279.74 1534.02 Q1282.96 1532.78 1285.98 1532.17 Q1289 1531.54 1291.87 1531.54 Q1299.6 1531.54 1303.42 1535.55 Q1307.24 1539.56 1307.24 1547.71 Z" fill="#000000" fill-rule="nonzero" fill-opacity="1"></path><path clip-path="url(#clip300)" d="M1335.82 1532.4 L1342.03 1532.4 L1353.17 1562.31 L1364.31 1532.4 L1370.52 1532.4 L1357.15 1568.04 L1349.19 1568.04 L1335.82 1532.4 Z" fill="#000000" fill-rule="nonzero" fill-opacity="1"></path><path clip-path="url(#clip300)" d="M1399.26 1537.87 Q1398.27 1537.3 1397.09 1537.04 Q1395.95 1536.76 1394.55 1536.76 Q1389.58 1536.76 1386.91 1540 Q1384.27 1543.22 1384.27 1549.27 L1384.27 1568.04 L1378.38 1568.04 L1378.38 1532.4 L1384.27 1532.4 L1384.27 1537.93 Q1386.11 1534.69 1389.07 1533.13 Q1392.03 1531.54 1396.27 1531.54 Q1396.87 1531.54 1397.6 1531.63 Q1398.34 1531.7 1399.23 1531.85 L1399.26 1537.87 Z" fill="#000000" fill-rule="nonzero" fill-opacity="1"></path><path clip-path="url(#clip300)" d="M1434.46 1548.76 L1434.46 1551.62 L1407.53 1551.62 Q1407.92 1557.67 1411.16 1560.85 Q1414.44 1564 1420.27 1564 Q1423.64 1564 1426.79 1563.17 Q1429.97 1562.35 1433.09 1560.69 L1433.09 1566.23 Q1429.94 1567.57 1426.63 1568.27 Q1423.32 1568.97 1419.92 1568.97 Q1411.39 1568.97 1406.39 1564 Q1401.42 1559.04 1401.42 1550.57 Q1401.42 1541.82 1406.13 1536.69 Q1410.88 1531.54 1418.9 1531.54 Q1426.09 1531.54 1430.26 1536.18 Q1434.46 1540.8 1434.46 1548.76 M1428.6 1547.04 Q1428.54 1542.23 1425.9 1539.37 Q1423.29 1536.5 1418.96 1536.5 Q1414.06 1536.5 1411.1 1539.27 Q1408.17 1542.04 1407.73 1547.07 L1428.6 1547.04 Z" fill="#000000" fill-rule="nonzero" fill-opacity="1"></path><path clip-path="url(#clip300)" d="M1467.53 1537.81 L1467.53 1518.52 L1473.39 1518.52 L1473.39 1568.04 L1467.53 1568.04 L1467.53 1562.7 Q1465.69 1565.88 1462.85 1567.44 Q1460.05 1568.97 1456.1 1568.97 Q1449.64 1568.97 1445.57 1563.81 Q1441.53 1558.65 1441.53 1550.25 Q1441.53 1541.85 1445.57 1536.69 Q1449.64 1531.54 1456.1 1531.54 Q1460.05 1531.54 1462.85 1533.1 Q1465.69 1534.62 1467.53 1537.81 M1447.57 1550.25 Q1447.57 1556.71 1450.22 1560.4 Q1452.89 1564.07 1457.54 1564.07 Q1462.18 1564.07 1464.86 1560.4 Q1467.53 1556.71 1467.53 1550.25 Q1467.53 1543.79 1464.86 1540.13 Q1462.18 1536.44 1457.54 1536.44 Q1452.89 1536.44 1450.22 1540.13 Q1447.57 1543.79 1447.57 1550.25 Z" fill="#000000" fill-rule="nonzero" fill-opacity="1"></path><path clip-path="url(#clip300)" d="M1515.08 1546.53 L1515.08 1568.04 L1509.23 1568.04 L1509.23 1546.72 Q1509.23 1541.66 1507.25 1539.14 Q1505.28 1536.63 1501.33 1536.63 Q1496.59 1536.63 1493.85 1539.65 Q1491.12 1542.68 1491.12 1547.9 L1491.12 1568.04 L1485.23 1568.04 L1485.23 1532.4 L1491.12 1532.4 L1491.12 1537.93 Q1493.22 1534.72 1496.05 1533.13 Q1498.91 1531.54 1502.64 1531.54 Q1508.78 1531.54 1511.93 1535.36 Q1515.08 1539.14 1515.08 1546.53 Z" fill="#000000" fill-rule="nonzero" fill-opacity="1"></path><path clip-path="url(#clip300)" d="M1540.58 1536.5 Q1535.87 1536.5 1533.13 1540.19 Q1530.39 1543.85 1530.39 1550.25 Q1530.39 1556.65 1533.1 1560.34 Q1535.84 1564 1540.58 1564 Q1545.26 1564 1547.99 1560.31 Q1550.73 1556.62 1550.73 1550.25 Q1550.73 1543.92 1547.99 1540.23 Q1545.26 1536.5 1540.58 1536.5 M1540.58 1531.54 Q1548.22 1531.54 1552.58 1536.5 Q1556.94 1541.47 1556.94 1550.25 Q1556.94 1559 1552.58 1564 Q1548.22 1568.97 1540.58 1568.97 Q1532.91 1568.97 1528.55 1564 Q1524.22 1559 1524.22 1550.25 Q1524.22 1541.47 1528.55 1536.5 Q1532.91 1531.54 1540.58 1531.54 Z" fill="#000000" fill-rule="nonzero" fill-opacity="1"></path><path clip-path="url(#clip300)" d="M1589.37 1533.45 L1589.37 1538.98 Q1586.89 1537.71 1584.21 1537.07 Q1581.54 1536.44 1578.68 1536.44 Q1574.32 1536.44 1572.12 1537.77 Q1569.96 1539.11 1569.96 1541.79 Q1569.96 1543.82 1571.51 1545 Q1573.07 1546.15 1577.79 1547.2 L1579.79 1547.64 Q1586.03 1548.98 1588.64 1551.43 Q1591.28 1553.85 1591.28 1558.21 Q1591.28 1563.17 1587.33 1566.07 Q1583.42 1568.97 1576.54 1568.97 Q1573.68 1568.97 1570.56 1568.39 Q1567.47 1567.85 1564.04 1566.74 L1564.04 1560.69 Q1567.28 1562.38 1570.43 1563.24 Q1573.58 1564.07 1576.67 1564.07 Q1580.81 1564.07 1583.04 1562.66 Q1585.26 1561.23 1585.26 1558.65 Q1585.26 1556.27 1583.64 1554.99 Q1582.05 1553.72 1576.61 1552.54 L1574.57 1552.07 Q1569.13 1550.92 1566.71 1548.56 Q1564.29 1546.18 1564.29 1542.04 Q1564.29 1537.01 1567.85 1534.27 Q1571.42 1531.54 1577.98 1531.54 Q1581.22 1531.54 1584.09 1532.01 Q1586.95 1532.49 1589.37 1533.45 Z" fill="#000000" fill-rule="nonzero" fill-opacity="1"></path><path clip-path="url(#clip300)" d="M1606.4 1522.27 L1606.4 1532.4 L1618.46 1532.4 L1618.46 1536.95 L1606.4 1536.95 L1606.4 1556.3 Q1606.4 1560.66 1607.58 1561.9 Q1608.79 1563.14 1612.45 1563.14 L1618.46 1563.14 L1618.46 1568.04 L1612.45 1568.04 Q1605.67 1568.04 1603.09 1565.53 Q1600.51 1562.98 1600.51 1556.3 L1600.51 1536.95 L1596.21 1536.95 L1596.21 1532.4 L1600.51 1532.4 L1600.51 1522.27 L1606.4 1522.27 Z" fill="#000000" fill-rule="nonzero" fill-opacity="1"></path><polyline clip-path="url(#clip302)" style="stroke:#000000; stroke-linecap:round; stroke-linejoin:round; stroke-width:2; stroke-opacity:0.1; fill:none" points="338.404,1385.81 2352.76,1385.81 "></polyline>
<polyline clip-path="url(#clip302)" style="stroke:#000000; stroke-linecap:round; stroke-linejoin:round; stroke-width:2; stroke-opacity:0.1; fill:none" points="338.404,1136.5 2352.76,1136.5 "></polyline>
<polyline clip-path="url(#clip302)" style="stroke:#000000; stroke-linecap:round; stroke-linejoin:round; stroke-width:2; stroke-opacity:0.1; fill:none" points="338.404,887.193 2352.76,887.193 "></polyline>
<polyline clip-path="url(#clip302)" style="stroke:#000000; stroke-linecap:round; stroke-linejoin:round; stroke-width:2; stroke-opacity:0.1; fill:none" points="338.404,637.884 2352.76,637.884 "></polyline>
<polyline clip-path="url(#clip302)" style="stroke:#000000; stroke-linecap:round; stroke-linejoin:round; stroke-width:2; stroke-opacity:0.1; fill:none" points="338.404,388.576 2352.76,388.576 "></polyline>
<polyline clip-path="url(#clip302)" style="stroke:#000000; stroke-linecap:round; stroke-linejoin:round; stroke-width:2; stroke-opacity:0.1; fill:none" points="338.404,139.268 2352.76,139.268 "></polyline>
<polyline clip-path="url(#clip300)" style="stroke:#000000; stroke-linecap:round; stroke-linejoin:round; stroke-width:4; stroke-opacity:1; fill:none" points="338.404,1423.18 338.404,101.872 "></polyline>
<polyline clip-path="url(#clip300)" style="stroke:#000000; stroke-linecap:round; stroke-linejoin:round; stroke-width:4; stroke-opacity:1; fill:none" points="338.404,1385.81 357.302,1385.81 "></polyline>
<polyline clip-path="url(#clip300)" style="stroke:#000000; stroke-linecap:round; stroke-linejoin:round; stroke-width:4; stroke-opacity:1; fill:none" points="338.404,1136.5 357.302,1136.5 "></polyline>
<polyline clip-path="url(#clip300)" style="stroke:#000000; stroke-linecap:round; stroke-linejoin:round; stroke-width:4; stroke-opacity:1; fill:none" points="338.404,887.193 357.302,887.193 "></polyline>
<polyline clip-path="url(#clip300)" style="stroke:#000000; stroke-linecap:round; stroke-linejoin:round; stroke-width:4; stroke-opacity:1; fill:none" points="338.404,637.884 357.302,637.884 "></polyline>
<polyline clip-path="url(#clip300)" style="stroke:#000000; stroke-linecap:round; stroke-linejoin:round; stroke-width:4; stroke-opacity:1; fill:none" points="338.404,388.576 357.302,388.576 "></polyline>
<polyline clip-path="url(#clip300)" style="stroke:#000000; stroke-linecap:round; stroke-linejoin:round; stroke-width:4; stroke-opacity:1; fill:none" points="338.404,139.268 357.302,139.268 "></polyline>
<path clip-path="url(#clip300)" d="M290.46 1371.61 Q286.849 1371.61 285.02 1375.17 Q283.215 1378.71 283.215 1385.84 Q283.215 1392.95 285.02 1396.52 Q286.849 1400.06 290.46 1400.06 Q294.094 1400.06 295.9 1396.52 Q297.729 1392.95 297.729 1385.84 Q297.729 1378.71 295.9 1375.17 Q294.094 1371.61 290.46 1371.61 M290.46 1367.9 Q296.27 1367.9 299.326 1372.51 Q302.404 1377.09 302.404 1385.84 Q302.404 1394.57 299.326 1399.18 Q296.27 1403.76 290.46 1403.76 Q284.65 1403.76 281.571 1399.18 Q278.516 1394.57 278.516 1385.84 Q278.516 1377.09 281.571 1372.51 Q284.65 1367.9 290.46 1367.9 Z" fill="#000000" fill-rule="nonzero" fill-opacity="1"></path><path clip-path="url(#clip300)" d="M117.825 1156.29 L125.464 1156.29 L125.464 1129.93 L117.154 1131.59 L117.154 1127.34 L125.418 1125.67 L130.093 1125.67 L130.093 1156.29 L137.732 1156.29 L137.732 1160.23 L117.825 1160.23 L117.825 1156.29 Z" fill="#000000" fill-rule="nonzero" fill-opacity="1"></path><path clip-path="url(#clip300)" d="M147.177 1154.35 L152.061 1154.35 L152.061 1160.23 L147.177 1160.23 L147.177 1154.35 Z" fill="#000000" fill-rule="nonzero" fill-opacity="1"></path><path clip-path="url(#clip300)" d="M172.246 1128.75 Q168.635 1128.75 166.806 1132.31 Q165.001 1135.85 165.001 1142.98 Q165.001 1150.09 166.806 1153.65 Q168.635 1157.2 172.246 1157.2 Q175.88 1157.2 177.686 1153.65 Q179.514 1150.09 179.514 1142.98 Q179.514 1135.85 177.686 1132.31 Q175.88 1128.75 172.246 1128.75 M172.246 1125.04 Q178.056 1125.04 181.112 1129.65 Q184.19 1134.23 184.19 1142.98 Q184.19 1151.71 181.112 1156.32 Q178.056 1160.9 172.246 1160.9 Q166.436 1160.9 163.357 1156.32 Q160.302 1151.71 160.302 1142.98 Q160.302 1134.23 163.357 1129.65 Q166.436 1125.04 172.246 1125.04 Z" fill="#000000" fill-rule="nonzero" fill-opacity="1"></path><path clip-path="url(#clip300)" d="M220.579 1134.77 L210 1145.39 L220.579 1155.97 L217.824 1158.77 L207.199 1148.15 L196.575 1158.77 L193.843 1155.97 L204.399 1145.39 L193.843 1134.77 L196.575 1131.96 L207.199 1142.59 L217.824 1131.96 L220.579 1134.77 Z" fill="#000000" fill-rule="nonzero" fill-opacity="1"></path><path clip-path="url(#clip300)" d="M232.94 1156.29 L240.579 1156.29 L240.579 1129.93 L232.269 1131.59 L232.269 1127.34 L240.533 1125.67 L245.209 1125.67 L245.209 1156.29 L252.847 1156.29 L252.847 1160.23 L232.94 1160.23 L232.94 1156.29 Z" fill="#000000" fill-rule="nonzero" fill-opacity="1"></path><path clip-path="url(#clip300)" d="M272.292 1128.75 Q268.681 1128.75 266.852 1132.31 Q265.046 1135.85 265.046 1142.98 Q265.046 1150.09 266.852 1153.65 Q268.681 1157.2 272.292 1157.2 Q275.926 1157.2 277.732 1153.65 Q279.56 1150.09 279.56 1142.98 Q279.56 1135.85 277.732 1132.31 Q275.926 1128.75 272.292 1128.75 M272.292 1125.04 Q278.102 1125.04 281.157 1129.65 Q284.236 1134.23 284.236 1142.98 Q284.236 1151.71 281.157 1156.32 Q278.102 1160.9 272.292 1160.9 Q266.482 1160.9 263.403 1156.32 Q260.347 1151.71 260.347 1142.98 Q260.347 1134.23 263.403 1129.65 Q266.482 1125.04 272.292 1125.04 Z" fill="#000000" fill-rule="nonzero" fill-opacity="1"></path><path clip-path="url(#clip300)" d="M285.421 1104.74 L300.336 1104.74 L300.336 1107.94 L288.9 1107.94 L288.9 1114.82 Q289.728 1114.54 290.556 1114.41 Q291.383 1114.25 292.211 1114.25 Q296.913 1114.25 299.658 1116.83 Q302.404 1119.41 302.404 1123.81 Q302.404 1128.34 299.583 1130.86 Q296.762 1133.36 291.628 1133.36 Q289.86 1133.36 288.016 1133.06 Q286.192 1132.76 284.236 1132.16 L284.236 1128.34 Q285.929 1129.26 287.734 1129.71 Q289.54 1130.17 291.552 1130.17 Q294.806 1130.17 296.706 1128.45 Q298.605 1126.74 298.605 1123.81 Q298.605 1120.88 296.706 1119.16 Q294.806 1117.45 291.552 1117.45 Q290.029 1117.45 288.505 1117.79 Q287.001 1118.13 285.421 1118.84 L285.421 1104.74 Z" fill="#000000" fill-rule="nonzero" fill-opacity="1"></path><path clip-path="url(#clip300)" d="M121.043 906.985 L137.362 906.985 L137.362 910.92 L115.418 910.92 L115.418 906.985 Q118.08 904.23 122.663 899.601 Q127.269 894.948 128.45 893.605 Q130.695 891.082 131.575 889.346 Q132.478 887.587 132.478 885.897 Q132.478 883.143 130.533 881.406 Q128.612 879.67 125.51 879.67 Q123.311 879.67 120.857 880.434 Q118.427 881.198 115.649 882.749 L115.649 878.027 Q118.473 876.893 120.927 876.314 Q123.38 875.735 125.418 875.735 Q130.788 875.735 133.982 878.42 Q137.177 881.106 137.177 885.596 Q137.177 887.726 136.367 889.647 Q135.579 891.545 133.473 894.138 Q132.894 894.809 129.792 898.027 Q126.691 901.221 121.043 906.985 Z" fill="#000000" fill-rule="nonzero" fill-opacity="1"></path><path clip-path="url(#clip300)" d="M147.177 905.041 L152.061 905.041 L152.061 910.92 L147.177 910.92 L147.177 905.041 Z" fill="#000000" fill-rule="nonzero" fill-opacity="1"></path><path clip-path="url(#clip300)" d="M172.246 879.439 Q168.635 879.439 166.806 883.004 Q165.001 886.545 165.001 893.675 Q165.001 900.781 166.806 904.346 Q168.635 907.888 172.246 907.888 Q175.88 907.888 177.686 904.346 Q179.514 900.781 179.514 893.675 Q179.514 886.545 177.686 883.004 Q175.88 879.439 172.246 879.439 M172.246 875.735 Q178.056 875.735 181.112 880.342 Q184.19 884.925 184.19 893.675 Q184.19 902.402 181.112 907.008 Q178.056 911.592 172.246 911.592 Q166.436 911.592 163.357 907.008 Q160.302 902.402 160.302 893.675 Q160.302 884.925 163.357 880.342 Q166.436 875.735 172.246 875.735 Z" fill="#000000" fill-rule="nonzero" fill-opacity="1"></path><path clip-path="url(#clip300)" d="M220.579 885.457 L210 896.082 L220.579 906.661 L217.824 909.462 L207.199 898.837 L196.575 909.462 L193.843 906.661 L204.399 896.082 L193.843 885.457 L196.575 882.656 L207.199 893.281 L217.824 882.656 L220.579 885.457 Z" fill="#000000" fill-rule="nonzero" fill-opacity="1"></path><path clip-path="url(#clip300)" d="M232.94 906.985 L240.579 906.985 L240.579 880.619 L232.269 882.286 L232.269 878.027 L240.533 876.36 L245.209 876.36 L245.209 906.985 L252.847 906.985 L252.847 910.92 L232.94 910.92 L232.94 906.985 Z" fill="#000000" fill-rule="nonzero" fill-opacity="1"></path><path clip-path="url(#clip300)" d="M272.292 879.439 Q268.681 879.439 266.852 883.004 Q265.046 886.545 265.046 893.675 Q265.046 900.781 266.852 904.346 Q268.681 907.888 272.292 907.888 Q275.926 907.888 277.732 904.346 Q279.56 900.781 279.56 893.675 Q279.56 886.545 277.732 883.004 Q275.926 879.439 272.292 879.439 M272.292 875.735 Q278.102 875.735 281.157 880.342 Q284.236 884.925 284.236 893.675 Q284.236 902.402 281.157 907.008 Q278.102 911.592 272.292 911.592 Q266.482 911.592 263.403 907.008 Q260.347 902.402 260.347 893.675 Q260.347 884.925 263.403 880.342 Q266.482 875.735 272.292 875.735 Z" fill="#000000" fill-rule="nonzero" fill-opacity="1"></path><path clip-path="url(#clip300)" d="M285.421 855.43 L300.336 855.43 L300.336 858.627 L288.9 858.627 L288.9 865.511 Q289.728 865.229 290.556 865.097 Q291.383 864.947 292.211 864.947 Q296.913 864.947 299.658 867.523 Q302.404 870.1 302.404 874.501 Q302.404 879.034 299.583 881.554 Q296.762 884.055 291.628 884.055 Q289.86 884.055 288.016 883.754 Q286.192 883.453 284.236 882.852 L284.236 879.034 Q285.929 879.955 287.734 880.407 Q289.54 880.858 291.552 880.858 Q294.806 880.858 296.706 879.146 Q298.605 877.435 298.605 874.501 Q298.605 871.567 296.706 869.855 Q294.806 868.144 291.552 868.144 Q290.029 868.144 288.505 868.482 Q287.001 868.821 285.421 869.536 L285.421 855.43 Z" fill="#000000" fill-rule="nonzero" fill-opacity="1"></path><path clip-path="url(#clip300)" d="M131.181 642.978 Q134.538 643.695 136.413 645.964 Q138.311 648.232 138.311 651.566 Q138.311 656.681 134.792 659.482 Q131.274 662.283 124.793 662.283 Q122.617 662.283 120.302 661.843 Q118.01 661.427 115.556 660.57 L115.556 656.056 Q117.501 657.191 119.816 657.769 Q122.13 658.348 124.654 658.348 Q129.052 658.348 131.343 656.612 Q133.658 654.876 133.658 651.566 Q133.658 648.51 131.505 646.797 Q129.376 645.061 125.556 645.061 L121.529 645.061 L121.529 641.218 L125.742 641.218 Q129.191 641.218 131.019 639.853 Q132.848 638.464 132.848 635.871 Q132.848 633.209 130.95 631.797 Q129.075 630.362 125.556 630.362 Q123.635 630.362 121.436 630.779 Q119.237 631.195 116.598 632.075 L116.598 627.908 Q119.26 627.168 121.575 626.797 Q123.913 626.427 125.973 626.427 Q131.297 626.427 134.399 628.857 Q137.501 631.265 137.501 635.385 Q137.501 638.256 135.857 640.246 Q134.214 642.214 131.181 642.978 Z" fill="#000000" fill-rule="nonzero" fill-opacity="1"></path><path clip-path="url(#clip300)" d="M147.177 655.732 L152.061 655.732 L152.061 661.612 L147.177 661.612 L147.177 655.732 Z" fill="#000000" fill-rule="nonzero" fill-opacity="1"></path><path clip-path="url(#clip300)" d="M172.246 630.131 Q168.635 630.131 166.806 633.695 Q165.001 637.237 165.001 644.367 Q165.001 651.473 166.806 655.038 Q168.635 658.579 172.246 658.579 Q175.88 658.579 177.686 655.038 Q179.514 651.473 179.514 644.367 Q179.514 637.237 177.686 633.695 Q175.88 630.131 172.246 630.131 M172.246 626.427 Q178.056 626.427 181.112 631.033 Q184.19 635.617 184.19 644.367 Q184.19 653.093 181.112 657.7 Q178.056 662.283 172.246 662.283 Q166.436 662.283 163.357 657.7 Q160.302 653.093 160.302 644.367 Q160.302 635.617 163.357 631.033 Q166.436 626.427 172.246 626.427 Z" fill="#000000" fill-rule="nonzero" fill-opacity="1"></path><path clip-path="url(#clip300)" d="M220.579 636.149 L210 646.774 L220.579 657.353 L217.824 660.154 L207.199 649.529 L196.575 660.154 L193.843 657.353 L204.399 646.774 L193.843 636.149 L196.575 633.348 L207.199 643.973 L217.824 633.348 L220.579 636.149 Z" fill="#000000" fill-rule="nonzero" fill-opacity="1"></path><path clip-path="url(#clip300)" d="M232.94 657.677 L240.579 657.677 L240.579 631.311 L232.269 632.978 L232.269 628.719 L240.533 627.052 L245.209 627.052 L245.209 657.677 L252.847 657.677 L252.847 661.612 L232.94 661.612 L232.94 657.677 Z" fill="#000000" fill-rule="nonzero" fill-opacity="1"></path><path clip-path="url(#clip300)" d="M272.292 630.131 Q268.681 630.131 266.852 633.695 Q265.046 637.237 265.046 644.367 Q265.046 651.473 266.852 655.038 Q268.681 658.579 272.292 658.579 Q275.926 658.579 277.732 655.038 Q279.56 651.473 279.56 644.367 Q279.56 637.237 277.732 633.695 Q275.926 630.131 272.292 630.131 M272.292 626.427 Q278.102 626.427 281.157 631.033 Q284.236 635.617 284.236 644.367 Q284.236 653.093 281.157 657.7 Q278.102 662.283 272.292 662.283 Q266.482 662.283 263.403 657.7 Q260.347 653.093 260.347 644.367 Q260.347 635.617 263.403 631.033 Q266.482 626.427 272.292 626.427 Z" fill="#000000" fill-rule="nonzero" fill-opacity="1"></path><path clip-path="url(#clip300)" d="M285.421 606.121 L300.336 606.121 L300.336 609.319 L288.9 609.319 L288.9 616.202 Q289.728 615.92 290.556 615.789 Q291.383 615.638 292.211 615.638 Q296.913 615.638 299.658 618.215 Q302.404 620.792 302.404 625.193 Q302.404 629.725 299.583 632.245 Q296.762 634.747 291.628 634.747 Q289.86 634.747 288.016 634.446 Q286.192 634.145 284.236 633.543 L284.236 629.725 Q285.929 630.647 287.734 631.098 Q289.54 631.55 291.552 631.55 Q294.806 631.55 296.706 629.838 Q298.605 628.127 298.605 625.193 Q298.605 622.259 296.706 620.547 Q294.806 618.836 291.552 618.836 Q290.029 618.836 288.505 619.174 Q287.001 619.513 285.421 620.227 L285.421 606.121 Z" fill="#000000" fill-rule="nonzero" fill-opacity="1"></path><path clip-path="url(#clip300)" d="M129.862 381.818 L118.056 400.267 L129.862 400.267 L129.862 381.818 M128.635 377.744 L134.515 377.744 L134.515 400.267 L139.445 400.267 L139.445 404.155 L134.515 404.155 L134.515 412.304 L129.862 412.304 L129.862 404.155 L114.26 404.155 L114.26 399.642 L128.635 377.744 Z" fill="#000000" fill-rule="nonzero" fill-opacity="1"></path><path clip-path="url(#clip300)" d="M147.177 406.424 L152.061 406.424 L152.061 412.304 L147.177 412.304 L147.177 406.424 Z" fill="#000000" fill-rule="nonzero" fill-opacity="1"></path><path clip-path="url(#clip300)" d="M172.246 380.822 Q168.635 380.822 166.806 384.387 Q165.001 387.929 165.001 395.058 Q165.001 402.165 166.806 405.73 Q168.635 409.271 172.246 409.271 Q175.88 409.271 177.686 405.73 Q179.514 402.165 179.514 395.058 Q179.514 387.929 177.686 384.387 Q175.88 380.822 172.246 380.822 M172.246 377.119 Q178.056 377.119 181.112 381.725 Q184.19 386.308 184.19 395.058 Q184.19 403.785 181.112 408.392 Q178.056 412.975 172.246 412.975 Q166.436 412.975 163.357 408.392 Q160.302 403.785 160.302 395.058 Q160.302 386.308 163.357 381.725 Q166.436 377.119 172.246 377.119 Z" fill="#000000" fill-rule="nonzero" fill-opacity="1"></path><path clip-path="url(#clip300)" d="M220.579 386.841 L210 397.466 L220.579 408.044 L217.824 410.845 L207.199 400.22 L196.575 410.845 L193.843 408.044 L204.399 397.466 L193.843 386.841 L196.575 384.04 L207.199 394.665 L217.824 384.04 L220.579 386.841 Z" fill="#000000" fill-rule="nonzero" fill-opacity="1"></path><path clip-path="url(#clip300)" d="M232.94 408.368 L240.579 408.368 L240.579 382.003 L232.269 383.669 L232.269 379.41 L240.533 377.744 L245.209 377.744 L245.209 408.368 L252.847 408.368 L252.847 412.304 L232.94 412.304 L232.94 408.368 Z" fill="#000000" fill-rule="nonzero" fill-opacity="1"></path><path clip-path="url(#clip300)" d="M272.292 380.822 Q268.681 380.822 266.852 384.387 Q265.046 387.929 265.046 395.058 Q265.046 402.165 266.852 405.73 Q268.681 409.271 272.292 409.271 Q275.926 409.271 277.732 405.73 Q279.56 402.165 279.56 395.058 Q279.56 387.929 277.732 384.387 Q275.926 380.822 272.292 380.822 M272.292 377.119 Q278.102 377.119 281.157 381.725 Q284.236 386.308 284.236 395.058 Q284.236 403.785 281.157 408.392 Q278.102 412.975 272.292 412.975 Q266.482 412.975 263.403 408.392 Q260.347 403.785 260.347 395.058 Q260.347 386.308 263.403 381.725 Q266.482 377.119 272.292 377.119 Z" fill="#000000" fill-rule="nonzero" fill-opacity="1"></path><path clip-path="url(#clip300)" d="M285.421 356.813 L300.336 356.813 L300.336 360.01 L288.9 360.01 L288.9 366.894 Q289.728 366.612 290.556 366.48 Q291.383 366.33 292.211 366.33 Q296.913 366.33 299.658 368.907 Q302.404 371.483 302.404 375.884 Q302.404 380.417 299.583 382.937 Q296.762 385.439 291.628 385.439 Q289.86 385.439 288.016 385.138 Q286.192 384.837 284.236 384.235 L284.236 380.417 Q285.929 381.338 287.734 381.79 Q289.54 382.241 291.552 382.241 Q294.806 382.241 296.706 380.53 Q298.605 378.818 298.605 375.884 Q298.605 372.95 296.706 371.239 Q294.806 369.527 291.552 369.527 Q290.029 369.527 288.505 369.866 Q287.001 370.204 285.421 370.919 L285.421 356.813 Z" fill="#000000" fill-rule="nonzero" fill-opacity="1"></path><path clip-path="url(#clip300)" d="M117.061 128.435 L135.417 128.435 L135.417 132.37 L121.343 132.37 L121.343 140.843 Q122.362 140.495 123.38 140.333 Q124.399 140.148 125.418 140.148 Q131.205 140.148 134.584 143.319 Q137.964 146.491 137.964 151.907 Q137.964 157.486 134.492 160.588 Q131.019 163.667 124.7 163.667 Q122.524 163.667 120.255 163.296 Q118.01 162.926 115.603 162.185 L115.603 157.486 Q117.686 158.62 119.908 159.176 Q122.13 159.731 124.607 159.731 Q128.612 159.731 130.95 157.625 Q133.288 155.518 133.288 151.907 Q133.288 148.296 130.95 146.19 Q128.612 144.083 124.607 144.083 Q122.732 144.083 120.857 144.5 Q119.006 144.917 117.061 145.796 L117.061 128.435 Z" fill="#000000" fill-rule="nonzero" fill-opacity="1"></path><path clip-path="url(#clip300)" d="M147.177 157.116 L152.061 157.116 L152.061 162.995 L147.177 162.995 L147.177 157.116 Z" fill="#000000" fill-rule="nonzero" fill-opacity="1"></path><path clip-path="url(#clip300)" d="M172.246 131.514 Q168.635 131.514 166.806 135.079 Q165.001 138.62 165.001 145.75 Q165.001 152.856 166.806 156.421 Q168.635 159.963 172.246 159.963 Q175.88 159.963 177.686 156.421 Q179.514 152.856 179.514 145.75 Q179.514 138.62 177.686 135.079 Q175.88 131.514 172.246 131.514 M172.246 127.81 Q178.056 127.81 181.112 132.417 Q184.19 137 184.19 145.75 Q184.19 154.477 181.112 159.083 Q178.056 163.667 172.246 163.667 Q166.436 163.667 163.357 159.083 Q160.302 154.477 160.302 145.75 Q160.302 137 163.357 132.417 Q166.436 127.81 172.246 127.81 Z" fill="#000000" fill-rule="nonzero" fill-opacity="1"></path><path clip-path="url(#clip300)" d="M220.579 137.532 L210 148.157 L220.579 158.736 L217.824 161.537 L207.199 150.912 L196.575 161.537 L193.843 158.736 L204.399 148.157 L193.843 137.532 L196.575 134.731 L207.199 145.356 L217.824 134.731 L220.579 137.532 Z" fill="#000000" fill-rule="nonzero" fill-opacity="1"></path><path clip-path="url(#clip300)" d="M232.94 159.06 L240.579 159.06 L240.579 132.694 L232.269 134.361 L232.269 130.102 L240.533 128.435 L245.209 128.435 L245.209 159.06 L252.847 159.06 L252.847 162.995 L232.94 162.995 L232.94 159.06 Z" fill="#000000" fill-rule="nonzero" fill-opacity="1"></path><path clip-path="url(#clip300)" d="M272.292 131.514 Q268.681 131.514 266.852 135.079 Q265.046 138.62 265.046 145.75 Q265.046 152.856 266.852 156.421 Q268.681 159.963 272.292 159.963 Q275.926 159.963 277.732 156.421 Q279.56 152.856 279.56 145.75 Q279.56 138.62 277.732 135.079 Q275.926 131.514 272.292 131.514 M272.292 127.81 Q278.102 127.81 281.157 132.417 Q284.236 137 284.236 145.75 Q284.236 154.477 281.157 159.083 Q278.102 163.667 272.292 163.667 Q266.482 163.667 263.403 159.083 Q260.347 154.477 260.347 145.75 Q260.347 137 263.403 132.417 Q266.482 127.81 272.292 127.81 Z" fill="#000000" fill-rule="nonzero" fill-opacity="1"></path><path clip-path="url(#clip300)" d="M285.421 107.505 L300.336 107.505 L300.336 110.702 L288.9 110.702 L288.9 117.586 Q289.728 117.304 290.556 117.172 Q291.383 117.022 292.211 117.022 Q296.913 117.022 299.658 119.598 Q302.404 122.175 302.404 126.576 Q302.404 131.109 299.583 133.629 Q296.762 136.13 291.628 136.13 Q289.86 136.13 288.016 135.829 Q286.192 135.528 284.236 134.927 L284.236 131.109 Q285.929 132.03 287.734 132.482 Q289.54 132.933 291.552 132.933 Q294.806 132.933 296.706 131.221 Q298.605 129.51 298.605 126.576 Q298.605 123.642 296.706 121.93 Q294.806 120.219 291.552 120.219 Q290.029 120.219 288.505 120.557 Q287.001 120.896 285.421 121.611 L285.421 107.505 Z" fill="#000000" fill-rule="nonzero" fill-opacity="1"></path><path clip-path="url(#clip300)" d="M29.4065 1131.39 L34.9447 1131.39 Q33.6716 1133.87 33.035 1136.54 Q32.3984 1139.22 32.3984 1142.08 Q32.3984 1146.44 33.7352 1148.64 Q35.072 1150.8 37.7456 1150.8 Q39.7826 1150.8 40.9603 1149.24 Q42.1061 1147.68 43.1565 1142.97 L43.6021 1140.97 Q44.9389 1134.73 47.3897 1132.12 Q49.8086 1129.48 54.1691 1129.48 Q59.1344 1129.48 62.0308 1133.42 Q64.9272 1137.34 64.9272 1144.21 Q64.9272 1147.08 64.3543 1150.2 Q63.8132 1153.28 62.6992 1156.72 L56.6518 1156.72 Q58.3387 1153.48 59.198 1150.32 Q60.0256 1147.17 60.0256 1144.09 Q60.0256 1139.95 58.6251 1137.72 Q57.1929 1135.49 54.6147 1135.49 Q52.2276 1135.49 50.9545 1137.12 Q49.6813 1138.71 48.5037 1144.15 L48.0262 1146.19 Q46.8804 1151.63 44.5251 1154.05 Q42.138 1156.47 38.0002 1156.47 Q32.9713 1156.47 30.2341 1152.9 Q27.4968 1149.34 27.4968 1142.78 Q27.4968 1139.53 27.9743 1136.67 Q28.4517 1133.81 29.4065 1131.39 M23.8365 1144.95 L11.869 1152.74 L11.869 1148.32 L19.667 1142.59 L11.869 1136.86 L11.869 1132.44 L23.8365 1140.24 L23.8365 1144.95 M27.4968 1142.72 L27.4968 1142.72 Z" fill="#000000" fill-rule="nonzero" fill-opacity="1"></path><path clip-path="url(#clip300)" d="M18.2347 1114.36 L28.3562 1114.36 L28.3562 1102.3 L32.9077 1102.3 L32.9077 1114.36 L52.2594 1114.36 Q56.6199 1114.36 57.8613 1113.18 Q59.1026 1111.97 59.1026 1108.31 L59.1026 1102.3 L64.0042 1102.3 L64.0042 1108.31 Q64.0042 1115.09 61.4897 1117.67 Q58.9434 1120.25 52.2594 1120.25 L32.9077 1120.25 L32.9077 1124.54 L28.3562 1124.54 L28.3562 1120.25 L18.2347 1120.25 L18.2347 1114.36 Z" fill="#000000" fill-rule="nonzero" fill-opacity="1"></path><path clip-path="url(#clip300)" d="M44.7161 1064.1 L47.5806 1064.1 L47.5806 1091.03 Q53.6281 1090.65 56.8109 1087.4 Q59.9619 1084.12 59.9619 1078.3 Q59.9619 1074.92 59.1344 1071.77 Q58.3069 1068.59 56.6518 1065.47 L62.1899 1065.47 Q63.5267 1068.62 64.227 1071.93 Q64.9272 1075.24 64.9272 1078.65 Q64.9272 1087.18 59.9619 1092.17 Q54.9967 1097.14 46.5303 1097.14 Q37.7774 1097.14 32.6531 1092.43 Q27.4968 1087.69 27.4968 1079.67 Q27.4968 1072.47 32.1438 1068.3 Q36.7589 1064.1 44.7161 1064.1 M42.9973 1069.96 Q38.1912 1070.02 35.3266 1072.66 Q32.4621 1075.27 32.4621 1079.6 Q32.4621 1084.5 35.2312 1087.46 Q38.0002 1090.39 43.0292 1090.84 L42.9973 1069.96 Z" fill="#000000" fill-rule="nonzero" fill-opacity="1"></path><path clip-path="url(#clip300)" d="M28.3562 1058.69 L28.3562 1052.48 L58.275 1041.34 L28.3562 1030.2 L28.3562 1024 L64.0042 1037.37 L64.0042 1045.32 L28.3562 1058.69 Z" fill="#000000" fill-rule="nonzero" fill-opacity="1"></path><path clip-path="url(#clip300)" d="M28.3562 1015.91 L28.3562 1010.06 L64.0042 1010.06 L64.0042 1015.91 L28.3562 1015.91 M14.479 1015.91 L14.479 1010.06 L21.895 1010.06 L21.895 1015.91 L14.479 1015.91 Z" fill="#000000" fill-rule="nonzero" fill-opacity="1"></path><path clip-path="url(#clip300)" d="M14.479 997.803 L14.479 991.946 L64.0042 991.946 L64.0042 997.803 L14.479 997.803 Z" fill="#000000" fill-rule="nonzero" fill-opacity="1"></path><path clip-path="url(#clip300)" d="M32.4621 965.878 Q32.4621 970.589 36.1542 973.326 Q39.8145 976.064 46.212 976.064 Q52.6095 976.064 56.3017 973.358 Q59.9619 970.621 59.9619 965.878 Q59.9619 961.2 56.2698 958.462 Q52.5777 955.725 46.212 955.725 Q39.8781 955.725 36.186 958.462 Q32.4621 961.2 32.4621 965.878 M27.4968 965.878 Q27.4968 958.24 32.4621 953.879 Q37.4273 949.519 46.212 949.519 Q54.9649 949.519 59.9619 953.879 Q64.9272 958.24 64.9272 965.878 Q64.9272 973.549 59.9619 977.91 Q54.9649 982.238 46.212 982.238 Q37.4273 982.238 32.4621 977.91 Q27.4968 973.549 27.4968 965.878 Z" fill="#000000" fill-rule="nonzero" fill-opacity="1"></path><path clip-path="url(#clip300)" d="M58.657 913.425 L77.5631 913.425 L77.5631 919.313 L28.3562 919.313 L28.3562 913.425 L33.7671 913.425 Q30.5842 911.579 29.0564 908.778 Q27.4968 905.945 27.4968 902.03 Q27.4968 895.537 32.6531 891.495 Q37.8093 887.421 46.212 887.421 Q54.6147 887.421 59.771 891.495 Q64.9272 895.537 64.9272 902.03 Q64.9272 905.945 63.3994 908.778 Q61.8398 911.579 58.657 913.425 M46.212 893.5 Q39.7508 893.5 36.0905 896.174 Q32.3984 898.816 32.3984 903.463 Q32.3984 908.11 36.0905 910.783 Q39.7508 913.425 46.212 913.425 Q52.6732 913.425 56.3653 910.783 Q60.0256 908.11 60.0256 903.463 Q60.0256 898.816 56.3653 896.174 Q52.6732 893.5 46.212 893.5 Z" fill="#000000" fill-rule="nonzero" fill-opacity="1"></path><path clip-path="url(#clip300)" d="M32.4621 863.9 Q32.4621 868.61 36.1542 871.348 Q39.8145 874.085 46.212 874.085 Q52.6095 874.085 56.3017 871.38 Q59.9619 868.642 59.9619 863.9 Q59.9619 859.221 56.2698 856.484 Q52.5777 853.747 46.212 853.747 Q39.8781 853.747 36.186 856.484 Q32.4621 859.221 32.4621 863.9 M27.4968 863.9 Q27.4968 856.261 32.4621 851.901 Q37.4273 847.54 46.212 847.54 Q54.9649 847.54 59.9619 851.901 Q64.9272 856.261 64.9272 863.9 Q64.9272 871.571 59.9619 875.931 Q54.9649 880.26 46.212 880.26 Q37.4273 880.26 32.4621 875.931 Q27.4968 871.571 27.4968 863.9 Z" fill="#000000" fill-rule="nonzero" fill-opacity="1"></path><path clip-path="url(#clip300)" d="M33.7671 814.375 L14.479 814.375 L14.479 808.518 L64.0042 808.518 L64.0042 814.375 L58.657 814.375 Q61.8398 816.221 63.3994 819.053 Q64.9272 821.854 64.9272 825.801 Q64.9272 832.262 59.771 836.336 Q54.6147 840.379 46.212 840.379 Q37.8093 840.379 32.6531 836.336 Q27.4968 832.262 27.4968 825.801 Q27.4968 821.854 29.0564 819.053 Q30.5842 816.221 33.7671 814.375 M46.212 834.331 Q52.6732 834.331 56.3653 831.689 Q60.0256 829.016 60.0256 824.369 Q60.0256 819.722 56.3653 817.048 Q52.6732 814.375 46.212 814.375 Q39.7508 814.375 36.0905 817.048 Q32.3984 819.722 32.3984 824.369 Q32.3984 829.016 36.0905 831.689 Q39.7508 834.331 46.212 834.331 Z" fill="#000000" fill-rule="nonzero" fill-opacity="1"></path><path clip-path="url(#clip300)" d="M28.3562 796.455 L28.3562 790.599 L64.0042 790.599 L64.0042 796.455 L28.3562 796.455 M14.479 796.455 L14.479 790.599 L21.895 790.599 L21.895 796.455 L14.479 796.455 Z" fill="#000000" fill-rule="nonzero" fill-opacity="1"></path><path clip-path="url(#clip300)" d="M42.4881 748.712 L64.0042 748.712 L64.0042 754.569 L42.679 754.569 Q37.6183 754.569 35.1038 756.542 Q32.5894 758.516 32.5894 762.462 Q32.5894 767.205 35.6131 769.942 Q38.6368 772.679 43.8567 772.679 L64.0042 772.679 L64.0042 778.568 L28.3562 778.568 L28.3562 772.679 L33.8944 772.679 Q30.6797 770.579 29.0883 767.746 Q27.4968 764.881 27.4968 761.157 Q27.4968 755.014 31.3163 751.863 Q35.1038 748.712 42.4881 748.712 Z" fill="#000000" fill-rule="nonzero" fill-opacity="1"></path><path clip-path="url(#clip300)" d="M18.2347 731.239 L28.3562 731.239 L28.3562 719.176 L32.9077 719.176 L32.9077 731.239 L52.2594 731.239 Q56.6199 731.239 57.8613 730.061 Q59.1026 728.851 59.1026 725.191 L59.1026 719.176 L64.0042 719.176 L64.0042 725.191 Q64.0042 731.971 61.4897 734.549 Q58.9434 737.127 52.2594 737.127 L32.9077 737.127 L32.9077 741.424 L28.3562 741.424 L28.3562 737.127 L18.2347 737.127 L18.2347 731.239 Z" fill="#000000" fill-rule="nonzero" fill-opacity="1"></path><path clip-path="url(#clip300)" d="M44.7161 680.981 L47.5806 680.981 L47.5806 707.908 Q53.6281 707.526 56.8109 704.28 Q59.9619 701.001 59.9619 695.177 Q59.9619 691.803 59.1344 688.652 Q58.3069 685.469 56.6518 682.35 L62.1899 682.35 Q63.5267 685.501 64.227 688.811 Q64.9272 692.121 64.9272 695.527 Q64.9272 704.057 59.9619 709.054 Q54.9967 714.019 46.5303 714.019 Q37.7774 714.019 32.6531 709.309 Q27.4968 704.566 27.4968 696.545 Q27.4968 689.352 32.1438 685.183 Q36.7589 680.981 44.7161 680.981 M42.9973 686.838 Q38.1912 686.901 35.3266 689.543 Q32.4621 692.153 32.4621 696.482 Q32.4621 701.383 35.2312 704.343 Q38.0002 707.272 43.0292 707.717 L42.9973 686.838 Z" fill="#000000" fill-rule="nonzero" fill-opacity="1"></path><path clip-path="url(#clip300)" d="M33.8307 650.712 Q33.2578 651.699 33.0032 652.877 Q32.7167 654.023 32.7167 655.423 Q32.7167 660.388 35.9632 663.062 Q39.1779 665.704 45.2253 665.704 L64.0042 665.704 L64.0042 671.592 L28.3562 671.592 L28.3562 665.704 L33.8944 665.704 Q30.6479 663.858 29.0883 660.897 Q27.4968 657.937 27.4968 653.704 Q27.4968 653.099 27.5923 652.367 Q27.656 651.635 27.8151 650.744 L33.8307 650.712 Z" fill="#000000" fill-rule="nonzero" fill-opacity="1"></path><path clip-path="url(#clip300)" d="M28.3562 648.771 L28.3562 642.564 L58.275 631.424 L28.3562 620.284 L28.3562 614.078 L64.0042 627.446 L64.0042 635.403 L28.3562 648.771 Z" fill="#000000" fill-rule="nonzero" fill-opacity="1"></path><path clip-path="url(#clip300)" d="M46.0847 589.793 Q46.0847 596.89 47.7079 599.628 Q49.3312 602.365 53.2461 602.365 Q56.3653 602.365 58.2114 600.328 Q60.0256 598.259 60.0256 594.726 Q60.0256 589.856 56.5881 586.928 Q53.1188 583.968 47.3897 583.968 L46.0847 583.968 L46.0847 589.793 M43.6657 578.111 L64.0042 578.111 L64.0042 583.968 L58.5933 583.968 Q61.8398 585.973 63.3994 588.965 Q64.9272 591.957 64.9272 596.286 Q64.9272 601.76 61.8716 605.007 Q58.7843 608.221 53.6281 608.221 Q47.6125 608.221 44.5569 604.211 Q41.5014 600.169 41.5014 592.18 L41.5014 583.968 L40.9285 583.968 Q36.8862 583.968 34.6901 586.642 Q32.4621 589.283 32.4621 594.089 Q32.4621 597.145 33.1941 600.041 Q33.9262 602.938 35.3903 605.611 L29.9795 605.611 Q28.7381 602.397 28.1334 599.373 Q27.4968 596.349 27.4968 593.485 Q27.4968 585.75 31.5072 581.931 Q35.5176 578.111 43.6657 578.111 Z" fill="#000000" fill-rule="nonzero" fill-opacity="1"></path><path clip-path="url(#clip300)" d="M14.479 566.048 L14.479 560.192 L64.0042 560.192 L64.0042 566.048 L14.479 566.048 Z" fill="#000000" fill-rule="nonzero" fill-opacity="1"></path><path clip-path="url(#clip300)" d="M32.4621 534.124 Q32.4621 538.835 36.1542 541.572 Q39.8145 544.31 46.212 544.31 Q52.6095 544.31 56.3017 541.604 Q59.9619 538.867 59.9619 534.124 Q59.9619 529.446 56.2698 526.708 Q52.5777 523.971 46.212 523.971 Q39.8781 523.971 36.186 526.708 Q32.4621 529.446 32.4621 534.124 M27.4968 534.124 Q27.4968 526.486 32.4621 522.125 Q37.4273 517.765 46.212 517.765 Q54.9649 517.765 59.9619 522.125 Q64.9272 526.486 64.9272 534.124 Q64.9272 541.795 59.9619 546.156 Q54.9649 550.484 46.212 550.484 Q37.4273 550.484 32.4621 546.156 Q27.4968 541.795 27.4968 534.124 Z" fill="#000000" fill-rule="nonzero" fill-opacity="1"></path><path clip-path="url(#clip300)" d="M28.3562 512.258 L28.3562 506.052 L58.275 494.912 L28.3562 483.772 L28.3562 477.565 L64.0042 490.933 L64.0042 498.89 L28.3562 512.258 Z" fill="#000000" fill-rule="nonzero" fill-opacity="1"></path><path clip-path="url(#clip300)" d="M14.5426 434.692 Q21.8632 438.957 29.0246 441.026 Q36.186 443.095 43.5384 443.095 Q50.8908 443.095 58.1159 441.026 Q65.3091 438.925 72.5979 434.692 L72.5979 439.785 Q65.1182 444.559 57.8931 446.946 Q50.668 449.301 43.5384 449.301 Q36.4406 449.301 29.2474 446.946 Q22.0542 444.591 14.5426 439.785 L14.5426 434.692 Z" fill="#000000" fill-rule="nonzero" fill-opacity="1"></path><path clip-path="url(#clip300)" d="M42.4881 393.697 L64.0042 393.697 L64.0042 399.553 L42.679 399.553 Q37.6183 399.553 35.1038 401.527 Q32.5894 403.5 32.5894 407.447 Q32.5894 412.189 35.6131 414.927 Q38.6368 417.664 43.8567 417.664 L64.0042 417.664 L64.0042 423.552 L28.3562 423.552 L28.3562 417.664 L33.8944 417.664 Q30.6797 415.563 29.0883 412.73 Q27.4968 409.866 27.4968 406.142 Q27.4968 399.999 31.3163 396.848 Q35.1038 393.697 42.4881 393.697 Z" fill="#000000" fill-rule="nonzero" fill-opacity="1"></path><path clip-path="url(#clip300)" d="M14.5426 382.939 L14.5426 377.846 Q22.0542 373.072 29.2474 370.717 Q36.4406 368.33 43.5384 368.33 Q50.668 368.33 57.8931 370.717 Q65.1182 373.072 72.5979 377.846 L72.5979 382.939 Q65.3091 378.706 58.1159 376.637 Q50.8908 374.536 43.5384 374.536 Q36.186 374.536 29.0246 376.637 Q21.8632 378.706 14.5426 382.939 Z" fill="#000000" fill-rule="nonzero" fill-opacity="1"></path><path clip-path="url(#clip300)" d="M400.559 7.776 L433.45 7.776 L433.45 12.2031 L419.648 12.2031 L419.648 46.656 L414.361 46.656 L414.361 12.2031 L400.559 12.2031 L400.559 7.776 Z" fill="#000000" fill-rule="nonzero" fill-opacity="1"></path><path clip-path="url(#clip300)" d="M447.382 21.9686 Q446.575 21.4999 445.611 21.2916 Q444.674 21.0572 443.528 21.0572 Q439.465 21.0572 437.278 23.7134 Q435.116 26.3436 435.116 31.2915 L435.116 46.656 L430.299 46.656 L430.299 17.4895 L435.116 17.4895 L435.116 22.0207 Q436.627 19.3645 439.049 18.0884 Q441.47 16.7864 444.934 16.7864 Q445.429 16.7864 446.028 16.8645 Q446.627 16.9166 447.356 17.0468 L447.382 21.9686 Z" fill="#000000" fill-rule="nonzero" fill-opacity="1"></path><path clip-path="url(#clip300)" d="M465.663 31.9946 Q459.856 31.9946 457.616 33.3227 Q455.377 34.6509 455.377 37.854 Q455.377 40.406 457.043 41.9164 Q458.736 43.4008 461.627 43.4008 Q465.611 43.4008 468.007 40.5883 Q470.429 37.7498 470.429 33.0623 L470.429 31.9946 L465.663 31.9946 M475.22 30.0155 L475.22 46.656 L470.429 46.656 L470.429 42.2289 Q468.788 44.8852 466.34 46.1612 Q463.892 47.4112 460.351 47.4112 Q455.871 47.4112 453.215 44.9112 Q450.585 42.3852 450.585 38.1665 Q450.585 33.2446 453.866 30.7446 Q457.173 28.2446 463.71 28.2446 L470.429 28.2446 L470.429 27.7759 Q470.429 24.4686 468.241 22.6718 Q466.08 20.8488 462.147 20.8488 Q459.647 20.8488 457.278 21.4478 Q454.908 22.0468 452.72 23.2447 L452.72 18.8176 Q455.351 17.802 457.824 17.3072 Q460.298 16.7864 462.642 16.7864 Q468.97 16.7864 472.095 20.0676 Q475.22 23.3488 475.22 30.0155 Z" fill="#000000" fill-rule="nonzero" fill-opacity="1"></path><path clip-path="url(#clip300)" d="M489.725 42.281 L489.725 57.7497 L484.908 57.7497 L484.908 17.4895 L489.725 17.4895 L489.725 21.9165 Q491.236 19.3124 493.527 18.0624 Q495.845 16.7864 499.048 16.7864 Q504.361 16.7864 507.668 21.0051 Q511.001 25.2238 511.001 32.0988 Q511.001 38.9737 507.668 43.1925 Q504.361 47.4112 499.048 47.4112 Q495.845 47.4112 493.527 46.1612 Q491.236 44.8852 489.725 42.281 M506.027 32.0988 Q506.027 26.8124 503.84 23.8176 Q501.678 20.7968 497.876 20.7968 Q494.074 20.7968 491.887 23.8176 Q489.725 26.8124 489.725 32.0988 Q489.725 37.3852 491.887 40.406 Q494.074 43.4008 497.876 43.4008 Q501.678 43.4008 503.84 40.406 Q506.027 37.3852 506.027 32.0988 Z" fill="#000000" fill-rule="nonzero" fill-opacity="1"></path><path clip-path="url(#clip300)" d="M543.892 30.8748 L543.892 33.2186 L521.861 33.2186 Q522.173 38.1665 524.829 40.7706 Q527.512 43.3487 532.277 43.3487 Q535.038 43.3487 537.616 42.6716 Q540.22 41.9946 542.772 40.6404 L542.772 45.1716 Q540.194 46.2654 537.486 46.8383 Q534.777 47.4112 531.991 47.4112 Q525.012 47.4112 520.923 43.3487 Q516.861 39.2862 516.861 32.3592 Q516.861 25.1978 520.715 21.0051 Q524.595 16.7864 531.157 16.7864 Q537.043 16.7864 540.454 20.5884 Q543.892 24.3645 543.892 30.8748 M539.1 29.4686 Q539.048 25.5363 536.887 23.1926 Q534.751 20.8488 531.21 20.8488 Q527.199 20.8488 524.777 23.1145 Q522.381 25.3801 522.017 29.4946 L539.1 29.4686 Z" fill="#000000" fill-rule="nonzero" fill-opacity="1"></path><path clip-path="url(#clip300)" d="M549.673 17.4895 L572.433 17.4895 L572.433 21.8645 L554.413 42.8279 L572.433 42.8279 L572.433 46.656 L549.022 46.656 L549.022 42.281 L567.043 21.3176 L549.673 21.3176 L549.673 17.4895 Z" fill="#000000" fill-rule="nonzero" fill-opacity="1"></path><path clip-path="url(#clip300)" d="M603.996 29.0519 L603.996 46.656 L599.204 46.656 L599.204 29.2082 Q599.204 25.0676 597.589 23.0103 Q595.975 20.953 592.746 20.953 Q588.865 20.953 586.626 23.427 Q584.386 25.9009 584.386 30.1717 L584.386 46.656 L579.569 46.656 L579.569 17.4895 L584.386 17.4895 L584.386 22.0207 Q586.105 19.3905 588.423 18.0884 Q590.766 16.7864 593.813 16.7864 Q598.839 16.7864 601.417 19.9114 Q603.996 23.0103 603.996 29.0519 Z" fill="#000000" fill-rule="nonzero" fill-opacity="1"></path><path clip-path="url(#clip300)" d="M626.808 31.9946 Q621.001 31.9946 618.761 33.3227 Q616.522 34.6509 616.522 37.854 Q616.522 40.406 618.188 41.9164 Q619.881 43.4008 622.772 43.4008 Q626.756 43.4008 629.152 40.5883 Q631.574 37.7498 631.574 33.0623 L631.574 31.9946 L626.808 31.9946 M636.365 30.0155 L636.365 46.656 L631.574 46.656 L631.574 42.2289 Q629.933 44.8852 627.485 46.1612 Q625.037 47.4112 621.495 47.4112 Q617.016 47.4112 614.36 44.9112 Q611.73 42.3852 611.73 38.1665 Q611.73 33.2446 615.011 30.7446 Q618.318 28.2446 624.855 28.2446 L631.574 28.2446 L631.574 27.7759 Q631.574 24.4686 629.386 22.6718 Q627.225 20.8488 623.292 20.8488 Q620.792 20.8488 618.423 21.4478 Q616.053 22.0468 613.865 23.2447 L613.865 18.8176 Q616.496 17.802 618.969 17.3072 Q621.443 16.7864 623.787 16.7864 Q630.115 16.7864 633.24 20.0676 Q636.365 23.3488 636.365 30.0155 Z" fill="#000000" fill-rule="nonzero" fill-opacity="1"></path><path clip-path="url(#clip300)" d="M685.896 23.0884 Q687.693 19.8593 690.193 18.3228 Q692.693 16.7864 696.078 16.7864 Q700.636 16.7864 703.11 19.9895 Q705.584 23.1665 705.584 29.0519 L705.584 46.656 L700.766 46.656 L700.766 29.2082 Q700.766 25.0155 699.282 22.9843 Q697.797 20.953 694.75 20.953 Q691.026 20.953 688.865 23.427 Q686.703 25.9009 686.703 30.1717 L686.703 46.656 L681.886 46.656 L681.886 29.2082 Q681.886 24.9894 680.401 22.9843 Q678.917 20.953 675.818 20.953 Q672.146 20.953 669.985 23.453 Q667.823 25.9269 667.823 30.1717 L667.823 46.656 L663.006 46.656 L663.006 17.4895 L667.823 17.4895 L667.823 22.0207 Q669.464 19.3384 671.756 18.0624 Q674.047 16.7864 677.198 16.7864 Q680.375 16.7864 682.589 18.4009 Q684.828 20.0155 685.896 23.0884 Z" fill="#000000" fill-rule="nonzero" fill-opacity="1"></path><path clip-path="url(#clip300)" d="M740.089 30.8748 L740.089 33.2186 L718.057 33.2186 Q718.37 38.1665 721.026 40.7706 Q723.708 43.3487 728.474 43.3487 Q731.234 43.3487 733.813 42.6716 Q736.417 41.9946 738.969 40.6404 L738.969 45.1716 Q736.391 46.2654 733.682 46.8383 Q730.974 47.4112 728.188 47.4112 Q721.209 47.4112 717.12 43.3487 Q713.058 39.2862 713.058 32.3592 Q713.058 25.1978 716.912 21.0051 Q720.792 16.7864 727.354 16.7864 Q733.24 16.7864 736.651 20.5884 Q740.089 24.3645 740.089 30.8748 M735.297 29.4686 Q735.245 25.5363 733.083 23.1926 Q730.948 20.8488 727.406 20.8488 Q723.396 20.8488 720.974 23.1145 Q718.578 25.3801 718.214 29.4946 L735.297 29.4686 Z" fill="#000000" fill-rule="nonzero" fill-opacity="1"></path><path clip-path="url(#clip300)" d="M752.693 9.20828 L752.693 17.4895 L762.562 17.4895 L762.562 21.2134 L752.693 21.2134 L752.693 37.0467 Q752.693 40.6144 753.656 41.63 Q754.646 42.6456 757.641 42.6456 L762.562 42.6456 L762.562 46.656 L757.641 46.656 Q752.094 46.656 749.984 44.5987 Q747.875 42.5154 747.875 37.0467 L747.875 21.2134 L744.359 21.2134 L744.359 17.4895 L747.875 17.4895 L747.875 9.20828 L752.693 9.20828 Z" fill="#000000" fill-rule="nonzero" fill-opacity="1"></path><path clip-path="url(#clip300)" d="M780.167 20.8488 Q776.312 20.8488 774.073 23.8697 Q771.833 26.8644 771.833 32.0988 Q771.833 37.3331 774.047 40.354 Q776.286 43.3487 780.167 43.3487 Q783.995 43.3487 786.234 40.3279 Q788.474 37.3071 788.474 32.0988 Q788.474 26.9165 786.234 23.8957 Q783.995 20.8488 780.167 20.8488 M780.167 16.7864 Q786.416 16.7864 789.984 20.8488 Q793.552 24.9113 793.552 32.0988 Q793.552 39.2602 789.984 43.3487 Q786.416 47.4112 780.167 47.4112 Q773.891 47.4112 770.323 43.3487 Q766.781 39.2602 766.781 32.0988 Q766.781 24.9113 770.323 20.8488 Q773.891 16.7864 780.167 16.7864 Z" fill="#000000" fill-rule="nonzero" fill-opacity="1"></path><path clip-path="url(#clip300)" d="M820.687 21.9165 L820.687 6.13538 L825.479 6.13538 L825.479 46.656 L820.687 46.656 L820.687 42.281 Q819.177 44.8852 816.859 46.1612 Q814.567 47.4112 811.338 47.4112 Q806.052 47.4112 802.718 43.1925 Q799.411 38.9737 799.411 32.0988 Q799.411 25.2238 802.718 21.0051 Q806.052 16.7864 811.338 16.7864 Q814.567 16.7864 816.859 18.0624 Q819.177 19.3124 820.687 21.9165 M804.359 32.0988 Q804.359 37.3852 806.521 40.406 Q808.708 43.4008 812.51 43.4008 Q816.312 43.4008 818.5 40.406 Q820.687 37.3852 820.687 32.0988 Q820.687 26.8124 818.5 23.8176 Q816.312 20.7968 812.51 20.7968 Q808.708 20.7968 806.521 23.8176 Q804.359 26.8124 804.359 32.0988 Z" fill="#000000" fill-rule="nonzero" fill-opacity="1"></path><path clip-path="url(#clip300)" d="M848.604 31.9946 Q842.796 31.9946 840.557 33.3227 Q838.317 34.6509 838.317 37.854 Q838.317 40.406 839.984 41.9164 Q841.677 43.4008 844.567 43.4008 Q848.552 43.4008 850.947 40.5883 Q853.369 37.7498 853.369 33.0623 L853.369 31.9946 L848.604 31.9946 M858.161 30.0155 L858.161 46.656 L853.369 46.656 L853.369 42.2289 Q851.729 44.8852 849.281 46.1612 Q846.833 47.4112 843.291 47.4112 Q838.812 47.4112 836.156 44.9112 Q833.526 42.3852 833.526 38.1665 Q833.526 33.2446 836.807 30.7446 Q840.114 28.2446 846.651 28.2446 L853.369 28.2446 L853.369 27.7759 Q853.369 24.4686 851.182 22.6718 Q849.02 20.8488 845.088 20.8488 Q842.588 20.8488 840.218 21.4478 Q837.849 22.0468 835.661 23.2447 L835.661 18.8176 Q838.291 17.802 840.765 17.3072 Q843.239 16.7864 845.583 16.7864 Q851.911 16.7864 855.036 20.0676 Q858.161 23.3488 858.161 30.0155 Z" fill="#000000" fill-rule="nonzero" fill-opacity="1"></path><path clip-path="url(#clip300)" d="M869.255 40.0415 L874.749 40.0415 L874.749 46.656 L869.255 46.656 L869.255 40.0415 M869.255 19.078 L874.749 19.078 L874.749 25.6926 L869.255 25.6926 L869.255 19.078 Z" fill="#000000" fill-rule="nonzero" fill-opacity="1"></path><path clip-path="url(#clip300)" d="M914.254 20.8488 Q910.4 20.8488 908.161 23.8697 Q905.921 26.8644 905.921 32.0988 Q905.921 37.3331 908.135 40.354 Q910.374 43.3487 914.254 43.3487 Q918.082 43.3487 920.322 40.3279 Q922.562 37.3071 922.562 32.0988 Q922.562 26.9165 920.322 23.8957 Q918.082 20.8488 914.254 20.8488 M914.254 16.7864 Q920.504 16.7864 924.072 20.8488 Q927.64 24.9113 927.64 32.0988 Q927.64 39.2602 924.072 43.3487 Q920.504 47.4112 914.254 47.4112 Q907.978 47.4112 904.411 43.3487 Q900.869 39.2602 900.869 32.0988 Q900.869 24.9113 904.411 20.8488 Q907.978 16.7864 914.254 16.7864 Z" fill="#000000" fill-rule="nonzero" fill-opacity="1"></path><path clip-path="url(#clip300)" d="M954.775 21.9165 L954.775 6.13538 L959.567 6.13538 L959.567 46.656 L954.775 46.656 L954.775 42.281 Q953.265 44.8852 950.947 46.1612 Q948.655 47.4112 945.426 47.4112 Q940.14 47.4112 936.806 43.1925 Q933.499 38.9737 933.499 32.0988 Q933.499 25.2238 936.806 21.0051 Q940.14 16.7864 945.426 16.7864 Q948.655 16.7864 950.947 18.0624 Q953.265 19.3124 954.775 21.9165 M938.447 32.0988 Q938.447 37.3852 940.608 40.406 Q942.796 43.4008 946.598 43.4008 Q950.4 43.4008 952.587 40.406 Q954.775 37.3852 954.775 32.0988 Q954.775 26.8124 952.587 23.8176 Q950.4 20.7968 946.598 20.7968 Q942.796 20.7968 940.608 23.8176 Q938.447 26.8124 938.447 32.0988 Z" fill="#000000" fill-rule="nonzero" fill-opacity="1"></path><path clip-path="url(#clip300)" d="M965.999 17.4895 L971.077 17.4895 L980.191 41.9685 L989.306 17.4895 L994.384 17.4895 L983.447 46.656 L976.936 46.656 L965.999 17.4895 Z" fill="#000000" fill-rule="nonzero" fill-opacity="1"></path><path clip-path="url(#clip300)" d="M1001 17.4895 L1005.79 17.4895 L1005.79 46.656 L1001 46.656 L1001 17.4895 M1001 6.13538 L1005.79 6.13538 L1005.79 12.2031 L1001 12.2031 L1001 6.13538 Z" fill="#000000" fill-rule="nonzero" fill-opacity="1"></path><path clip-path="url(#clip300)" d="M1034.41 18.3489 L1034.41 22.8801 Q1032.38 21.8384 1030.19 21.3176 Q1028 20.7968 1025.66 20.7968 Q1022.09 20.7968 1020.3 21.8905 Q1018.52 22.9843 1018.52 25.1717 Q1018.52 26.8384 1019.8 27.8019 Q1021.08 28.7394 1024.93 29.5988 L1026.57 29.9634 Q1031.68 31.0571 1033.81 33.0623 Q1035.97 35.0415 1035.97 38.6092 Q1035.97 42.6716 1032.74 45.0414 Q1029.54 47.4112 1023.92 47.4112 Q1021.57 47.4112 1019.02 46.9425 Q1016.49 46.4998 1013.68 45.5883 L1013.68 40.6404 Q1016.34 42.0206 1018.92 42.7237 Q1021.49 43.4008 1024.02 43.4008 Q1027.4 43.4008 1029.23 42.255 Q1031.05 41.0831 1031.05 38.9737 Q1031.05 37.0206 1029.72 35.979 Q1028.42 34.9373 1023.97 33.9738 L1022.3 33.5832 Q1017.85 32.6457 1015.87 30.7186 Q1013.89 28.7655 1013.89 25.3801 Q1013.89 21.2655 1016.81 19.0259 Q1019.72 16.7864 1025.09 16.7864 Q1027.74 16.7864 1030.09 17.177 Q1032.43 17.5676 1034.41 18.3489 Z" fill="#000000" fill-rule="nonzero" fill-opacity="1"></path><path clip-path="url(#clip300)" d="M1067.85 29.0519 L1067.85 46.656 L1063.06 46.656 L1063.06 29.2082 Q1063.06 25.0676 1061.44 23.0103 Q1059.83 20.953 1056.6 20.953 Q1052.72 20.953 1050.48 23.427 Q1048.24 25.9009 1048.24 30.1717 L1048.24 46.656 L1043.42 46.656 L1043.42 17.4895 L1048.24 17.4895 L1048.24 22.0207 Q1049.96 19.3905 1052.27 18.0884 Q1054.62 16.7864 1057.67 16.7864 Q1062.69 16.7864 1065.27 19.9114 Q1067.85 23.0103 1067.85 29.0519 Z" fill="#000000" fill-rule="nonzero" fill-opacity="1"></path><path clip-path="url(#clip300)" d="M1088.71 20.8488 Q1084.85 20.8488 1082.61 23.8697 Q1080.37 26.8644 1080.37 32.0988 Q1080.37 37.3331 1082.59 40.354 Q1084.83 43.3487 1088.71 43.3487 Q1092.53 43.3487 1094.77 40.3279 Q1097.01 37.3071 1097.01 32.0988 Q1097.01 26.9165 1094.77 23.8957 Q1092.53 20.8488 1088.71 20.8488 M1088.71 16.7864 Q1094.96 16.7864 1098.52 20.8488 Q1102.09 24.9113 1102.09 32.0988 Q1102.09 39.2602 1098.52 43.3487 Q1094.96 47.4112 1088.71 47.4112 Q1082.43 47.4112 1078.86 43.3487 Q1075.32 39.2602 1075.32 32.0988 Q1075.32 24.9113 1078.86 20.8488 Q1082.43 16.7864 1088.71 16.7864 Z" fill="#000000" fill-rule="nonzero" fill-opacity="1"></path><path clip-path="url(#clip300)" d="M1128.63 18.3489 L1128.63 22.8801 Q1126.6 21.8384 1124.41 21.3176 Q1122.22 20.7968 1119.88 20.7968 Q1116.31 20.7968 1114.51 21.8905 Q1112.74 22.9843 1112.74 25.1717 Q1112.74 26.8384 1114.02 27.8019 Q1115.29 28.7394 1119.15 29.5988 L1120.79 29.9634 Q1125.89 31.0571 1128.03 33.0623 Q1130.19 35.0415 1130.19 38.6092 Q1130.19 42.6716 1126.96 45.0414 Q1123.76 47.4112 1118.13 47.4112 Q1115.79 47.4112 1113.24 46.9425 Q1110.71 46.4998 1107.9 45.5883 L1107.9 40.6404 Q1110.56 42.0206 1113.13 42.7237 Q1115.71 43.4008 1118.24 43.4008 Q1121.62 43.4008 1123.45 42.255 Q1125.27 41.0831 1125.27 38.9737 Q1125.27 37.0206 1123.94 35.979 Q1122.64 34.9373 1118.19 33.9738 L1116.52 33.5832 Q1112.07 32.6457 1110.09 30.7186 Q1108.11 28.7655 1108.11 25.3801 Q1108.11 21.2655 1111.02 19.0259 Q1113.94 16.7864 1119.31 16.7864 Q1121.96 16.7864 1124.31 17.177 Q1126.65 17.5676 1128.63 18.3489 Z" fill="#000000" fill-rule="nonzero" fill-opacity="1"></path><path clip-path="url(#clip300)" d="M1142.56 9.20828 L1142.56 17.4895 L1152.43 17.4895 L1152.43 21.2134 L1142.56 21.2134 L1142.56 37.0467 Q1142.56 40.6144 1143.52 41.63 Q1144.51 42.6456 1147.51 42.6456 L1152.43 42.6456 L1152.43 46.656 L1147.51 46.656 Q1141.96 46.656 1139.85 44.5987 Q1137.74 42.5154 1137.74 37.0467 L1137.74 21.2134 L1134.23 21.2134 L1134.23 17.4895 L1137.74 17.4895 L1137.74 9.20828 L1142.56 9.20828 Z" fill="#000000" fill-rule="nonzero" fill-opacity="1"></path><path clip-path="url(#clip300)" d="M1194.28 18.3489 L1194.28 22.8801 Q1192.25 21.8384 1190.06 21.3176 Q1187.87 20.7968 1185.53 20.7968 Q1181.96 20.7968 1180.16 21.8905 Q1178.39 22.9843 1178.39 25.1717 Q1178.39 26.8384 1179.67 27.8019 Q1180.95 28.7394 1184.8 29.5988 L1186.44 29.9634 Q1191.54 31.0571 1193.68 33.0623 Q1195.84 35.0415 1195.84 38.6092 Q1195.84 42.6716 1192.61 45.0414 Q1189.41 47.4112 1183.78 47.4112 Q1181.44 47.4112 1178.89 46.9425 Q1176.36 46.4998 1173.55 45.5883 L1173.55 40.6404 Q1176.21 42.0206 1178.78 42.7237 Q1181.36 43.4008 1183.89 43.4008 Q1187.27 43.4008 1189.1 42.255 Q1190.92 41.0831 1190.92 38.9737 Q1190.92 37.0206 1189.59 35.979 Q1188.29 34.9373 1183.84 33.9738 L1182.17 33.5832 Q1177.72 32.6457 1175.74 30.7186 Q1173.76 28.7655 1173.76 25.3801 Q1173.76 21.2655 1176.67 19.0259 Q1179.59 16.7864 1184.96 16.7864 Q1187.61 16.7864 1189.96 17.177 Q1192.3 17.5676 1194.28 18.3489 M1183.19 13.7916 L1176.81 3.99998 L1180.42 3.99998 L1185.11 10.3802 L1189.8 3.99998 L1193.42 3.99998 L1187.04 13.7916 L1183.19 13.7916 M1185.01 16.7864 L1185.01 16.7864 Z" fill="#000000" fill-rule="nonzero" fill-opacity="1"></path><path clip-path="url(#clip300)" d="M1208.21 9.20828 L1208.21 17.4895 L1218.08 17.4895 L1218.08 21.2134 L1208.21 21.2134 L1208.21 37.0467 Q1208.21 40.6144 1209.17 41.63 Q1210.16 42.6456 1213.16 42.6456 L1218.08 42.6456 L1218.08 46.656 L1213.16 46.656 Q1207.61 46.656 1205.5 44.5987 Q1203.39 42.5154 1203.39 37.0467 L1203.39 21.2134 L1199.88 21.2134 L1199.88 17.4895 L1203.39 17.4895 L1203.39 9.20828 L1208.21 9.20828 Z" fill="#000000" fill-rule="nonzero" fill-opacity="1"></path><path clip-path="url(#clip300)" d="M1249.33 30.8748 L1249.33 33.2186 L1227.3 33.2186 Q1227.61 38.1665 1230.27 40.7706 Q1232.95 43.3487 1237.72 43.3487 Q1240.48 43.3487 1243.05 42.6716 Q1245.66 41.9946 1248.21 40.6404 L1248.21 45.1716 Q1245.63 46.2654 1242.92 46.8383 Q1240.22 47.4112 1237.43 47.4112 Q1230.45 47.4112 1226.36 43.3487 Q1222.3 39.2862 1222.3 32.3592 Q1222.3 25.1978 1226.15 21.0051 Q1230.03 16.7864 1236.6 16.7864 Q1242.48 16.7864 1245.89 20.5884 Q1249.33 24.3645 1249.33 30.8748 M1244.54 29.4686 Q1244.49 25.5363 1242.33 23.1926 Q1240.19 20.8488 1236.65 20.8488 Q1232.64 20.8488 1230.22 23.1145 Q1227.82 25.3801 1227.46 29.4946 L1244.54 29.4686 Z" fill="#000000" fill-rule="nonzero" fill-opacity="1"></path><path clip-path="url(#clip300)" d="M1253.76 17.4895 L1258.84 17.4895 L1267.95 41.9685 L1277.06 17.4895 L1282.14 17.4895 L1271.21 46.656 L1264.7 46.656 L1253.76 17.4895 Z" fill="#000000" fill-rule="nonzero" fill-opacity="1"></path><path clip-path="url(#clip300)" d="M1288.76 17.4895 L1293.55 17.4895 L1293.55 46.656 L1288.76 46.656 L1288.76 17.4895 M1288.76 6.13538 L1293.55 6.13538 L1293.55 12.2031 L1288.76 12.2031 L1288.76 6.13538 Z" fill="#000000" fill-rule="nonzero" fill-opacity="1"></path><path clip-path="url(#clip300)" d="M1303.58 6.13538 L1308.37 6.13538 L1308.37 46.656 L1303.58 46.656 L1303.58 6.13538 Z" fill="#000000" fill-rule="nonzero" fill-opacity="1"></path><path clip-path="url(#clip300)" d="M1331.65 31.9946 Q1325.84 31.9946 1323.6 33.3227 Q1321.36 34.6509 1321.36 37.854 Q1321.36 40.406 1323.03 41.9164 Q1324.72 43.4008 1327.61 43.4008 Q1331.6 43.4008 1333.99 40.5883 Q1336.41 37.7498 1336.41 33.0623 L1336.41 31.9946 L1331.65 31.9946 M1341.21 30.0155 L1341.21 46.656 L1336.41 46.656 L1336.41 42.2289 Q1334.77 44.8852 1332.33 46.1612 Q1329.88 47.4112 1326.34 47.4112 Q1321.86 47.4112 1319.2 44.9112 Q1316.57 42.3852 1316.57 38.1665 Q1316.57 33.2446 1319.85 30.7446 Q1323.16 28.2446 1329.69 28.2446 L1336.41 28.2446 L1336.41 27.7759 Q1336.41 24.4686 1334.23 22.6718 Q1332.06 20.8488 1328.13 20.8488 Q1325.63 20.8488 1323.26 21.4478 Q1320.89 22.0468 1318.71 23.2447 L1318.71 18.8176 Q1321.34 17.802 1323.81 17.3072 Q1326.28 16.7864 1328.63 16.7864 Q1334.96 16.7864 1338.08 20.0676 Q1341.21 23.3488 1341.21 30.0155 Z" fill="#000000" fill-rule="nonzero" fill-opacity="1"></path><path clip-path="url(#clip300)" d="M1372.66 42.281 L1372.66 57.7497 L1367.85 57.7497 L1367.85 17.4895 L1372.66 17.4895 L1372.66 21.9165 Q1374.17 19.3124 1376.47 18.0624 Q1378.78 16.7864 1381.99 16.7864 Q1387.3 16.7864 1390.61 21.0051 Q1393.94 25.2238 1393.94 32.0988 Q1393.94 38.9737 1390.61 43.1925 Q1387.3 47.4112 1381.99 47.4112 Q1378.78 47.4112 1376.47 46.1612 Q1374.17 44.8852 1372.66 42.281 M1388.97 32.0988 Q1388.97 26.8124 1386.78 23.8176 Q1384.62 20.7968 1380.81 20.7968 Q1377.01 20.7968 1374.82 23.8176 Q1372.66 26.8124 1372.66 32.0988 Q1372.66 37.3852 1374.82 40.406 Q1377.01 43.4008 1380.81 43.4008 Q1384.62 43.4008 1386.78 40.406 Q1388.97 37.3852 1388.97 32.0988 Z" fill="#000000" fill-rule="nonzero" fill-opacity="1"></path><path clip-path="url(#clip300)" d="M1413.18 20.8488 Q1409.33 20.8488 1407.09 23.8697 Q1404.85 26.8644 1404.85 32.0988 Q1404.85 37.3331 1407.06 40.354 Q1409.3 43.3487 1413.18 43.3487 Q1417.01 43.3487 1419.25 40.3279 Q1421.49 37.3071 1421.49 32.0988 Q1421.49 26.9165 1419.25 23.8957 Q1417.01 20.8488 1413.18 20.8488 M1413.18 16.7864 Q1419.43 16.7864 1423 20.8488 Q1426.57 24.9113 1426.57 32.0988 Q1426.57 39.2602 1423 43.3487 Q1419.43 47.4112 1413.18 47.4112 Q1406.91 47.4112 1403.34 43.3487 Q1399.8 39.2602 1399.8 32.0988 Q1399.8 24.9113 1403.34 20.8488 Q1406.91 16.7864 1413.18 16.7864 Z" fill="#000000" fill-rule="nonzero" fill-opacity="1"></path><path clip-path="url(#clip300)" d="M1453.7 21.9165 L1453.7 6.13538 L1458.5 6.13538 L1458.5 46.656 L1453.7 46.656 L1453.7 42.281 Q1452.19 44.8852 1449.88 46.1612 Q1447.58 47.4112 1444.36 47.4112 Q1439.07 47.4112 1435.74 43.1925 Q1432.43 38.9737 1432.43 32.0988 Q1432.43 25.2238 1435.74 21.0051 Q1439.07 16.7864 1444.36 16.7864 Q1447.58 16.7864 1449.88 18.0624 Q1452.19 19.3124 1453.7 21.9165 M1437.38 32.0988 Q1437.38 37.3852 1439.54 40.406 Q1441.73 43.4008 1445.53 43.4008 Q1449.33 43.4008 1451.52 40.406 Q1453.7 37.3852 1453.7 32.0988 Q1453.7 26.8124 1451.52 23.8176 Q1449.33 20.7968 1445.53 20.7968 Q1441.73 20.7968 1439.54 23.8176 Q1437.38 26.8124 1437.38 32.0988 Z" fill="#000000" fill-rule="nonzero" fill-opacity="1"></path><path clip-path="url(#clip300)" d="M1468.37 17.4895 L1473.16 17.4895 L1473.16 46.656 L1468.37 46.656 L1468.37 17.4895 M1468.37 6.13538 L1473.16 6.13538 L1473.16 12.2031 L1468.37 12.2031 L1468.37 6.13538 Z" fill="#000000" fill-rule="nonzero" fill-opacity="1"></path><path clip-path="url(#clip300)" d="M1507.43 29.0519 L1507.43 46.656 L1502.64 46.656 L1502.64 29.2082 Q1502.64 25.0676 1501.02 23.0103 Q1499.41 20.953 1496.18 20.953 Q1492.3 20.953 1490.06 23.427 Q1487.82 25.9009 1487.82 30.1717 L1487.82 46.656 L1483 46.656 L1483 17.4895 L1487.82 17.4895 L1487.82 22.0207 Q1489.54 19.3905 1491.86 18.0884 Q1494.2 16.7864 1497.25 16.7864 Q1502.27 16.7864 1504.85 19.9114 Q1507.43 23.0103 1507.43 29.0519 Z" fill="#000000" fill-rule="nonzero" fill-opacity="1"></path><path clip-path="url(#clip300)" d="M1521.73 9.20828 L1521.73 17.4895 L1531.59 17.4895 L1531.59 21.2134 L1521.73 21.2134 L1521.73 37.0467 Q1521.73 40.6144 1522.69 41.63 Q1523.68 42.6456 1526.67 42.6456 L1531.59 42.6456 L1531.59 46.656 L1526.67 46.656 Q1521.13 46.656 1519.02 44.5987 Q1516.91 42.5154 1516.91 37.0467 L1516.91 21.2134 L1513.39 21.2134 L1513.39 17.4895 L1516.91 17.4895 L1516.91 9.20828 L1521.73 9.20828 Z" fill="#000000" fill-rule="nonzero" fill-opacity="1"></path><path clip-path="url(#clip300)" d="M1562.84 30.8748 L1562.84 33.2186 L1540.81 33.2186 Q1541.13 38.1665 1543.78 40.7706 Q1546.46 43.3487 1551.23 43.3487 Q1553.99 43.3487 1556.57 42.6716 Q1559.17 41.9946 1561.72 40.6404 L1561.72 45.1716 Q1559.15 46.2654 1556.44 46.8383 Q1553.73 47.4112 1550.94 47.4112 Q1543.96 47.4112 1539.88 43.3487 Q1535.81 39.2862 1535.81 32.3592 Q1535.81 25.1978 1539.67 21.0051 Q1543.55 16.7864 1550.11 16.7864 Q1556 16.7864 1559.41 20.5884 Q1562.84 24.3645 1562.84 30.8748 M1558.05 29.4686 Q1558 25.5363 1555.84 23.1926 Q1553.7 20.8488 1550.16 20.8488 Q1546.15 20.8488 1543.73 23.1145 Q1541.33 25.3801 1540.97 29.4946 L1558.05 29.4686 Z" fill="#000000" fill-rule="nonzero" fill-opacity="1"></path><path clip-path="url(#clip300)" d="M1587.61 21.9686 Q1586.8 21.4999 1585.84 21.2916 Q1584.9 21.0572 1583.76 21.0572 Q1579.69 21.0572 1577.51 23.7134 Q1575.34 26.3436 1575.34 31.2915 L1575.34 46.656 L1570.53 46.656 L1570.53 17.4895 L1575.34 17.4895 L1575.34 22.0207 Q1576.85 19.3645 1579.28 18.0884 Q1581.7 16.7864 1585.16 16.7864 Q1585.66 16.7864 1586.26 16.8645 Q1586.85 16.9166 1587.58 17.0468 L1587.61 21.9686 Z" fill="#000000" fill-rule="nonzero" fill-opacity="1"></path><path clip-path="url(#clip300)" d="M1589.2 17.4895 L1594.28 17.4895 L1603.39 41.9685 L1612.51 17.4895 L1617.58 17.4895 L1606.65 46.656 L1600.14 46.656 L1589.2 17.4895 Z" fill="#000000" fill-rule="nonzero" fill-opacity="1"></path><path clip-path="url(#clip300)" d="M1637.45 31.9946 Q1631.65 31.9946 1629.41 33.3227 Q1627.17 34.6509 1627.17 37.854 Q1627.17 40.406 1628.83 41.9164 Q1630.53 43.4008 1633.42 43.4008 Q1637.4 43.4008 1639.8 40.5883 Q1642.22 37.7498 1642.22 33.0623 L1642.22 31.9946 L1637.45 31.9946 M1647.01 30.0155 L1647.01 46.656 L1642.22 46.656 L1642.22 42.2289 Q1640.58 44.8852 1638.13 46.1612 Q1635.68 47.4112 1632.14 47.4112 Q1627.66 47.4112 1625.01 44.9112 Q1622.38 42.3852 1622.38 38.1665 Q1622.38 33.2446 1625.66 30.7446 Q1628.96 28.2446 1635.5 28.2446 L1642.22 28.2446 L1642.22 27.7759 Q1642.22 24.4686 1640.03 22.6718 Q1637.87 20.8488 1633.94 20.8488 Q1631.44 20.8488 1629.07 21.4478 Q1626.7 22.0468 1624.51 23.2447 L1624.51 18.8176 Q1627.14 17.802 1629.62 17.3072 Q1632.09 16.7864 1634.43 16.7864 Q1640.76 16.7864 1643.89 20.0676 Q1647.01 23.3488 1647.01 30.0155 Z" fill="#000000" fill-rule="nonzero" fill-opacity="1"></path><path clip-path="url(#clip300)" d="M1656.88 6.13538 L1661.67 6.13538 L1661.67 46.656 L1656.88 46.656 L1656.88 6.13538 Z" fill="#000000" fill-rule="nonzero" fill-opacity="1"></path><path clip-path="url(#clip300)" d="M1683 20.8488 Q1679.15 20.8488 1676.91 23.8697 Q1674.67 26.8644 1674.67 32.0988 Q1674.67 37.3331 1676.88 40.354 Q1679.12 43.3487 1683 43.3487 Q1686.83 43.3487 1689.07 40.3279 Q1691.31 37.3071 1691.31 32.0988 Q1691.31 26.9165 1689.07 23.8957 Q1686.83 20.8488 1683 20.8488 M1683 16.7864 Q1689.25 16.7864 1692.82 20.8488 Q1696.39 24.9113 1696.39 32.0988 Q1696.39 39.2602 1692.82 43.3487 Q1689.25 47.4112 1683 47.4112 Q1676.72 47.4112 1673.16 43.3487 Q1669.61 39.2602 1669.61 32.0988 Q1669.61 24.9113 1673.16 20.8488 Q1676.72 16.7864 1683 16.7864 Z" fill="#000000" fill-rule="nonzero" fill-opacity="1"></path><path clip-path="url(#clip300)" d="M1700.89 17.4895 L1705.97 17.4895 L1715.08 41.9685 L1724.2 17.4895 L1729.28 17.4895 L1718.34 46.656 L1711.83 46.656 L1700.89 17.4895 Z" fill="#000000" fill-rule="nonzero" fill-opacity="1"></path><path clip-path="url(#clip300)" d="M1764.15 20.8488 Q1760.29 20.8488 1758.05 23.8697 Q1755.81 26.8644 1755.81 32.0988 Q1755.81 37.3331 1758.03 40.354 Q1760.27 43.3487 1764.15 43.3487 Q1767.97 43.3487 1770.21 40.3279 Q1772.45 37.3071 1772.45 32.0988 Q1772.45 26.9165 1770.21 23.8957 Q1767.97 20.8488 1764.15 20.8488 M1764.15 16.7864 Q1770.4 16.7864 1773.96 20.8488 Q1777.53 24.9113 1777.53 32.0988 Q1777.53 39.2602 1773.96 43.3487 Q1770.4 47.4112 1764.15 47.4112 Q1757.87 47.4112 1754.3 43.3487 Q1750.76 39.2602 1750.76 32.0988 Q1750.76 24.9113 1754.3 20.8488 Q1757.87 16.7864 1764.15 16.7864 Z" fill="#000000" fill-rule="nonzero" fill-opacity="1"></path><path clip-path="url(#clip300)" d="M1804.67 21.9165 L1804.67 6.13538 L1809.46 6.13538 L1809.46 46.656 L1804.67 46.656 L1804.67 42.281 Q1803.16 44.8852 1800.84 46.1612 Q1798.55 47.4112 1795.32 47.4112 Q1790.03 47.4112 1786.7 43.1925 Q1783.39 38.9737 1783.39 32.0988 Q1783.39 25.2238 1786.7 21.0051 Q1790.03 16.7864 1795.32 16.7864 Q1798.55 16.7864 1800.84 18.0624 Q1803.16 19.3124 1804.67 21.9165 M1788.34 32.0988 Q1788.34 37.3852 1790.5 40.406 Q1792.69 43.4008 1796.49 43.4008 Q1800.29 43.4008 1802.48 40.406 Q1804.67 37.3852 1804.67 32.0988 Q1804.67 26.8124 1802.48 23.8176 Q1800.29 20.7968 1796.49 20.7968 Q1792.69 20.7968 1790.5 23.8176 Q1788.34 26.8124 1788.34 32.0988 Z" fill="#000000" fill-rule="nonzero" fill-opacity="1"></path><path clip-path="url(#clip300)" d="M1832.84 17.4895 L1837.92 17.4895 L1847.04 41.9685 L1856.15 17.4895 L1861.23 17.4895 L1850.29 46.656 L1843.78 46.656 L1832.84 17.4895 Z" fill="#000000" fill-rule="nonzero" fill-opacity="1"></path><path clip-path="url(#clip300)" d="M1892.09 29.0519 L1892.09 46.656 L1887.3 46.656 L1887.3 29.2082 Q1887.3 25.0676 1885.68 23.0103 Q1884.07 20.953 1880.84 20.953 Q1876.96 20.953 1874.72 23.427 Q1872.48 25.9009 1872.48 30.1717 L1872.48 46.656 L1867.66 46.656 L1867.66 6.13538 L1872.48 6.13538 L1872.48 22.0207 Q1874.2 19.3905 1876.51 18.0884 Q1878.86 16.7864 1881.91 16.7864 Q1886.93 16.7864 1889.51 19.9114 Q1892.09 23.0103 1892.09 29.0519 Z" fill="#000000" fill-rule="nonzero" fill-opacity="1"></path><path clip-path="url(#clip300)" d="M1912.95 20.8488 Q1909.09 20.8488 1906.85 23.8697 Q1904.61 26.8644 1904.61 32.0988 Q1904.61 37.3331 1906.83 40.354 Q1909.07 43.3487 1912.95 43.3487 Q1916.78 43.3487 1919.01 40.3279 Q1921.25 37.3071 1921.25 32.0988 Q1921.25 26.9165 1919.01 23.8957 Q1916.78 20.8488 1912.95 20.8488 M1912.95 16.7864 Q1919.2 16.7864 1922.76 20.8488 Q1926.33 24.9113 1926.33 32.0988 Q1926.33 39.2602 1922.76 43.3487 Q1919.2 47.4112 1912.95 47.4112 Q1906.67 47.4112 1903.1 43.3487 Q1899.56 39.2602 1899.56 32.0988 Q1899.56 24.9113 1903.1 20.8488 Q1906.67 16.7864 1912.95 16.7864 Z" fill="#000000" fill-rule="nonzero" fill-opacity="1"></path><path clip-path="url(#clip300)" d="M1953.47 21.9165 L1953.47 6.13538 L1958.26 6.13538 L1958.26 46.656 L1953.47 46.656 L1953.47 42.281 Q1951.96 44.8852 1949.64 46.1612 Q1947.35 47.4112 1944.12 47.4112 Q1938.83 47.4112 1935.5 43.1925 Q1932.19 38.9737 1932.19 32.0988 Q1932.19 25.2238 1935.5 21.0051 Q1938.83 16.7864 1944.12 16.7864 Q1947.35 16.7864 1949.64 18.0624 Q1951.96 19.3124 1953.47 21.9165 M1937.14 32.0988 Q1937.14 37.3852 1939.3 40.406 Q1941.49 43.4008 1945.29 43.4008 Q1949.09 43.4008 1951.28 40.406 Q1953.47 37.3852 1953.47 32.0988 Q1953.47 26.8124 1951.28 23.8176 Q1949.09 20.7968 1945.29 20.7968 Q1941.49 20.7968 1939.3 23.8176 Q1937.14 26.8124 1937.14 32.0988 Z" fill="#000000" fill-rule="nonzero" fill-opacity="1"></path><path clip-path="url(#clip300)" d="M1992.37 29.0519 L1992.37 46.656 L1987.58 46.656 L1987.58 29.2082 Q1987.58 25.0676 1985.97 23.0103 Q1984.35 20.953 1981.12 20.953 Q1977.24 20.953 1975 23.427 Q1972.76 25.9009 1972.76 30.1717 L1972.76 46.656 L1967.95 46.656 L1967.95 17.4895 L1972.76 17.4895 L1972.76 22.0207 Q1974.48 19.3905 1976.8 18.0884 Q1979.14 16.7864 1982.19 16.7864 Q1987.22 16.7864 1989.8 19.9114 Q1992.37 23.0103 1992.37 29.0519 Z" fill="#000000" fill-rule="nonzero" fill-opacity="1"></path><path clip-path="url(#clip300)" d="M2026.88 30.8748 L2026.88 33.2186 L2004.85 33.2186 Q2005.16 38.1665 2007.82 40.7706 Q2010.5 43.3487 2015.26 43.3487 Q2018.02 43.3487 2020.6 42.6716 Q2023.21 41.9946 2025.76 40.6404 L2025.76 45.1716 Q2023.18 46.2654 2020.47 46.8383 Q2017.76 47.4112 2014.98 47.4112 Q2008 47.4112 2003.91 43.3487 Q1999.85 39.2862 1999.85 32.3592 Q1999.85 25.1978 2003.7 21.0051 Q2007.58 16.7864 2014.14 16.7864 Q2020.03 16.7864 2023.44 20.5884 Q2026.88 24.3645 2026.88 30.8748 M2022.09 29.4686 Q2022.03 25.5363 2019.87 23.1926 Q2017.74 20.8488 2014.2 20.8488 Q2010.19 20.8488 2007.76 23.1145 Q2005.37 25.3801 2005 29.4946 L2022.09 29.4686 Z" fill="#000000" fill-rule="nonzero" fill-opacity="1"></path><path clip-path="url(#clip300)" d="M2048.26 17.4895 L2053.34 17.4895 L2062.45 41.9685 L2071.57 17.4895 L2076.64 17.4895 L2065.71 46.656 L2059.2 46.656 L2048.26 17.4895 Z" fill="#000000" fill-rule="nonzero" fill-opacity="1"></path><path clip-path="url(#clip300)" d="M2100.16 21.9686 Q2099.35 21.4999 2098.39 21.2916 Q2097.45 21.0572 2096.31 21.0572 Q2092.24 21.0572 2090.06 23.7134 Q2087.89 26.3436 2087.89 31.2915 L2087.89 46.656 L2083.08 46.656 L2083.08 17.4895 L2087.89 17.4895 L2087.89 22.0207 Q2089.4 19.3645 2091.83 18.0884 Q2094.25 16.7864 2097.71 16.7864 Q2098.21 16.7864 2098.81 16.8645 Q2099.4 16.9166 2100.13 17.0468 L2100.16 21.9686 Z" fill="#000000" fill-rule="nonzero" fill-opacity="1"></path><path clip-path="url(#clip300)" d="M2128.96 30.8748 L2128.96 33.2186 L2106.93 33.2186 Q2107.24 38.1665 2109.9 40.7706 Q2112.58 43.3487 2117.35 43.3487 Q2120.11 43.3487 2122.69 42.6716 Q2125.29 41.9946 2127.84 40.6404 L2127.84 45.1716 Q2125.26 46.2654 2122.56 46.8383 Q2119.85 47.4112 2117.06 47.4112 Q2110.08 47.4112 2105.99 43.3487 Q2101.93 39.2862 2101.93 32.3592 Q2101.93 25.1978 2105.78 21.0051 Q2109.66 16.7864 2116.23 16.7864 Q2122.11 16.7864 2125.52 20.5884 Q2128.96 24.3645 2128.96 30.8748 M2124.17 29.4686 Q2124.12 25.5363 2121.96 23.1926 Q2119.82 20.8488 2116.28 20.8488 Q2112.27 20.8488 2109.85 23.1145 Q2107.45 25.3801 2107.09 29.4946 L2124.17 29.4686 Z" fill="#000000" fill-rule="nonzero" fill-opacity="1"></path><path clip-path="url(#clip300)" d="M2156.02 21.9165 L2156.02 6.13538 L2160.81 6.13538 L2160.81 46.656 L2156.02 46.656 L2156.02 42.281 Q2154.51 44.8852 2152.19 46.1612 Q2149.9 47.4112 2146.67 47.4112 Q2141.38 47.4112 2138.05 43.1925 Q2134.74 38.9737 2134.74 32.0988 Q2134.74 25.2238 2138.05 21.0051 Q2141.38 16.7864 2146.67 16.7864 Q2149.9 16.7864 2152.19 18.0624 Q2154.51 19.3124 2156.02 21.9165 M2139.69 32.0988 Q2139.69 37.3852 2141.85 40.406 Q2144.04 43.4008 2147.84 43.4008 Q2151.64 43.4008 2153.83 40.406 Q2156.02 37.3852 2156.02 32.0988 Q2156.02 26.8124 2153.83 23.8176 Q2151.64 20.7968 2147.84 20.7968 Q2144.04 20.7968 2141.85 23.8176 Q2139.69 26.8124 2139.69 32.0988 Z" fill="#000000" fill-rule="nonzero" fill-opacity="1"></path><path clip-path="url(#clip300)" d="M2194.92 29.0519 L2194.92 46.656 L2190.13 46.656 L2190.13 29.2082 Q2190.13 25.0676 2188.52 23.0103 Q2186.9 20.953 2183.67 20.953 Q2179.79 20.953 2177.55 23.427 Q2175.32 25.9009 2175.32 30.1717 L2175.32 46.656 L2170.5 46.656 L2170.5 17.4895 L2175.32 17.4895 L2175.32 22.0207 Q2177.03 19.3905 2179.35 18.0884 Q2181.7 16.7864 2184.74 16.7864 Q2189.77 16.7864 2192.35 19.9114 Q2194.92 23.0103 2194.92 29.0519 Z" fill="#000000" fill-rule="nonzero" fill-opacity="1"></path><path clip-path="url(#clip300)" d="M2215.78 20.8488 Q2211.93 20.8488 2209.69 23.8697 Q2207.45 26.8644 2207.45 32.0988 Q2207.45 37.3331 2209.66 40.354 Q2211.9 43.3487 2215.78 43.3487 Q2219.61 43.3487 2221.85 40.3279 Q2224.09 37.3071 2224.09 32.0988 Q2224.09 26.9165 2221.85 23.8957 Q2219.61 20.8488 2215.78 20.8488 M2215.78 16.7864 Q2222.03 16.7864 2225.6 20.8488 Q2229.17 24.9113 2229.17 32.0988 Q2229.17 39.2602 2225.6 43.3487 Q2222.03 47.4112 2215.78 47.4112 Q2209.51 47.4112 2205.94 43.3487 Q2202.4 39.2602 2202.4 32.0988 Q2202.4 24.9113 2205.94 20.8488 Q2209.51 16.7864 2215.78 16.7864 Z" fill="#000000" fill-rule="nonzero" fill-opacity="1"></path><path clip-path="url(#clip300)" d="M2255.71 18.3489 L2255.71 22.8801 Q2253.67 21.8384 2251.49 21.3176 Q2249.3 20.7968 2246.96 20.7968 Q2243.39 20.7968 2241.59 21.8905 Q2239.82 22.9843 2239.82 25.1717 Q2239.82 26.8384 2241.1 27.8019 Q2242.37 28.7394 2246.23 29.5988 L2247.87 29.9634 Q2252.97 31.0571 2255.11 33.0623 Q2257.27 35.0415 2257.27 38.6092 Q2257.27 42.6716 2254.04 45.0414 Q2250.84 47.4112 2245.21 47.4112 Q2242.87 47.4112 2240.31 46.9425 Q2237.79 46.4998 2234.98 45.5883 L2234.98 40.6404 Q2237.63 42.0206 2240.21 42.7237 Q2242.79 43.4008 2245.31 43.4008 Q2248.7 43.4008 2250.52 42.255 Q2252.35 41.0831 2252.35 38.9737 Q2252.35 37.0206 2251.02 35.979 Q2249.72 34.9373 2245.26 33.9738 L2243.6 33.5832 Q2239.14 32.6457 2237.16 30.7186 Q2235.18 28.7655 2235.18 25.3801 Q2235.18 21.2655 2238.1 19.0259 Q2241.02 16.7864 2246.38 16.7864 Q2249.04 16.7864 2251.38 17.177 Q2253.73 17.5676 2255.71 18.3489 Z" fill="#000000" fill-rule="nonzero" fill-opacity="1"></path><path clip-path="url(#clip300)" d="M2269.64 9.20828 L2269.64 17.4895 L2279.51 17.4895 L2279.51 21.2134 L2269.64 21.2134 L2269.64 37.0467 Q2269.64 40.6144 2270.6 41.63 Q2271.59 42.6456 2274.59 42.6456 L2279.51 42.6456 L2279.51 46.656 L2274.59 46.656 Q2269.04 46.656 2266.93 44.5987 Q2264.82 42.5154 2264.82 37.0467 L2264.82 21.2134 L2261.3 21.2134 L2261.3 17.4895 L2264.82 17.4895 L2264.82 9.20828 L2269.64 9.20828 Z" fill="#000000" fill-rule="nonzero" fill-opacity="1"></path><path clip-path="url(#clip300)" d="M2285.81 17.4895 L2290.6 17.4895 L2290.6 46.656 L2285.81 46.656 L2285.81 17.4895 M2285.81 6.13538 L2290.6 6.13538 L2290.6 12.2031 L2285.81 12.2031 L2285.81 6.13538 Z" fill="#000000" fill-rule="nonzero" fill-opacity="1"></path><polyline clip-path="url(#clip302)" style="stroke:#009af9; stroke-linecap:round; stroke-linejoin:round; stroke-width:4; stroke-opacity:1; fill:none" points="395.414,1385.78 585.448,1136.5 775.481,1136.5 965.514,1136.5 1155.55,1136.5 1345.58,887.193 1535.61,1136.5 1725.65,139.268 1915.68,1136.5 2105.71,1136.5 2295.75,1136.5 "></polyline>
<path clip-path="url(#clip300)" d="M2031.75 249.596 L2285.61 249.596 L2285.61 145.916 L2031.75 145.916  Z" fill="#ffffff" fill-rule="evenodd" fill-opacity="1"></path>
<polyline clip-path="url(#clip300)" style="stroke:#000000; stroke-linecap:round; stroke-linejoin:round; stroke-width:4; stroke-opacity:1; fill:none" points="2031.75,249.596 2285.61,249.596 2285.61,145.916 2031.75,145.916 2031.75,249.596 "></polyline>
<polyline clip-path="url(#clip300)" style="stroke:#009af9; stroke-linecap:round; stroke-linejoin:round; stroke-width:4; stroke-opacity:1; fill:none" points="2054.13,197.756 2188.42,197.756 "></polyline>
<path clip-path="url(#clip300)" d="M2224.64 217.443 Q2222.84 222.073 2221.12 223.485 Q2219.41 224.897 2216.54 224.897 L2213.14 224.897 L2213.14 221.332 L2215.64 221.332 Q2217.4 221.332 2218.37 220.499 Q2219.34 219.665 2220.52 216.563 L2221.28 214.619 L2210.8 189.11 L2215.31 189.11 L2223.41 209.388 L2231.52 189.11 L2236.03 189.11 L2224.64 217.443 Z" fill="#000000" fill-rule="nonzero" fill-opacity="1"></path><path clip-path="url(#clip300)" d="M2243.32 211.101 L2250.96 211.101 L2250.96 184.735 L2242.65 186.402 L2242.65 182.142 L2250.91 180.476 L2255.59 180.476 L2255.59 211.101 L2263.23 211.101 L2263.23 215.036 L2243.32 215.036 L2243.32 211.101 Z" fill="#000000" fill-rule="nonzero" fill-opacity="1"></path></svg>